<svg width="100" height="50" viewBox="0 0 100 50" fill="none" xmlns="http://www.w3.org/2000/svg">
<path d="M39.3242 21.4844H40.2607L44.2734 31H42.8516L41.8877 28.6074H37.6631L36.7061 31H35.3115L39.3242 21.4844ZM41.4502 27.5137L39.7822 23.3438L38.1074 27.5137H41.4502ZM45.5312 21.4844H46.8984V31H45.5312V21.4844ZM53.7891 21.4844H56.4893C58.2894 21.4844 59.4492 22.0176 59.9688 23.084C60.1556 23.4759 60.249 23.9408 60.249 24.4785C60.249 25.0163 60.1533 25.4766 59.9619 25.8594C59.7705 26.2422 59.513 26.5566 59.1895 26.8027C58.5605 27.2767 57.7197 27.5137 56.667 27.5137H55.1562V31H53.7891V21.4844ZM56.4004 26.4199C57.2253 26.4199 57.8359 26.2604 58.2324 25.9414C58.6289 25.6224 58.8271 25.1257 58.8271 24.4512C58.8271 23.5534 58.4102 22.9746 57.5762 22.7148C57.2845 22.6237 56.9313 22.5781 56.5166 22.5781H55.1562V26.4199H56.4004ZM61.8555 21.4912H64.166C65.7246 21.4912 66.9596 21.8763 67.8711 22.6465C68.8555 23.4714 69.3477 24.6745 69.3477 26.2559C69.3477 27.8372 68.8691 29.0381 67.9121 29.8584C67.0189 30.6195 65.793 31 64.2344 31H61.8555V21.4912ZM67.9463 26.2627C67.9463 23.8154 66.6566 22.5918 64.0771 22.5918H63.2227V29.9062H64.1523C66.1211 29.9062 67.3197 29.1953 67.748 27.7734C67.8802 27.3223 67.9463 26.8187 67.9463 26.2627ZM71.1934 21.4844H77.667V22.6738H72.5605V25.4766H76.5049V26.625H72.5605V31H71.1934V21.4844Z" fill="black"/>
<path d="M17.9442 28.5192C17.6211 28.5192 17.3302 28.3966 17.0717 28.1207C16.6516 27.661 16.6193 27.0787 17.0394 26.619C17.3625 26.2205 18.0089 25.8834 18.9137 25.5769C19.2369 25.485 19.5923 25.3624 19.9478 25.3011C20.174 24.9026 20.4002 24.4736 20.5941 24.0138C20.788 23.5848 20.9496 23.1863 21.0789 22.7879C20.5618 21.9604 20.0771 20.9796 20.1094 20.2134C20.1094 19.5392 20.5295 19.1101 21.2081 19.0181C21.8221 18.9568 22.2746 19.2327 22.4685 19.7844C22.727 20.5199 22.4685 21.6539 22.1776 22.6347C22.4361 23.0331 22.727 23.4315 23.0825 23.8299C23.3733 24.1671 23.6318 24.4736 23.9227 24.78C25.0537 24.78 26.1202 24.872 26.7665 25.2091C27.3482 25.5156 27.5744 25.9753 27.4128 26.527C27.2189 27.14 26.7019 27.4465 26.0555 27.3545C25.2153 27.2626 24.2458 26.4964 23.5026 25.7608C22.9855 25.7914 22.4038 25.8221 21.8221 25.914C21.402 25.9753 20.9819 26.0366 20.5941 26.1286C20.4649 26.3738 20.3033 26.5883 20.174 26.7722C19.6247 27.5384 19.1076 28.0594 18.6229 28.3353C18.3966 28.4579 18.1704 28.5192 17.9442 28.5192ZM19.2045 26.4964C18.5259 26.7109 18.0089 26.9867 17.7826 27.2319C17.6857 27.3239 17.6857 27.3852 17.815 27.5384C17.8796 27.5997 17.9119 27.661 18.1704 27.5384C18.4613 27.3545 18.8491 26.9867 19.2045 26.4964ZM24.9568 25.7914C25.4415 26.1899 25.8616 26.4351 26.1848 26.4657C26.3141 26.4964 26.3787 26.4964 26.4756 26.2818C26.508 26.2205 26.508 26.1899 26.3141 26.0673C26.0232 25.9447 25.5385 25.8221 24.9568 25.7914ZM21.7898 23.7993C21.6929 24.0445 21.5959 24.259 21.5313 24.4123C21.4344 24.6575 21.3051 24.872 21.2081 25.0865C21.3697 25.0559 21.5313 25.0252 21.6929 25.0252C22.016 24.9946 22.3392 24.9333 22.6624 24.9333C22.5008 24.7494 22.3715 24.5962 22.3069 24.5042C22.1776 24.3203 21.9837 24.0751 21.7898 23.7993ZM21.3374 19.9682C21.2081 19.9989 21.1112 19.9989 21.1112 20.2441C21.1112 20.5506 21.2405 20.9796 21.499 21.5007C21.6282 20.8877 21.6606 20.3973 21.5636 20.1215C21.499 19.9682 21.4667 19.9682 21.3374 19.9682Z" fill="black"/>
<path d="M17.5886 30.6339C17.5886 30.3581 17.7825 30.2355 18.0087 30.2355H19.0752C19.7538 30.2355 20.4001 30.6339 20.4001 31.4614C20.4001 32.1663 19.9477 32.6873 19.1075 32.6873H18.4612V33.4536C18.4612 33.7294 18.2673 33.8826 18.041 33.8826C17.7825 33.8826 17.6209 33.7294 17.6209 33.4536V30.6339H17.5886ZM18.4612 31.9518H18.9136C19.2691 31.9518 19.4953 31.7066 19.4953 31.4614C19.4953 31.1243 19.2691 30.971 18.9136 30.971H18.4612V31.9518Z" fill="black"/>
<path d="M20.8525 30.6339C20.8525 30.3581 21.0464 30.2355 21.2726 30.2355H22.3068C23.4378 30.2355 24.0841 31.0936 24.0841 32.0131C24.0841 33.2084 23.2439 33.852 22.3068 33.852H21.2726C21.0464 33.852 20.8525 33.6987 20.8525 33.4536V30.6339ZM21.7251 33.0858H22.1775C22.8561 33.0858 23.1793 32.6567 23.1793 32.0131C23.1793 31.4001 22.8561 31.0017 22.2098 31.0017H21.7251V33.0858Z" fill="black"/>
<path d="M24.6013 30.6339C24.6013 30.3581 24.7952 30.2355 25.0214 30.2355H26.3464C26.6049 30.2355 26.7665 30.3887 26.7665 30.6033C26.7665 30.8484 26.6049 30.971 26.3464 30.971H25.4415V31.6147H26.2171C26.4756 31.6147 26.6372 31.7679 26.6372 31.9824C26.6372 32.2276 26.4756 32.3502 26.2171 32.3502H25.4415V33.3923C25.4415 33.6681 25.2476 33.8213 25.0214 33.8213C24.7629 33.8213 24.6013 33.6681 24.6013 33.3923V30.6339Z" fill="black"/>
<path d="M30.4829 19.3859C30.2244 19.3859 29.9982 19.6005 29.9982 19.8457V35.3538C29.9982 35.8748 29.5458 36.3039 28.9964 36.3039H14.9713C14.4219 36.3039 13.9695 35.8748 13.9695 35.3538V14.8806C13.9695 14.3596 14.4219 13.9305 14.9713 13.9305H25.1831V16.7808C25.1831 17.7003 25.991 18.4665 26.9605 18.4665H30.4506C30.6445 18.4665 30.8384 18.3439 30.9031 18.1906C30.9677 18.0374 30.9354 17.8229 30.8061 17.6696L26.0233 13.1336C25.8941 13.0111 25.7325 12.9804 25.6032 13.0111H15.0036C13.9048 13.0111 13 13.8692 13 14.9113V35.3844C13 36.4265 13.9048 37.2846 15.0036 37.2846H28.9964C30.0952 37.2846 31 36.4265 31 35.3844V19.8457C30.9677 19.6005 30.7738 19.3859 30.4829 19.3859ZM26.9605 17.5164C26.5081 17.5164 26.1526 17.1792 26.1526 16.7502V14.5435L29.2873 17.5164H26.9605Z" fill="black"/>
<rect x="0.2" y="0.2" width="99.6" height="49.6" rx="3.8" stroke="black" stroke-width="0.4"/>
<path d="M75.0119 0.0119747L99.9723 24.9722L99.9833 45.5167L53 0.00012207L75.0119 0.0119747Z" fill="#FF2E00"/>
<path d="M76.5464 5.12169L78.1218 6.69715C79.1542 7.72949 79.5222 8.69302 79.226 9.58772C79.1123 9.92286 78.9447 10.2011 78.7233 10.4226C78.5019 10.644 78.3014 10.7966 78.1218 10.8804C77.9483 10.9642 77.7687 11.021 77.5832 11.051C77.2331 11.1078 76.8651 11.0869 76.4791 10.9881L76.4611 11.0061C76.7813 11.5836 76.886 12.1402 76.7753 12.6758C76.6915 13.0827 76.5 13.4358 76.2008 13.7351C75.9015 14.0343 75.5829 14.2333 75.2447 14.332C74.9096 14.4338 74.564 14.4532 74.2079 14.3904C73.4838 14.2587 72.7641 13.8353 72.0489 13.1201L70.2984 11.3696L76.5464 5.12169ZM75.5679 9.59221C76.0497 10.074 76.5643 10.2086 77.1119 9.99617C77.3034 9.91837 77.4815 9.79718 77.6461 9.63261C77.8136 9.46504 77.9363 9.30046 78.0141 9.13887C78.0949 8.9743 78.1323 8.80224 78.1263 8.6227C78.1144 8.23968 77.9094 7.84919 77.5114 7.45121L76.7618 6.70163L74.7196 8.74389L75.5679 9.59221ZM75.2492 12.8194C75.9764 12.0923 75.903 11.2918 75.0293 10.4181L74.0373 9.42614L71.8784 11.5851L72.7312 12.4379C73.3895 13.0962 74.0328 13.3416 74.6612 13.174C74.8737 13.1172 75.0697 12.999 75.2492 12.8194ZM77.6909 18.9058C75.9973 17.2121 75.9778 15.5379 77.6326 13.8832C78.3448 13.171 79.1497 12.8359 80.0474 12.8778C80.8583 12.9107 81.5346 13.1979 82.0762 13.7396C82.6657 14.329 82.929 14.9874 82.8662 15.7145C82.8063 16.3907 82.4682 17.0371 81.8518 17.6535L81.5017 18.0036L78.4405 14.9425C77.5937 15.7893 77.4216 16.6526 77.9243 17.5323C78.044 17.7418 78.2744 18.0171 78.6156 18.3582C78.9597 18.7023 79.3427 18.9926 79.7646 19.229L79.0061 19.9875C78.5991 19.7362 78.1607 19.3756 77.6909 18.9058ZM81.2638 16.4461C81.551 16.1588 81.7141 15.8372 81.753 15.4811C81.7949 15.0681 81.6528 14.6986 81.3266 14.3724C80.9825 14.0283 80.5935 13.8578 80.1596 13.8607C79.7586 13.8667 79.413 14.0148 79.1228 14.3051L81.2638 16.4461ZM82.5789 22.2317C82.6417 22.3664 82.7734 22.534 82.9739 22.7345C83.1744 22.9349 83.3659 23.0786 83.5484 23.1653L82.8302 23.8835C82.7524 23.8356 82.6522 23.7533 82.5295 23.6366L82.2378 23.3628C82.1749 23.3 82.1271 23.2521 82.0941 23.2192C81.5166 22.6417 81.2787 22.0268 81.3805 21.3744C81.4643 20.8478 81.7575 20.3331 82.2602 19.8304L84.4551 17.6355L83.7908 16.9713L84.2127 16.5493L85.1418 16.9488L86.5063 16.0152L87.1886 16.6975L86.0395 17.8465L87.4758 19.2828L86.7891 19.9696L85.3528 18.5332L83.1624 20.7236C82.5759 21.3101 82.3814 21.8128 82.5789 22.2317ZM85.07 24.4894C85.1418 24.2201 85.263 23.9404 85.4336 23.6501C85.6071 23.3628 85.8794 23.0337 86.2505 22.6626C86.6215 22.2916 87.0419 22.0298 87.5117 21.8772C87.9875 21.7245 88.4543 21.6767 88.9121 21.7335C89.7978 21.8472 90.6118 22.2751 91.3539 23.0172C91.7399 23.4032 92.0226 23.704 92.2022 23.9194C92.2022 23.9194 92.3323 24.0795 92.5927 24.3997L87.9606 29.0318L87.1526 28.2239L87.6509 27.6538C87.2319 27.7137 86.7801 27.6179 86.2953 27.3666C86.1098 27.2708 85.9423 27.1481 85.7926 26.9985C85.646 26.8519 85.5158 26.6918 85.4021 26.5182C85.2884 26.3447 85.1942 26.1517 85.1194 25.9392C85.0476 25.7298 85.0042 25.5038 84.9892 25.2615C84.9772 25.0161 85.0042 24.7588 85.07 24.4894ZM91.0352 24.1618C90.8676 23.9463 90.6881 23.7429 90.4966 23.5514C90.308 23.3628 90.0716 23.1953 89.7874 23.0486C89.5061 22.899 89.2173 22.8197 88.9211 22.8108C88.3047 22.7928 87.6898 23.0905 87.0763 23.704C86.4958 24.2845 86.2026 24.85 86.1966 25.4006C86.1966 25.8135 86.3417 26.1651 86.632 26.4554C87.006 26.8294 87.4504 27.0015 87.9651 26.9716C88.0937 26.9626 88.1985 26.9446 88.2792 26.9177L91.0352 24.1618Z" fill="white"/>
</svg>
