<svg width="228" height="50" viewBox="0 0 228 50" fill="none" xmlns="http://www.w3.org/2000/svg">
<path d="M34.0527 21.4912H36.3633C37.9219 21.4912 39.1569 21.8763 40.0684 22.6465C41.0527 23.4714 41.5449 24.6745 41.5449 26.2559C41.5449 27.8372 41.0664 29.0381 40.1094 29.8584C39.2161 30.6195 37.9902 31 36.4316 31H34.0527V21.4912ZM40.1436 26.2627C40.1436 23.8154 38.8538 22.5918 36.2744 22.5918H35.4199V29.9062H36.3496C38.3184 29.9062 39.5169 29.1953 39.9453 27.7734C40.0775 27.3223 40.1436 26.8187 40.1436 26.2627ZM42.9395 27.459C42.9395 26.3516 43.2926 25.4538 43.999 24.7656C44.6598 24.123 45.4779 23.8018 46.4531 23.8018C47.4102 23.8018 48.21 24.123 48.8525 24.7656C49.5361 25.4492 49.8779 26.347 49.8779 27.459C49.8779 28.5664 49.5339 29.4596 48.8457 30.1387C48.194 30.7858 47.3942 31.1094 46.4463 31.1094C45.4847 31.1094 44.6689 30.7858 43.999 30.1387C43.2926 29.4596 42.9395 28.5664 42.9395 27.459ZM44.3613 27.459C44.3613 28.6257 44.735 29.4186 45.4824 29.8379C45.7467 29.9837 46.0635 30.0566 46.4326 30.0566C46.8018 30.0566 47.1139 29.9837 47.3691 29.8379C47.6243 29.6875 47.834 29.4915 47.998 29.25C48.3034 28.7852 48.4561 28.1882 48.4561 27.459C48.4561 26.3014 48.0892 25.5085 47.3555 25.0801C47.1003 24.9297 46.7949 24.8545 46.4395 24.8545C46.084 24.8545 45.7741 24.9297 45.5098 25.0801C45.25 25.2259 45.0358 25.4196 44.8672 25.6611C44.5299 26.1351 44.3613 26.7344 44.3613 27.459ZM56.625 30.9795C56.3516 31.0661 55.8776 31.1094 55.2031 31.1094C54.5286 31.1094 53.9544 31.0273 53.4805 30.8633C53.0111 30.6992 52.61 30.4577 52.2773 30.1387C51.5892 29.4779 51.2451 28.5618 51.2451 27.3906C51.2451 26.2559 51.6576 25.3626 52.4824 24.7109C53.2207 24.1276 54.1276 23.8359 55.2031 23.8359C55.8685 23.8359 56.3242 23.8587 56.5703 23.9043V25.1211C56.1875 24.998 55.75 24.9365 55.2578 24.9365C54.7702 24.9365 54.3646 25.0049 54.041 25.1416C53.7174 25.2738 53.4531 25.4538 53.248 25.6816C52.8607 26.1146 52.667 26.6842 52.667 27.3906C52.667 28.5846 53.0977 29.3799 53.959 29.7764C54.2643 29.9176 54.5628 29.9883 54.8545 29.9883C55.1462 29.9883 55.3695 29.9814 55.5244 29.9678C55.6839 29.9541 55.8343 29.9359 55.9756 29.9131C56.2764 29.863 56.4928 29.8105 56.625 29.7559V30.9795ZM63.1465 29.2705V23.9453H64.5137V31H63.2832L63.1602 30.2549C62.4857 30.8245 61.7406 31.1094 60.9248 31.1094C60.0589 31.1094 59.446 30.8701 59.0859 30.3916C58.7122 29.904 58.5254 29.0632 58.5254 27.8691V23.9453H59.8926V27.8008C59.8926 28.6439 60.0133 29.2181 60.2549 29.5234C60.4691 29.7969 60.877 29.9336 61.4785 29.9336C62.0846 29.9336 62.6406 29.7126 63.1465 29.2705ZM68.1162 25.7021L68.123 31H66.7559V23.9453H68.0137L68.1094 24.7178C68.6107 24.2985 69.194 24.0251 69.8594 23.8975C70.0736 23.8564 70.2832 23.8359 70.4883 23.8359C71.3405 23.8359 71.9831 24.196 72.416 24.916C73.209 24.196 74.0384 23.8359 74.9043 23.8359C75.7611 23.8359 76.3854 24.0934 76.7773 24.6084C77.1693 25.1325 77.3652 25.9984 77.3652 27.2061V31H75.998V27.2539C75.998 26.069 75.7132 25.3604 75.1436 25.1279C74.9521 25.0505 74.7288 25.0117 74.4736 25.0117C73.863 25.0117 73.3024 25.2305 72.792 25.668V31H71.4248V27.1992C71.4248 26.388 71.304 25.8184 71.0625 25.4902C70.8301 25.1712 70.4131 25.0117 69.8115 25.0117C69.2145 25.0117 68.6494 25.2419 68.1162 25.7021ZM82.8545 31.1094C80.2751 31.1094 78.9854 29.8493 78.9854 27.3291C78.9854 26.2445 79.3431 25.3763 80.0586 24.7246C80.7012 24.1322 81.4349 23.8359 82.2598 23.8359C83.1576 23.8359 83.8594 24.1367 84.3652 24.7383C84.8346 25.2988 85.0693 26.0485 85.0693 26.9873V27.5205H80.4072C80.4072 28.8102 80.9336 29.5986 81.9863 29.8857C82.237 29.9541 82.6221 29.9883 83.1416 29.9883C83.6657 29.9883 84.1784 29.9176 84.6797 29.7764V30.9316C84.1784 31.0501 83.57 31.1094 82.8545 31.1094ZM83.7021 26.5156C83.7021 26.0781 83.5814 25.709 83.3398 25.4082C83.0573 25.0618 82.6676 24.8887 82.1709 24.8887C81.6468 24.8887 81.2207 25.055 80.8926 25.3877C80.5918 25.6976 80.4414 26.0736 80.4414 26.5156H83.7021ZM89.752 25.0117C89.0729 25.0117 88.4691 25.2419 87.9404 25.7021V31H86.5732V23.9453H87.8379L87.9336 24.7109C88.6764 24.1276 89.4443 23.8359 90.2373 23.8359C91.0758 23.8359 91.6911 24.0866 92.083 24.5879C92.4932 25.1165 92.6982 25.9688 92.6982 27.1445V31H91.3311V27.1445C91.3311 26.0143 91.0257 25.3398 90.415 25.1211C90.2191 25.0482 89.998 25.0117 89.752 25.0117ZM97.2852 29.9199C97.4355 29.9746 97.6634 30.002 97.9688 30.002C98.2741 30.002 98.5293 29.9655 98.7344 29.8926V30.9863C98.6387 31.0091 98.4997 31.0228 98.3174 31.0273L97.8867 31.041C97.791 31.041 97.7181 31.041 97.668 31.041C96.7884 31.041 96.139 30.7539 95.7197 30.1797C95.3825 29.7148 95.2139 29.0996 95.2139 28.334V24.9912H94.2021V24.3486L95.2139 23.9453L95.542 22.1953H96.5811V23.9453H98.7686V24.9912H96.5811V28.3271C96.5811 29.2204 96.8158 29.7513 97.2852 29.9199ZM107.471 32.1621C106.145 31.0775 105.342 29.6875 105.064 27.9922C104.978 27.4635 104.935 26.9167 104.935 26.3516C104.935 24.5241 105.381 23.002 106.274 21.7852C106.598 21.3477 106.997 20.9329 107.471 20.541H108.893C107.612 21.5391 106.78 22.8835 106.397 24.5742C106.27 25.1393 106.206 25.734 106.206 26.3584C106.206 26.9782 106.27 27.5706 106.397 28.1357C106.525 28.6963 106.705 29.2227 106.938 29.7148C107.398 30.6901 108.049 31.5059 108.893 32.1621H107.471ZM113.062 21.4844H113.999L118.012 31H116.59L115.626 28.6074H111.401L110.444 31H109.05L113.062 21.4844ZM115.188 27.5137L113.521 23.3438L111.846 27.5137H115.188ZM119.27 21.4844H120.637V31H119.27V21.4844ZM132.36 30.2139C131.968 30.5192 131.524 30.7448 131.027 30.8906C130.535 31.0319 130.002 31.1025 129.428 31.1025C128.858 31.1025 128.22 31.0684 127.514 31V20.8281H128.881V24.6494C129.182 24.3076 129.599 24.0638 130.132 23.918C130.332 23.8633 130.537 23.8359 130.747 23.8359C130.961 23.8359 131.178 23.8587 131.396 23.9043C131.615 23.9453 131.832 24.0182 132.046 24.123C132.265 24.2279 132.472 24.3669 132.668 24.54C132.864 24.7132 133.037 24.9297 133.188 25.1895C133.52 25.7454 133.687 26.4062 133.687 27.1719C133.687 27.9329 133.563 28.5527 133.317 29.0312C133.076 29.5098 132.757 29.904 132.36 30.2139ZM128.888 29.9951C129.015 30.0316 129.266 30.0498 129.64 30.0498C130.013 30.0498 130.364 29.9974 130.692 29.8926C131.021 29.7878 131.301 29.6237 131.533 29.4004C132.021 28.931 132.265 28.2314 132.265 27.3018C132.265 26.167 131.934 25.4242 131.273 25.0732C131.036 24.9502 130.795 24.8887 130.549 24.8887C130.303 24.8887 130.089 24.9206 129.906 24.9844C129.724 25.0482 129.564 25.1257 129.428 25.2168C129.168 25.3945 128.988 25.5859 128.888 25.791V29.9951ZM135.888 29.7422C135.737 29.4824 135.617 29.1771 135.525 28.8262C135.439 28.4753 135.396 28.0173 135.396 27.4521C135.396 26.887 135.516 26.3675 135.758 25.8936C136.004 25.415 136.323 25.0231 136.715 24.7178C137.476 24.1299 138.422 23.8359 139.552 23.8359C140.14 23.8359 140.584 23.8496 140.885 23.877C140.885 23.877 141.106 23.8997 141.548 23.9453V31H140.317L140.263 30.1865C139.989 30.5511 139.572 30.8223 139.012 31C138.798 31.0684 138.576 31.1025 138.349 31.1025C138.125 31.1025 137.904 31.0798 137.686 31.0342C137.467 30.9886 137.248 30.9134 137.029 30.8086C136.815 30.7038 136.61 30.5648 136.414 30.3916C136.218 30.2139 136.043 29.9974 135.888 29.7422ZM140.181 24.9502C139.889 24.9137 139.597 24.8955 139.306 24.8955C139.019 24.8955 138.711 24.9479 138.383 25.0527C138.055 25.153 137.774 25.3125 137.542 25.5312C137.059 25.987 136.817 26.682 136.817 27.6162C136.817 28.5003 137.025 29.1543 137.439 29.5781C137.754 29.8926 138.132 30.0498 138.574 30.0498C139.144 30.0498 139.613 29.8424 139.982 29.4277C140.074 29.3229 140.14 29.2295 140.181 29.1475V24.9502ZM145.465 31.1094C144.895 31.1094 144.319 31.0684 143.735 30.9863V29.7764C144.328 29.9176 144.929 29.9883 145.54 29.9883C146.761 29.9883 147.372 29.7308 147.372 29.2158C147.372 29.0199 147.324 28.874 147.229 28.7783C147.087 28.6279 146.864 28.4775 146.559 28.3271L145.561 27.8691C144.913 27.5456 144.494 27.2858 144.303 27.0898C143.943 26.7253 143.763 26.2923 143.763 25.791C143.763 25.2259 144.025 24.7656 144.549 24.4102C145.114 24.0273 145.907 23.8359 146.928 23.8359C147.443 23.8359 147.962 23.8724 148.486 23.9453V25.1143C147.912 25.0094 147.411 24.957 146.982 24.957C146.559 24.957 146.228 24.9844 145.991 25.0391C145.759 25.0938 145.583 25.1621 145.465 25.2441C145.278 25.3717 145.185 25.5381 145.185 25.7432C145.185 25.9437 145.248 26.1077 145.376 26.2354C145.508 26.3584 145.713 26.4928 145.991 26.6387L146.996 27.124C147.652 27.4658 148.074 27.7279 148.261 27.9102C148.616 28.2565 148.794 28.6917 148.794 29.2158C148.794 29.7764 148.511 30.2275 147.946 30.5693C147.354 30.9294 146.527 31.1094 145.465 31.1094ZM154.03 31.1094C151.451 31.1094 150.161 29.8493 150.161 27.3291C150.161 26.2445 150.519 25.3763 151.234 24.7246C151.877 24.1322 152.611 23.8359 153.436 23.8359C154.333 23.8359 155.035 24.1367 155.541 24.7383C156.01 25.2988 156.245 26.0485 156.245 26.9873V27.5205H151.583C151.583 28.8102 152.109 29.5986 153.162 29.8857C153.413 29.9541 153.798 29.9883 154.317 29.9883C154.841 29.9883 155.354 29.9176 155.855 29.7764V30.9316C155.354 31.0501 154.746 31.1094 154.03 31.1094ZM154.878 26.5156C154.878 26.0781 154.757 25.709 154.516 25.4082C154.233 25.0618 153.843 24.8887 153.347 24.8887C152.823 24.8887 152.396 25.055 152.068 25.3877C151.768 25.6976 151.617 26.0736 151.617 26.5156H154.878ZM158.815 24.7178C159.212 24.4124 159.656 24.1891 160.148 24.0479C160.645 23.9066 161.078 23.8359 161.447 23.8359C161.816 23.8359 162.101 23.8451 162.302 23.8633V20.8281H163.662V31H162.438L162.384 30.1865C162.106 30.5557 161.684 30.8291 161.119 31.0068C160.9 31.0752 160.677 31.1094 160.449 31.1094C160.226 31.1094 160.005 31.0866 159.786 31.041C159.567 30.9954 159.349 30.9202 159.13 30.8154C158.916 30.7061 158.711 30.5648 158.515 30.3916C158.319 30.2139 158.143 29.9974 157.988 29.7422C157.66 29.1816 157.496 28.5186 157.496 27.7529C157.496 26.9873 157.617 26.3675 157.858 25.8936C158.104 25.415 158.424 25.0231 158.815 24.7178ZM159.643 25.5312C159.41 25.75 159.23 26.0326 159.103 26.3789C158.979 26.7207 158.918 27.1377 158.918 27.6299C158.918 28.1175 158.977 28.5208 159.096 28.8398C159.214 29.1543 159.362 29.4004 159.54 29.5781C159.854 29.8971 160.233 30.0566 160.675 30.0566C161.244 30.0566 161.716 29.847 162.09 29.4277C162.186 29.3229 162.254 29.2295 162.295 29.1475V24.9434L162.158 24.9297C161.949 24.9023 161.698 24.8887 161.406 24.8887C161.119 24.8887 160.812 24.9411 160.483 25.0459C160.155 25.1462 159.875 25.3079 159.643 25.5312ZM178.592 33.6182C178.528 33.6318 178.337 33.6387 178.018 33.6387C177.699 33.6387 177.336 33.5749 176.931 33.4473C176.525 33.3242 176.158 33.151 175.83 32.9277C175.229 32.513 174.72 31.916 174.306 31.1367L174.34 31.0889C173.118 30.9977 172.139 30.5215 171.4 29.6602C170.639 28.7715 170.259 27.6367 170.259 26.2559C170.259 24.7839 170.68 23.599 171.523 22.7012C172.357 21.8171 173.44 21.375 174.771 21.375C176.106 21.375 177.186 21.8171 178.011 22.7012C178.849 23.599 179.269 24.7839 179.269 26.2559C179.269 27.5501 178.934 28.6302 178.264 29.4961C177.617 30.3346 176.742 30.8473 175.639 31.0342L175.659 31.0547C176.284 31.8932 177.161 32.3125 178.291 32.3125C178.291 32.3125 178.346 32.3125 178.455 32.3125C178.501 32.3125 178.546 32.3079 178.592 32.2988V33.6182ZM171.626 26.249C171.626 27.2881 171.879 28.1471 172.385 28.8262C172.954 29.5827 173.75 29.9609 174.771 29.9609C175.791 29.9609 176.584 29.5827 177.149 28.8262C177.651 28.1562 177.901 27.3018 177.901 26.2627C177.901 25.2145 177.651 24.3509 177.149 23.6719C176.584 22.9062 175.791 22.5234 174.771 22.5234C173.745 22.5234 172.95 22.9062 172.385 23.6719C171.879 24.3509 171.626 25.21 171.626 26.249ZM182.707 24.0137C182.707 24.9023 183.359 25.3467 184.662 25.3467H188.846V26.5088H187.998V31H186.815L186.768 30.1318C186.28 30.5739 185.637 30.8747 184.84 31.0342C184.585 31.0843 184.284 31.1094 183.938 31.1094C183.596 31.1094 183.236 31.0547 182.857 30.9453C182.484 30.8314 182.16 30.6582 181.887 30.4258C181.317 29.9427 181.032 29.2454 181.032 28.334C181.032 27.6641 181.335 27.0671 181.941 26.543C182.178 26.3379 182.479 26.1602 182.844 26.0098V25.9893C182.365 25.7979 181.992 25.529 181.723 25.1826C181.458 24.8363 181.326 24.4808 181.326 24.1162C181.326 23.7516 181.383 23.4189 181.497 23.1182C181.616 22.8174 181.818 22.5462 182.105 22.3047C182.762 21.7578 183.764 21.4844 185.113 21.4844C185.888 21.4844 186.517 21.5094 187 21.5596V22.79C186.444 22.6852 185.888 22.6328 185.332 22.6328C184.781 22.6328 184.352 22.667 184.047 22.7354C183.746 22.7992 183.495 22.8926 183.295 23.0156C182.903 23.2526 182.707 23.5853 182.707 24.0137ZM184.334 30.0156C185.314 30.0156 186.098 29.7262 186.686 29.1475V26.502L184.655 26.5088C183.94 26.5088 183.377 26.7025 182.967 27.0898C182.598 27.4362 182.413 27.8577 182.413 28.3545C182.413 29.1794 182.787 29.6989 183.534 29.9131C183.771 29.9814 184.038 30.0156 184.334 30.0156ZM193.535 21.4844H194.472L198.484 31H197.062L196.099 28.6074H191.874L190.917 31H189.522L193.535 21.4844ZM195.661 27.5137L193.993 23.3438L192.318 27.5137H195.661ZM199.776 32.1621H198.354C199.198 31.5059 199.849 30.6901 200.31 29.7148C200.542 29.2227 200.722 28.6963 200.85 28.1357C200.977 27.5706 201.041 26.9782 201.041 26.3584C201.041 25.734 200.977 25.1393 200.85 24.5742C200.467 22.8835 199.635 21.5391 198.354 20.541H199.776C200.25 20.9329 200.649 21.3477 200.973 21.7852C201.866 23.002 202.312 24.5241 202.312 26.3516C202.312 26.9167 202.269 27.4635 202.183 27.9922C201.905 29.6875 201.103 31.0775 199.776 32.1621Z" fill="black"/>
<path d="M15.944 28.5192C15.6208 28.5192 15.33 28.3966 15.0715 28.1207C14.6513 27.661 14.619 27.0787 15.0391 26.619C15.3623 26.2205 16.0086 25.8834 16.9135 25.5769C17.2366 25.485 17.5921 25.3624 17.9476 25.3011C18.1738 24.9026 18.4 24.4736 18.5939 24.0138C18.7878 23.5848 18.9494 23.1863 19.0786 22.7879C18.5616 21.9604 18.0768 20.9796 18.1092 20.2134C18.1092 19.5392 18.5293 19.1101 19.2079 19.0181C19.8219 18.9568 20.2743 19.2327 20.4682 19.7844C20.7267 20.5199 20.4682 21.6539 20.1774 22.6347C20.4359 23.0331 20.7267 23.4315 21.0822 23.8299C21.3731 24.1671 21.6316 24.4736 21.9224 24.78C23.0535 24.78 24.1199 24.872 24.7662 25.2091C25.3479 25.5156 25.5741 25.9753 25.4126 26.527C25.2187 27.14 24.7016 27.4465 24.0553 27.3545C23.2151 27.2626 22.2456 26.4964 21.5023 25.7608C20.9853 25.7914 20.4036 25.8221 19.8219 25.914C19.4018 25.9753 18.9817 26.0366 18.5939 26.1286C18.4646 26.3738 18.303 26.5883 18.1738 26.7722C17.6244 27.5384 17.1074 28.0594 16.6226 28.3353C16.3964 28.4579 16.1702 28.5192 15.944 28.5192ZM17.2043 26.4964C16.5257 26.7109 16.0086 26.9867 15.7824 27.2319C15.6855 27.3239 15.6855 27.3852 15.8147 27.5384C15.8793 27.5997 15.9117 27.661 16.1702 27.5384C16.461 27.3545 16.8488 26.9867 17.2043 26.4964ZM22.9565 25.7914C23.4413 26.1899 23.8614 26.4351 24.1846 26.4657C24.3138 26.4964 24.3785 26.4964 24.4754 26.2818C24.5077 26.2205 24.5077 26.1899 24.3138 26.0673C24.023 25.9447 23.5382 25.8221 22.9565 25.7914ZM19.7896 23.7993C19.6926 24.0445 19.5957 24.259 19.5311 24.4123C19.4341 24.6575 19.3048 24.872 19.2079 25.0865C19.3695 25.0559 19.5311 25.0252 19.6926 25.0252C20.0158 24.9946 20.339 24.9333 20.6621 24.9333C20.5005 24.7494 20.3713 24.5962 20.3066 24.5042C20.1774 24.3203 19.9835 24.0751 19.7896 23.7993ZM19.3372 19.9682C19.2079 19.9989 19.1109 19.9989 19.1109 20.2441C19.1109 20.5506 19.2402 20.9796 19.4987 21.5007C19.628 20.8877 19.6603 20.3973 19.5634 20.1215C19.4987 19.9682 19.4664 19.9682 19.3372 19.9682Z" fill="black"/>
<path d="M15.5884 30.6339C15.5884 30.3581 15.7823 30.2355 16.0085 30.2355H17.0749C17.7535 30.2355 18.3999 30.6339 18.3999 31.4614C18.3999 32.1663 17.9474 32.6873 17.1072 32.6873H16.4609V33.4536C16.4609 33.7294 16.267 33.8826 16.0408 33.8826C15.7823 33.8826 15.6207 33.7294 15.6207 33.4536V30.6339H15.5884ZM16.4609 31.9518H16.9133C17.2688 31.9518 17.495 31.7066 17.495 31.4614C17.495 31.1243 17.2688 30.971 16.9133 30.971H16.4609V31.9518Z" fill="black"/>
<path d="M18.8521 30.6339C18.8521 30.3581 19.0459 30.2355 19.2722 30.2355H20.3063C21.4373 30.2355 22.0836 31.0936 22.0836 32.0131C22.0836 33.2084 21.2434 33.852 20.3063 33.852H19.2722C19.0459 33.852 18.8521 33.6987 18.8521 33.4536V30.6339ZM19.7246 33.0858H20.177C20.8556 33.0858 21.1788 32.6567 21.1788 32.0131C21.1788 31.4001 20.8556 31.0017 20.2093 31.0017H19.7246V33.0858Z" fill="black"/>
<path d="M22.6011 30.6339C22.6011 30.3581 22.795 30.2355 23.0212 30.2355H24.3461C24.6047 30.2355 24.7662 30.3887 24.7662 30.6033C24.7662 30.8484 24.6047 30.971 24.3461 30.971H23.4413V31.6147H24.2169C24.4754 31.6147 24.637 31.7679 24.637 31.9824C24.637 32.2276 24.4754 32.3502 24.2169 32.3502H23.4413V33.3923C23.4413 33.6681 23.2474 33.8213 23.0212 33.8213C22.7627 33.8213 22.6011 33.6681 22.6011 33.3923V30.6339Z" fill="black"/>
<path d="M28.4829 19.3859C28.2244 19.3859 27.9982 19.6005 27.9982 19.8457V35.3538C27.9982 35.8748 27.5458 36.3039 26.9964 36.3039H12.9713C12.4219 36.3039 11.9695 35.8748 11.9695 35.3538V14.8806C11.9695 14.3596 12.4219 13.9305 12.9713 13.9305H23.1831V16.7808C23.1831 17.7003 23.991 18.4665 24.9605 18.4665H28.4506C28.6445 18.4665 28.8384 18.3439 28.9031 18.1906C28.9677 18.0374 28.9354 17.8229 28.8061 17.6696L24.0233 13.1336C23.8941 13.0111 23.7325 12.9804 23.6032 13.0111H13.0036C11.9048 13.0111 11 13.8692 11 14.9113V35.3844C11 36.4265 11.9048 37.2846 13.0036 37.2846H26.9964C28.0952 37.2846 29 36.4265 29 35.3844V19.8457C28.9677 19.6005 28.7738 19.3859 28.4829 19.3859ZM24.9605 17.5164C24.5081 17.5164 24.1526 17.1792 24.1526 16.7502V14.5435L27.2873 17.5164H24.9605Z" fill="black"/>
<rect x="0.2" y="0.2" width="227.6" height="49.6" rx="3.8" stroke="black" stroke-width="0.4"/>
<path d="M203.012 0.0119747L227.972 24.9722L227.983 45.5167L181 0.00012207L203.012 0.0119747Z" fill="#FF2E00"/>
<path d="M204.546 5.12169L206.122 6.69715C207.154 7.72949 207.522 8.69302 207.226 9.58772C207.112 9.92286 206.944 10.2011 206.723 10.4226C206.502 10.644 206.301 10.7966 206.122 10.8804C205.948 10.9642 205.769 11.021 205.583 11.051C205.233 11.1078 204.865 11.0869 204.479 10.9881L204.461 11.0061C204.781 11.5836 204.886 12.1402 204.775 12.6758C204.691 13.0827 204.5 13.4358 204.201 13.7351C203.901 14.0343 203.583 14.2333 203.244 14.332C202.909 14.4338 202.564 14.4532 202.208 14.3904C201.484 14.2587 200.764 13.8353 200.049 13.1201L198.298 11.3696L204.546 5.12169ZM203.568 9.59221C204.049 10.074 204.564 10.2086 205.112 9.99617C205.303 9.91837 205.481 9.79718 205.646 9.63261C205.813 9.46504 205.936 9.30046 206.014 9.13887C206.095 8.9743 206.132 8.80224 206.126 8.6227C206.114 8.23968 205.909 7.84919 205.511 7.45121L204.762 6.70163L202.719 8.74389L203.568 9.59221ZM203.249 12.8194C203.976 12.0923 203.903 11.2918 203.029 10.4181L202.037 9.42614L199.878 11.5851L200.731 12.4379C201.389 13.0962 202.033 13.3416 202.661 13.174C202.873 13.1172 203.069 12.999 203.249 12.8194ZM205.691 18.9058C203.997 17.2121 203.978 15.5379 205.632 13.8832C206.345 13.171 207.149 12.8359 208.047 12.8778C208.858 12.9107 209.534 13.1979 210.076 13.7396C210.665 14.329 210.929 14.9874 210.866 15.7145C210.806 16.3907 210.468 17.0371 209.852 17.6535L209.501 18.0036L206.44 14.9425C205.593 15.7893 205.421 16.6526 205.924 17.5323C206.044 17.7418 206.274 18.0171 206.615 18.3582C206.959 18.7023 207.342 18.9926 207.764 19.229L207.006 19.9875C206.599 19.7362 206.16 19.3756 205.691 18.9058ZM209.264 16.4461C209.551 16.1588 209.714 15.8372 209.753 15.4811C209.795 15.0681 209.653 14.6986 209.326 14.3724C208.982 14.0283 208.593 13.8578 208.159 13.8607C207.758 13.8667 207.413 14.0148 207.123 14.3051L209.264 16.4461ZM210.579 22.2317C210.641 22.3664 210.773 22.534 210.974 22.7345C211.174 22.9349 211.366 23.0786 211.548 23.1653L210.83 23.8835C210.752 23.8356 210.652 23.7533 210.529 23.6366L210.238 23.3628C210.175 23.3 210.127 23.2521 210.094 23.2192C209.516 22.6417 209.278 22.0268 209.38 21.3744C209.464 20.8478 209.757 20.3331 210.26 19.8304L212.455 17.6355L211.791 16.9713L212.212 16.5493L213.142 16.9488L214.506 16.0152L215.188 16.6975L214.039 17.8465L215.476 19.2828L214.789 19.9696L213.353 18.5332L211.162 20.7236C210.576 21.3101 210.381 21.8128 210.579 22.2317ZM213.07 24.4894C213.142 24.2201 213.263 23.9404 213.433 23.6501C213.607 23.3628 213.879 23.0337 214.25 22.6626C214.621 22.2916 215.042 22.0298 215.511 21.8772C215.987 21.7245 216.454 21.6767 216.912 21.7335C217.798 21.8472 218.612 22.2751 219.354 23.0172C219.74 23.4032 220.022 23.704 220.202 23.9194C220.202 23.9194 220.332 24.0795 220.592 24.3997L215.96 29.0318L215.152 28.2239L215.651 27.6538C215.232 27.7137 214.78 27.6179 214.295 27.3666C214.11 27.2708 213.942 27.1481 213.792 26.9985C213.646 26.8519 213.516 26.6918 213.402 26.5182C213.288 26.3447 213.194 26.1517 213.119 25.9392C213.047 25.7298 213.004 25.5038 212.989 25.2615C212.977 25.0161 213.004 24.7588 213.07 24.4894ZM219.035 24.1618C218.867 23.9463 218.688 23.7429 218.496 23.5514C218.308 23.3628 218.071 23.1953 217.787 23.0486C217.506 22.899 217.217 22.8197 216.921 22.8108C216.304 22.7928 215.69 23.0905 215.076 23.704C214.496 24.2845 214.202 24.85 214.196 25.4006C214.196 25.8135 214.341 26.1651 214.632 26.4554C215.006 26.8294 215.45 27.0015 215.965 26.9716C216.093 26.9626 216.198 26.9446 216.279 26.9177L219.035 24.1618Z" fill="white"/>
</svg>
