<svg width="90" height="90" viewBox="0 0 90 90" fill="none" xmlns="http://www.w3.org/2000/svg">
<path d="M17.8429 67.3066C11.7609 67.3066 6.8214 62.3672 6.8214 56.2852C6.8214 50.2031 11.7609 45.2637 17.8429 45.2637C23.9249 45.2637 28.8644 50.2031 28.8644 56.2852C28.8644 62.3672 23.9249 67.3066 17.8429 67.3066ZM17.8429 49.3066C13.9933 49.3066 10.8644 52.4355 10.8644 56.2852C10.8644 60.1348 13.9933 63.2637 17.8429 63.2637C21.6925 63.2637 24.8214 60.1348 24.8214 56.2852C24.8214 52.4355 21.6925 49.3066 17.8429 49.3066Z" fill="black"/>
<path d="M33.839 90H2.00501C1.46008 90 0.93274 89.7715 0.5636 89.3848C0.17688 88.998 -0.0164799 88.4707 0.00110013 87.9258L0.14172 83.3555C0.14172 73.5645 8.1573 65.5488 18.0011 65.5488C27.8448 65.5488 35.8605 73.5645 35.8605 83.4082V87.9785C35.8429 89.1035 34.9464 90 33.839 90ZM4.07922 85.9746H31.8175V83.4258C31.8175 75.7969 25.6124 69.5918 17.9835 69.5918C10.3546 69.5918 4.14954 75.7969 4.14954 83.4258L4.07922 85.9746Z" fill="black"/>
<path d="M72.1241 22.0254C66.0421 22.0254 61.1027 17.0859 61.1027 11.0039C61.1027 4.92188 66.0421 0 72.1241 0C78.2062 0 83.128 4.93945 83.128 11.0215C83.1984 13.8516 82.1261 16.5762 80.087 18.668C78.0128 20.7949 75.1124 22.0254 72.1241 22.0254ZM72.1241 4.02539C68.2745 4.02539 65.1456 7.1543 65.1456 11.0039C65.1456 14.8535 68.2745 17.9824 72.1241 17.9824C74.0226 17.9824 75.8859 17.209 77.2042 15.8379C78.4698 14.5371 79.1554 12.832 79.1027 11.0566C79.1027 7.1719 75.9738 4.02539 72.1241 4.02539Z" fill="black"/>
<path d="M87.962 44.7363H56.2687C55.1613 44.7363 54.2472 43.8398 54.2472 42.7148V38.2852C54.2472 28.4414 62.2628 20.4258 72.1066 20.4258C81.9503 20.4258 89.9835 28.4414 89.9835 38.2852V42.7148C89.9835 43.8223 89.087 44.7363 87.962 44.7363ZM58.2902 40.6934H85.9581V38.2676C85.9581 30.6387 79.753 24.4336 72.1241 24.4336C64.4952 24.4336 58.2902 30.6387 58.2902 38.2676V40.6934Z" fill="black"/>
<path d="M17.8429 42.4512C16.7355 42.4512 15.8214 41.5547 15.8214 40.4297C15.8214 38.8828 16.173 24.9785 28.0558 16.2422C39.3761 7.8223 52.0675 10.6875 54.4933 11.3555C55.5656 11.6543 56.1984 12.7617 55.8995 13.834C55.6007 14.9063 54.4933 15.5391 53.421 15.2402C51.3116 14.6602 40.2726 12.1641 30.4288 19.4766C20.1281 27.0527 19.8292 39.0762 19.8292 40.4297C19.8644 41.5547 18.9679 42.4512 17.8429 42.4512Z" fill="black"/>
<path d="M48.2355 79.6816C45.5285 79.6816 43.2609 79.3828 41.7492 79.1016C40.6593 78.9082 39.8859 77.8359 40.0793 76.7461C40.2726 75.6562 41.2746 74.918 42.3644 75.1113C46.6886 75.9023 57.4992 76.8691 66.4816 69.1172C74.5851 62.209 75.8156 52.5937 75.9914 49.8164C76.0617 48.709 77.0285 47.8652 78.1359 47.9355C79.2433 48.0059 80.0871 48.9727 80.0167 50.0801C79.8058 53.2617 78.3996 64.248 69.1007 72.1582C62.0871 78.2754 54.1066 79.6816 48.2355 79.6816Z" fill="black"/>
<path d="M43.9113 22.5703C43.2785 22.5703 42.6632 22.2715 42.2765 21.7266C41.6261 20.8301 41.8371 19.5645 42.7335 18.9141L50.925 13.0254L42.7335 7.13667C41.8371 6.48627 41.6261 5.22067 42.2765 4.32419C42.9269 3.4277 44.175 3.21677 45.089 3.86716L55.5656 11.3906C56.0929 11.7773 56.4093 12.375 56.4093 13.0254C56.4093 13.6758 56.0929 14.291 55.5656 14.6602L45.089 22.1836C44.7199 22.4473 44.3156 22.5703 43.9113 22.5703Z" fill="black"/>
<path d="M50.0812 86.2383C49.6769 86.2383 49.255 86.1152 48.9034 85.8691L38.4269 78.3457C37.8995 77.959 37.5831 77.3613 37.5831 76.7109C37.5831 76.0605 37.8995 75.4453 38.4269 75.0762L48.9034 67.5527C49.7999 66.9023 51.0656 67.1133 51.7159 68.0098C52.3663 68.9062 52.1554 70.1719 51.2589 70.8223L43.0675 76.7109L51.2589 82.5996C52.1554 83.25 52.3663 84.5156 51.7159 85.4121C51.3292 85.9395 50.714 86.2383 50.0812 86.2383Z" fill="black"/>
</svg>
