<svg version="1.2" xmlns="http://www.w3.org/2000/svg" viewBox="0 0 100 97" width="80" height="78">
	<title>noun-code-1154255-svg</title>
	<style>
		tspan { white-space:pre } 
		.s0 { fill: #000000 } 
		.t1 { font-size: 5px;fill: #000000;font-family: "' Helvetica  Neue'" } 
	</style>
	<g id="Layer">
		<path id="Layer" fill-rule="evenodd" class="s0" d="m93 24v56c0 5.5-4.5 10-10 10h-66c-5.5 0-10-4.5-10-10v-56c0-7.7 6.3-14 14-14h58c7.7 0 14 6.3 14 14zm-82 0v4.3h78v-4.3c0-5.5-4.5-10-10-10h-58c-5.5 0-10 4.5-10 10zm78 56v-47.7h-78v47.7c0 3.3 2.7 6 6 6h66c3.3 0 6-2.7 6-6z"/>
		<path id="Layer" class="s0" d="m35.4 45.1l-15 12c-0.9 0.7-1 1.9-0.3 2.8q0.2 0.2 0.3 0.3l15 12 2.5-3.1-13.1-10.4 13.1-10.5z"/>
		<path id="Layer" class="s0" d="m63.9 45.1l-2.5 3.1 13.1 10.5-13.1 10.5 2.5 3.1 15-12c0.9-0.7 1-1.9 0.3-2.8q-0.1-0.2-0.3-0.3z"/>
		<path id="Layer" class="s0" d="m56.3 38.5l-10.7 41.7-3.8-1 10.6-41.7z"/>
	</g>
	<text id="Created by Adiyogi" style="transform: matrix(1,0,0,1,0,115)" >
		<tspan x="0" y="0" class="t1">Created by Adiyogi
</tspan>
	</text>
	<text id="from the Noun Project" style="transform: matrix(1,0,0,1,0,120)" >
		<tspan x="0" y="0" class="t1">from the Noun Project
</tspan>
	</text>
</svg>