<svg width="50" height="50" viewBox="0 0 50 50" fill="none" xmlns="http://www.w3.org/2000/svg">
<path d="M24.0625 20.6251C24.5803 20.6251 25.0001 20.2053 25.0001 19.6875C25.0001 19.1697 24.5803 18.75 24.0625 18.75C23.5447 18.75 23.125 19.1697 23.125 19.6875C23.125 20.2053 23.5447 20.6251 24.0625 20.6251Z" fill="#4A4A4A"/>
<path d="M19.6866 20.6251C20.2043 20.6251 20.6241 20.2053 20.6241 19.6875C20.6241 19.1697 20.2043 18.75 19.6866 18.75C19.1688 18.75 18.749 19.1697 18.749 19.6875C18.749 20.2053 19.1688 20.6251 19.6866 20.6251Z" fill="#4A4A4A"/>
<path d="M37.5001 30.0003C35.4437 30.0003 33.4981 30.8478 32.0843 32.326L27.4997 30.7997V27.4496C28.6004 26.2002 29.2461 24.6395 29.3523 22.9832C30.6492 22.5513 32.4999 21.2925 32.4999 18.7506V16.2505C32.4999 15.658 31.813 14.5073 31.2499 13.846V11.8754C31.2499 8.08399 28.1654 4.99951 24.3746 4.99951H19.3745C17.5388 4.99951 15.8125 5.71516 14.5137 7.01395C13.2143 8.31274 12.4993 10.039 12.4993 11.8747V13.8454C11.9361 14.5061 11.2492 15.8242 11.2492 16.2499V18.75C11.2492 21.2919 13.1005 22.5507 14.3968 22.9826C14.5031 24.647 15.1525 26.2127 16.2494 27.4502V30.7628L11.6767 31.9079C7.37035 33.3429 4.99902 35.9949 4.99902 39.3756V44.3758C4.99902 44.7208 5.27903 45.0008 5.62404 45.0008H19.3726C19.3726 45.0008 19.3739 45.0008 19.3745 45.0008C19.3751 45.0008 19.3757 45.0008 19.3764 45.0008H24.3721C24.3721 45.0008 24.3734 45.0008 24.374 45.0008C24.3746 45.0008 24.3753 45.0008 24.3759 45.0008H37.4994C41.6352 45.0008 44.9997 41.6363 44.9997 37.5006C44.9997 33.3648 41.6358 30.0003 37.5001 30.0003ZM22.524 40.1725L23.5465 43.7508H20.2033L21.2258 40.1725C21.2764 39.9963 21.2464 39.8069 21.1452 39.6537L20.1795 38.205L21.8752 36.5093L23.5709 38.205L22.6052 39.6537C22.5033 39.8063 22.474 39.9956 22.5246 40.1725H22.524ZM26.2497 30.9666L21.8746 34.7948L17.4994 30.9666V28.589C18.4263 29.2497 19.9083 30.0003 21.8746 30.0003C23.479 30.0003 24.9897 29.5053 26.2497 28.5934V30.9666ZM17.0257 32.2129L20.9602 35.6555L19.442 37.1737L17.9988 35.2499C17.9407 35.1724 17.8651 35.1092 17.7782 35.0661L15.8819 34.1179L17.025 32.2129H17.0257ZM24.3071 37.1737L22.789 35.6555L26.7235 32.2129L27.8666 34.1179L25.9703 35.0661C25.8834 35.1092 25.8078 35.1724 25.7497 35.2499L24.3071 37.1737ZM12.7874 15.6249C12.9899 15.2273 13.2555 14.8492 13.5812 14.4942C13.8906 14.1623 14.2387 13.866 14.6193 13.6104C15.6737 12.8941 16.9182 12.4998 18.1244 12.4998H25.6247C27.2872 12.4998 29.0273 13.2635 30.1648 14.4917C30.4923 14.848 30.7586 15.2267 30.9611 15.6249H12.7874ZM29.3748 21.6213V16.8749H31.2499V18.75C31.2499 20.4431 30.1517 21.2563 29.3748 21.6213ZM15.3975 7.89773C16.4606 6.83457 17.8726 6.24955 19.3745 6.24955H24.3746C27.476 6.24955 29.9998 8.77338 29.9998 11.8747V12.6973C28.7292 11.7872 27.151 11.2497 25.6247 11.2497H18.1244C16.6706 11.2497 15.1762 11.721 13.9199 12.5748C13.8606 12.6148 13.8074 12.6623 13.7493 12.7041V11.8747C13.7493 10.3734 14.3349 8.96089 15.3975 7.89773ZM12.4993 18.75V16.8749H14.3743V21.6269C13.598 21.2669 12.4993 20.4588 12.4993 18.75ZM15.6244 16.8749H28.1248V22.5001C28.1248 24.102 27.5197 25.6258 26.4191 26.7908C25.2328 28.054 23.619 28.7503 21.8746 28.7503C19.0707 28.7503 17.415 26.8877 17.3288 26.7896C16.2294 25.6258 15.6244 24.102 15.6244 22.5001V16.8749ZM6.24906 39.3756C6.24906 35.5986 9.89731 33.8179 12.0261 33.1067L15.5625 32.2229L14.4637 34.0542C14.3737 34.2036 14.3506 34.3836 14.3993 34.5505C14.4481 34.7173 14.5643 34.8567 14.72 34.9348L17.0882 36.1193L18.8638 38.4868L19.9445 40.1075L18.9032 43.7514H17.4994V41.8763C17.4994 41.5313 17.2194 41.2513 16.8744 41.2513H12.4993C12.1543 41.2513 11.8742 41.5313 11.8742 41.8763V43.7514H10.6242V40.0013C10.6242 39.6562 10.3442 39.3762 9.99918 39.3762C9.65417 39.3762 9.37416 39.6562 9.37416 40.0013V43.7514H6.24906V39.3756ZM16.2494 43.7508H13.1243V42.5007H16.2494V43.7508ZM24.8459 43.7508L23.8046 40.1069L24.8853 38.4862L26.661 36.1186L29.0292 34.9342C29.1848 34.8561 29.3011 34.7167 29.3498 34.5498C29.3986 34.3823 29.3754 34.2023 29.2854 34.0536L28.2791 32.3766L31.2492 33.3654C30.4423 34.588 29.9992 36.0249 29.9992 37.4999C29.9992 40.1069 31.338 42.4057 33.3624 43.7501H24.8453L24.8459 43.7508ZM37.5001 43.7508C34.0537 43.7508 31.2499 40.9469 31.2499 37.5006C31.2499 36.0186 31.7786 34.5798 32.738 33.4498C33.9293 32.0523 35.665 31.2504 37.5001 31.2504C40.9464 31.2504 43.7503 34.0542 43.7503 37.5006C43.7503 40.9469 40.9464 43.7508 37.5001 43.7508Z" fill="#4A4A4A"/>
<path d="M42.3278 38.7982C42.4428 38.3832 42.5003 37.9463 42.5003 37.5006C42.5003 35.2943 41.0946 33.3918 38.9996 32.7349C37.5289 32.2074 36.0057 32.733 36.0001 32.7349C33.905 33.393 32.5 35.295 32.5 37.5C32.5 37.945 32.5575 38.3807 32.6719 38.7944C32.6719 38.7957 32.6731 38.7969 32.6731 38.7988C32.6738 38.8013 32.675 38.8032 32.6756 38.8057C32.9006 39.6457 33.3475 40.4189 33.9725 41.0439C34.9195 41.9827 36.172 42.5002 37.5008 42.5002C38.8296 42.5002 40.0821 41.9827 41.0303 41.042C41.6553 40.417 42.1034 39.6407 42.3259 38.8044C42.3259 38.8026 42.3272 38.8013 42.3278 38.7994C42.3278 38.7994 42.3278 38.7988 42.3278 38.7982ZM41.2465 37.4475L39.3758 35.95V34.2624C40.5046 34.9106 41.2278 36.0975 41.2465 37.4475ZM37.5008 33.7505C37.7133 33.7505 37.9208 33.7724 38.1258 33.8068V36.2506C38.1258 36.4406 38.2121 36.62 38.3602 36.7387L40.9946 38.8476C40.8709 39.1688 40.7053 39.4732 40.4971 39.7507L38.5008 38.2513C38.3927 38.17 38.2608 38.1257 38.1252 38.1257H36.8751C36.7395 38.1257 36.6083 38.1694 36.4995 38.2513L34.5038 39.7513C34.2951 39.4738 34.1294 39.1688 34.0057 38.8476L36.6401 36.7387C36.7883 36.62 36.8745 36.4406 36.8745 36.2506V33.8068C37.0789 33.7724 37.287 33.7505 37.4995 33.7505H37.5008ZM35.6257 34.263V35.9506L33.755 37.4481C33.7738 36.0981 34.4963 34.9118 35.6257 34.263ZM35.4238 40.6232L37.0845 39.3757H37.917L39.5777 40.6232C38.9665 41.0314 38.2496 41.2508 37.5008 41.2508C36.752 41.2508 36.0345 41.0308 35.4238 40.6232Z" fill="#4A4A4A"/>
<path d="M21.875 23.7501C22.22 23.7501 22.5 23.4701 22.5 23.1251V21.25C22.5 20.905 22.22 20.625 21.875 20.625C21.53 20.625 21.25 20.905 21.25 21.25V23.1251C21.25 23.4701 21.53 23.7501 21.875 23.7501Z" fill="#4A4A4A"/>
<path d="M23.3143 24.5513C23.2949 24.5694 22.823 25 21.8743 25C20.9386 25 20.4673 24.5819 20.4348 24.5519C20.1905 24.3138 19.7992 24.3163 19.5573 24.5581C19.3129 24.8025 19.3129 25.1975 19.5573 25.4419C19.6398 25.5244 20.4073 26.2501 21.8743 26.2501C23.3412 26.2501 24.1087 25.5244 24.1912 25.4419C24.4325 25.2007 24.4318 24.8144 24.1943 24.5694C23.9575 24.3244 23.5631 24.3175 23.3143 24.5513Z" fill="#4A4A4A"/>
<path d="M19.999 9.99955H23.7492C24.0942 9.99955 24.3742 9.71954 24.3742 9.37453C24.3742 9.02952 24.0942 8.74951 23.7492 8.74951H19.999C19.654 8.74951 19.374 9.02952 19.374 9.37453C19.374 9.71954 19.654 9.99955 19.999 9.99955Z" fill="#4A4A4A"/>
<path d="M28.7501 41.2505H26.25C25.905 41.2505 25.625 41.5305 25.625 41.8755C25.625 42.2205 25.905 42.5005 26.25 42.5005H28.7501C29.0951 42.5005 29.3751 42.2205 29.3751 41.8755C29.3751 41.5305 29.0951 41.2505 28.7501 41.2505Z" fill="#4A4A4A"/>
</svg>
