<svg width="50" height="50" viewBox="0 0 50 50" fill="none" xmlns="http://www.w3.org/2000/svg">
<path fill-rule="evenodd" clip-rule="evenodd" d="M14.7228 27.5762L14.7532 27.5929C15.7105 28.0994 16.7776 28.36 17.8593 28.3514C18.941 28.3428 20.0038 28.0654 20.9531 27.5438L20.9834 27.5265C21.3871 27.2965 21.7615 27.0181 22.0986 26.6975L22.1171 26.6783C22.1768 26.6208 22.2359 26.5613 22.2931 26.5013C22.8756 25.8915 23.3243 25.1654 23.6102 24.3701C23.8884 23.5919 23.9961 22.7624 23.926 21.9385L23.924 21.8908V21.8519L23.9289 18.6433C21.9811 19.4961 19.8775 19.9295 17.7532 19.9156C15.629 19.9017 13.5311 19.4409 11.5945 18.5627V21.8908V21.937C11.5299 22.7456 11.6469 23.5585 11.9367 24.3155C12.2483 25.1299 12.7193 25.873 13.3217 26.5008C13.3667 26.55 13.4259 26.607 13.4977 26.6763C13.8656 27.0292 14.2782 27.3316 14.7248 27.5757L14.7228 27.5762ZM15.0421 28.658C15.1063 28.9196 15.2071 29.1708 15.3413 29.404C15.5941 29.8499 15.9599 30.2203 16.4016 30.4776C16.8432 30.7348 17.3448 30.8695 17.8551 30.8681C18.3654 30.8666 18.8662 30.729 19.3064 30.4693C19.7465 30.2096 20.1103 29.8371 20.3606 29.3897C20.4971 29.1481 20.6001 28.8889 20.6666 28.6192C18.8697 29.3706 16.8516 29.3846 15.0445 28.658H15.0421ZM14.6133 29.8279C14.9402 30.4027 15.4128 30.8801 15.9828 31.2115C16.5528 31.5429 17.2 31.7163 17.8584 31.7142C18.5168 31.7121 19.1628 31.5345 19.7308 31.1995C20.2987 30.8646 20.7682 30.3841 21.0915 29.8072C21.1609 29.6846 21.2236 29.5582 21.2792 29.4286C21.6019 29.4597 21.9231 29.4999 22.2428 29.5491V35.7449H19.7686C19.6568 35.7449 19.5496 35.7896 19.4706 35.8691C19.3916 35.9486 19.3472 36.0564 19.3472 36.1688C19.3472 36.2812 19.3916 36.389 19.4706 36.4685C19.5496 36.548 19.6568 36.5927 19.7686 36.5927H24.9996C25.1538 36.59 25.3071 36.618 25.4505 36.6753C25.5939 36.7325 25.7246 36.8177 25.8351 36.9261C25.9429 37.037 26.0278 37.1684 26.0847 37.3125C26.1417 37.4567 26.1697 37.6108 26.167 37.766V42.1336H9.35545V37.7699C9.35277 37.6148 9.38074 37.4607 9.43772 37.3165C9.4947 37.1723 9.57957 37.0409 9.6874 36.93C9.79767 36.8218 9.92823 36.7366 10.0715 36.6796C10.2148 36.6225 10.3679 36.5946 10.5219 36.5976H10.5596L15.6996 36.6005C15.811 36.6005 15.9178 36.556 15.9966 36.4768C16.0753 36.3976 16.1196 36.2902 16.1196 36.1781C16.1196 36.0661 16.0753 35.9587 15.9966 35.8795C15.9178 35.8002 15.811 35.7557 15.6996 35.7557H13.3721V29.5604C13.7182 29.5063 14.0661 29.4628 14.4158 29.4301C14.474 29.567 14.5403 29.7003 14.6143 29.8293L14.6133 29.8279ZM14.1733 28.6015C14.1507 28.4698 14.1352 28.337 14.1269 28.2037C13.6896 27.9452 13.2836 27.6366 12.9169 27.2841C12.8612 27.2305 12.7952 27.1636 12.718 27.082C12.0372 26.3724 11.5052 25.5325 11.1535 24.612C10.8699 23.8672 10.7289 23.0752 10.738 22.2778C10.2577 22.1974 9.80498 21.9976 9.42096 21.6965C8.90069 21.2878 8.51192 20.7338 8.30338 20.1038C8.12869 19.5786 8.09625 19.0161 8.20941 18.4741C8.32258 17.9321 8.57725 17.4302 8.94724 17.0201C8.80448 16.9168 8.66287 16.8106 8.5224 16.7015C8.37468 16.5871 8.25516 16.44 8.17311 16.2717C8.09107 16.1033 8.04871 15.9182 8.04932 15.7307C8.04994 15.5432 8.09351 15.3583 8.17666 15.1905C8.2598 15.0227 8.38029 14.8764 8.52876 14.763L8.55711 14.7409C8.76344 14.5924 9.01081 14.5126 9.26452 14.5128H10.0233L10.8617 11.5741C10.867 11.5463 10.8748 11.5189 10.8852 11.4925L11.3144 9.99419C11.3224 9.95801 11.3349 9.92299 11.3515 9.88994C11.7968 9.02048 12.4691 8.28948 13.2963 7.77548C14.1197 7.26655 15.0676 6.99805 16.034 7.00001H19.5368C20.5123 7.00122 21.4688 7.27146 22.3022 7.78134C23.1356 8.29122 23.8141 9.02121 24.2638 9.89191C24.2758 9.91694 24.2858 9.94293 24.2936 9.9696L25.597 14.5172H26.4496C26.7022 14.5183 26.9482 14.5986 27.1533 14.7469C27.3584 14.8953 27.5124 15.1043 27.5939 15.3448C27.6753 15.5853 27.6802 15.8455 27.6077 16.0889C27.5353 16.3323 27.3892 16.547 27.1897 16.7029C27.0323 16.8254 26.8734 16.9434 26.7126 17.059C27.0107 17.39 27.2309 17.7843 27.3569 18.2126C27.5375 18.8334 27.5226 19.4952 27.3144 20.1072C27.0981 20.7412 26.6952 21.294 26.1592 21.6921C25.7568 21.9967 25.2872 22.1992 24.7903 22.2822C24.8073 23.0907 24.6762 23.8955 24.4036 24.6563C24.0758 25.5624 23.5627 26.3893 22.8974 27.0835C22.8322 27.152 22.7657 27.2187 22.6979 27.2836L22.672 27.3067C22.3392 27.6228 21.9745 27.903 21.5838 28.1427C21.574 28.2961 21.5551 28.4488 21.5271 28.6C23.3206 28.7888 25.0733 29.2611 26.7204 29.9995C28.4897 30.7903 30.1049 31.8916 31.4904 33.2518C31.8456 33.6021 32.1279 34.02 32.321 34.4811C32.514 34.9422 32.6139 35.4374 32.6148 35.9377V40.917C32.6142 41.4653 32.3973 41.991 32.0119 42.3787C31.6264 42.7665 31.1038 42.9846 30.5586 42.9852H9.04159C8.97039 43.0049 8.89524 43.0049 8.82404 42.9852H5.05625C4.51382 42.9885 3.99158 42.7785 3.60086 42.4001C3.40953 42.2139 3.25766 41.9907 3.1544 41.744C3.05114 41.4972 2.99863 41.2319 3.00003 40.9642V35.9377C3.00081 35.4373 3.10063 34.9421 3.29368 34.481C3.48674 34.0199 3.76915 33.602 4.12445 33.2518C5.51253 31.8919 7.13128 30.7928 8.90421 30.0064C10.5757 29.2625 12.3535 28.7888 14.1719 28.603L14.1733 28.6015ZM37.9377 26.727H36.0702V23.958C36.0665 23.848 36.0204 23.7438 35.9418 23.6673C35.8631 23.5908 35.758 23.5481 35.6486 23.5481C35.5392 23.5481 35.434 23.5908 35.3554 23.6673C35.2767 23.7438 35.2306 23.848 35.2269 23.958V26.7285H33.3594V23.958C33.3557 23.848 33.3096 23.7438 33.2309 23.6673C33.1523 23.5908 33.0471 23.5481 32.9377 23.5481C32.8283 23.5481 32.7232 23.5908 32.6445 23.6673C32.5659 23.7438 32.5198 23.848 32.5161 23.958V26.7285H30.7454V23.958C30.7454 23.8456 30.701 23.7378 30.6219 23.6583C30.5429 23.5788 30.4357 23.5341 30.3239 23.5341C30.2122 23.5341 30.105 23.5788 30.026 23.6583C29.9469 23.7378 29.9025 23.8456 29.9025 23.958V28.75C29.9024 29.0484 30.0085 29.3369 30.2017 29.5633C30.2973 29.6767 30.4162 29.7677 30.5503 29.8302C30.6843 29.8927 30.8303 29.9251 30.9781 29.9252H34.9013H34.9502C35.4612 29.9048 35.9617 30.0748 36.3557 30.4027C36.7303 30.7268 36.9631 31.186 37.004 31.6812V41.8602C37.004 42.0081 37.033 42.1547 37.0893 42.2914C37.1457 42.4281 37.2284 42.5522 37.3325 42.6568C37.4364 42.7615 37.5599 42.8446 37.6958 42.9013C37.8317 42.9581 37.9774 42.9872 38.1245 42.9872H38.7781C38.9253 42.9864 39.0708 42.9564 39.2064 42.8989C39.342 42.8413 39.4649 42.7574 39.5682 42.6518C39.6725 42.5471 39.7553 42.4227 39.8117 42.2858C39.8682 42.1488 39.8972 42.002 39.8972 41.8538V41.812L39.8048 31.692C39.8232 31.4439 39.8901 31.2018 40.0016 30.9796C40.113 30.7575 40.2669 30.5596 40.4545 30.3973C40.8571 30.0625 41.3702 29.8922 41.8918 29.9203H41.9069H45.8307C45.9785 29.9203 46.1245 29.888 46.2585 29.8255C46.3926 29.763 46.5115 29.6718 46.607 29.5584C46.8001 29.3319 46.9061 29.0434 46.9057 28.7451V23.958C46.9057 23.8456 46.8613 23.7378 46.7823 23.6583C46.7033 23.5788 46.5961 23.5341 46.4843 23.5341C46.3726 23.5341 46.2654 23.5788 46.1863 23.6583C46.1073 23.7378 46.0629 23.8456 46.0629 23.958V26.7285H44.2902V23.958C44.2902 23.8456 44.2458 23.7378 44.1668 23.6583C44.0878 23.5788 43.9806 23.5341 43.8688 23.5341C43.7571 23.5341 43.6499 23.5788 43.5708 23.6583C43.4918 23.7378 43.4474 23.8456 43.4474 23.958V26.7285H41.5814V23.958C41.5814 23.8456 41.537 23.7378 41.4579 23.6583C41.3789 23.5788 41.2717 23.5341 41.1599 23.5341C41.0482 23.5341 40.941 23.5788 40.862 23.6583C40.7829 23.7378 40.7385 23.8456 40.7385 23.958V26.7285H38.7791V23.958C38.7791 23.8456 38.7347 23.7378 38.6557 23.6583C38.5766 23.5788 38.4695 23.5341 38.3577 23.5341C38.2459 23.5341 38.1387 23.5788 38.0597 23.6583C37.9807 23.7378 37.9363 23.8456 37.9363 23.958V26.7285L37.9377 26.727ZM46.0644 27.5747H30.7454V28.7485C30.7434 28.842 30.7748 28.933 30.8338 29.0052C30.8517 29.027 30.874 29.0447 30.8994 29.0568C30.9247 29.069 30.9524 29.0753 30.9805 29.0755H34.9258C35.6456 29.0485 36.3499 29.2906 36.9028 29.7551C37.1746 29.9887 37.3978 30.2741 37.5596 30.5948C37.7215 30.9154 37.8187 31.2651 37.8458 31.6237V31.6606V41.8567C37.8454 41.8937 37.8524 41.9304 37.8663 41.9646C37.8802 41.9989 37.9007 42.03 37.9267 42.0561C37.9527 42.0823 37.9836 42.103 38.0177 42.1169C38.0517 42.1309 38.0882 42.1379 38.125 42.1375H38.7786C38.8518 42.1375 38.9221 42.1086 38.9742 42.0568C39.0261 42.0047 39.0554 41.934 39.0558 41.8602V41.8262L38.9629 31.6689V31.6296C38.99 31.271 39.0872 30.9213 39.249 30.6006C39.4109 30.2799 39.6341 29.9946 39.906 29.761C40.4651 29.2905 41.1791 29.0475 41.9074 29.0799H45.8307C45.8588 29.0797 45.8865 29.0733 45.9118 29.0612C45.9371 29.049 45.9595 29.0314 45.9774 29.0096C46.036 28.9373 46.0672 28.8463 46.0653 28.7529V27.5762L46.0644 27.5747ZM39.8067 10.3782H34.5278C34.441 10.3783 34.3564 10.4052 34.2853 10.4554C34.2143 10.5055 34.1604 10.5764 34.1308 10.6585L31.4386 16.4502C31.4087 16.5146 31.3953 16.5855 31.3999 16.6564C31.4044 16.7273 31.4267 16.7959 31.4646 16.8559C31.5026 16.9159 31.5549 16.9652 31.6168 16.9994C31.6788 17.0336 31.7483 17.0516 31.8189 17.0516H33.0788V20.4347C31.3395 20.9131 29.7192 21.7527 28.3222 22.8994C26.9252 24.046 25.7825 25.4744 24.9678 27.0923C24.9172 27.1924 24.9081 27.3087 24.9427 27.4154C24.9773 27.5222 25.0526 27.6108 25.1521 27.6618C25.2516 27.7127 25.3672 27.7218 25.4733 27.687C25.5795 27.6522 25.6676 27.5765 25.7182 27.4764C26.507 25.9153 27.6201 24.5429 28.982 23.452C30.3258 22.3781 31.8825 21.6058 33.5476 21.1871H44.8031C44.9148 21.1871 45.022 21.1424 45.101 21.0629C45.1801 20.9834 45.2245 20.8756 45.2245 20.7632V17.0531H46.5777C46.6521 17.0531 46.7251 17.0334 46.7895 16.996C46.8538 16.9585 46.9072 16.9046 46.9441 16.8397C46.9811 16.7748 47.0004 16.7012 47 16.6264C46.9996 16.5517 46.9796 16.4783 46.9419 16.4138L44.2492 10.6251C44.2157 10.5518 44.1622 10.4898 44.0947 10.4462C44.0273 10.4026 43.9489 10.3794 43.8688 10.3792H42.7948V8.83025C42.7948 8.71783 42.7504 8.61002 42.6713 8.53053C42.5923 8.45103 42.4851 8.40638 42.3733 8.40638H40.2223C40.1105 8.40638 40.0033 8.45103 39.9243 8.53053C39.8453 8.61002 39.8009 8.71783 39.8009 8.83025V10.3792L39.8067 10.3782ZM40.6496 9.25314H41.9549V10.3782H40.6496V9.25462V9.25314ZM37.2822 20.3393H33.9216V17.0531H36.1157C36.1838 17.0531 36.251 17.0365 36.3113 17.0047C36.3717 16.973 36.4235 16.927 36.4623 16.8706L39.2 13.4511L41.9553 16.8932C41.9946 16.9426 42.0445 16.9824 42.1012 17.0098C42.1579 17.0371 42.22 17.0512 42.2829 17.0511H44.3851V20.3374H41.0211V17.6628C41.0211 17.5503 40.9767 17.4423 40.8975 17.3627C40.8184 17.2832 40.7111 17.2384 40.5992 17.2384H37.7036C37.6482 17.2384 37.5934 17.2494 37.5422 17.2708C37.491 17.2921 37.4446 17.3234 37.4054 17.3628C37.3663 17.4022 37.3352 17.449 37.3141 17.5005C37.2929 17.5519 37.2821 17.6071 37.2822 17.6628V20.3393ZM38.125 18.0867H40.1783V20.3393H38.125V18.0867ZM33.5002 16.2053H35.9153L38.8705 12.5119C38.9404 12.4245 39.0419 12.3686 39.1528 12.3566C39.2636 12.3445 39.3747 12.3772 39.4616 12.4475C39.4871 12.4681 39.5102 12.4915 39.5305 12.5173L42.4814 16.2053H45.9172L43.6024 11.2299H34.7938L32.4794 16.2053H33.5002ZM16.0472 25.8797C16.012 25.8359 15.9859 25.7855 15.9703 25.7314C15.9547 25.6773 15.9501 25.6206 15.9566 25.5646C15.9631 25.5087 15.9807 25.4546 16.0082 25.4056C16.0358 25.3565 16.0729 25.3135 16.1172 25.2791C16.1615 25.2447 16.2122 25.2195 16.2664 25.2051C16.3205 25.1906 16.3769 25.1872 16.4324 25.195C16.4879 25.2028 16.5412 25.2217 16.5893 25.2505C16.6375 25.2794 16.6794 25.3176 16.7126 25.3629C16.8471 25.5371 17.0179 25.6795 17.2131 25.78C17.4083 25.8806 17.6231 25.9367 17.8422 25.9446C18.0614 25.9525 18.2796 25.9119 18.4814 25.8256C18.6833 25.7394 18.8638 25.6096 19.0103 25.4455C19.0845 25.3621 19.1887 25.3118 19.2998 25.3056C19.4109 25.2994 19.5199 25.3379 19.6028 25.4126C19.6858 25.4872 19.7358 25.592 19.7419 25.7037C19.7481 25.8155 19.7098 25.9252 19.6356 26.0086C19.4071 26.2654 19.1252 26.4686 18.8099 26.6037C18.4946 26.7387 18.1536 26.8023 17.8111 26.7901C17.4687 26.7778 17.1331 26.6898 16.8282 26.5325C16.5232 26.3752 16.2569 26.1523 16.0472 25.8797ZM22.6578 20.4337C22.7616 20.4728 22.8458 20.5514 22.8922 20.6526C22.9387 20.7537 22.9435 20.8692 22.9058 20.9739C22.8681 21.0786 22.7908 21.1642 22.6907 21.2119C22.5906 21.2597 22.4759 21.2658 22.3714 21.2289C22.2575 21.1873 22.1415 21.152 22.0238 21.1232C22.1089 21.3426 22.1524 21.5761 22.1519 21.8116C22.1557 22.2016 22.0339 22.5823 21.8047 22.8968C21.6983 23.0549 21.5549 23.1842 21.3872 23.2736C21.2196 23.3631 21.0327 23.4098 20.8429 23.4098C20.6531 23.4098 20.4662 23.3631 20.2985 23.2736C20.1309 23.1842 19.9875 23.0549 19.881 22.8968C19.6518 22.5823 19.5301 22.2016 19.5339 21.8116C19.5338 21.7174 19.5406 21.6234 19.5544 21.5303C19.4782 21.5795 19.4039 21.6287 19.331 21.6862C19.2869 21.7197 19.2367 21.7442 19.1832 21.7581C19.1297 21.7721 19.074 21.7754 19.0192 21.7677C18.9645 21.76 18.9118 21.7416 18.8641 21.7134C18.8164 21.6853 18.7748 21.6479 18.7414 21.6036C18.7081 21.5592 18.6838 21.5087 18.6699 21.4549C18.656 21.4011 18.6528 21.345 18.6604 21.29C18.668 21.2349 18.6864 21.1819 18.7144 21.1339C18.7423 21.086 18.7795 21.0441 18.8236 21.0106C19.3627 20.5975 19.9967 20.3279 20.667 20.2268C21.3372 20.1258 22.022 20.1964 22.6578 20.4323V20.4337ZM16.7913 21.012C16.8354 21.0455 16.8725 21.0875 16.9005 21.1354C16.9285 21.1833 16.9468 21.2364 16.9545 21.2914C16.9621 21.3465 16.9589 21.4025 16.945 21.4564C16.9311 21.5102 16.9067 21.5607 16.8734 21.6051C16.8401 21.6494 16.7984 21.6867 16.7508 21.7149C16.7031 21.7431 16.6504 21.7615 16.5956 21.7692C16.5409 21.7769 16.4852 21.7736 16.4317 21.7596C16.3782 21.7456 16.3279 21.7212 16.2838 21.6877C16.211 21.6321 16.1372 21.5805 16.0604 21.5318C16.0742 21.6249 16.0811 21.7189 16.081 21.8131C16.0851 22.2031 15.9633 22.5839 15.7339 22.8983C15.6274 23.0563 15.4841 23.1857 15.3165 23.2751C15.1488 23.3646 14.962 23.4113 14.7722 23.4113C14.5825 23.4113 14.3956 23.3646 14.228 23.2751C14.0603 23.1857 13.917 23.0563 13.8106 22.8983C13.5811 22.5839 13.4591 22.2031 13.463 21.8131C13.4627 21.5776 13.5061 21.3441 13.5911 21.1246C13.4733 21.1533 13.3573 21.1886 13.2435 21.2304C13.139 21.2672 13.0242 21.2611 12.9242 21.2134C12.8241 21.1657 12.7468 21.0801 12.7091 20.9754C12.6713 20.8707 12.6762 20.7552 12.7226 20.654C12.7691 20.5529 12.8533 20.4743 12.957 20.4352C13.5928 20.199 14.2777 20.1281 14.948 20.2292C15.6183 20.3303 16.2523 20.6001 16.7913 21.0135V21.012ZM12.5293 29.7157C11.9931 29.8288 11.4645 29.9678 10.9433 30.1327V35.7503H12.5293V29.7157ZM10.1005 30.4258C9.81174 30.5353 9.52607 30.653 9.2435 30.7789C7.5624 31.524 6.02741 32.5657 4.7111 33.8547C4.43492 34.1257 4.2156 34.4497 4.06612 34.8075C3.91665 35.1653 3.84006 35.5496 3.8409 35.9377V40.9642C3.83939 41.1186 3.86892 41.2717 3.92773 41.4144C3.98654 41.557 4.07341 41.6862 4.18311 41.7943C4.41715 42.0186 4.72906 42.1421 5.05234 42.1385H8.50725V37.7699C8.50443 37.5034 8.55418 37.2389 8.65362 36.9919C8.75306 36.7448 8.90021 36.5201 9.08657 36.3306C9.36253 36.0544 9.71335 35.8662 10.0951 35.7897V30.4253L10.1005 30.4258ZM27.0093 42.1375H30.5576C30.7171 42.1379 30.8751 42.1067 31.0225 42.0455C31.1699 41.9843 31.3039 41.8945 31.4166 41.781C31.5294 41.6676 31.6188 41.5329 31.6796 41.3846C31.7404 41.2363 31.7715 41.0774 31.771 40.917V35.9377C31.7719 35.5496 31.6953 35.1653 31.5458 34.8075C31.3963 34.4497 31.177 34.1257 30.9008 33.8547C29.5871 32.5648 28.0555 31.5206 26.3777 30.771C26.0632 30.6297 25.7443 30.4986 25.421 30.3776V35.7867C25.8025 35.8632 26.153 36.0514 26.4286 36.3276C26.6149 36.5171 26.7621 36.7419 26.8615 36.9889C26.9609 37.236 27.0107 37.5004 27.0079 37.7669V42.1345L27.0093 42.1375ZM24.5782 30.09C24.0893 29.9375 23.5919 29.8085 23.0861 29.703V35.7484H24.5782V30.0909V30.09ZM24.7664 21.4211C25.0897 21.3502 25.394 21.21 25.6586 21.0101C26.0569 20.7153 26.3567 20.3055 26.518 19.8353C26.6704 19.3881 26.6817 18.9045 26.5503 18.4506C26.4478 18.1042 26.2598 17.7895 26.0037 17.5359C25.6015 17.792 25.1906 18.0275 24.7708 18.2426L24.7664 21.4202V21.4211ZM25.7886 16.6705C23.4242 18.2404 20.6519 19.0741 17.8187 19.0672C14.9855 19.0603 12.2173 18.2131 9.86046 16.6316L9.83504 16.6144C9.56257 16.4312 9.29467 16.2374 9.03132 16.0332C8.97002 15.9854 8.92507 15.9196 8.90275 15.8449C8.88032 15.7691 8.88169 15.6882 8.90666 15.6133C8.92953 15.546 8.97089 15.4867 9.02595 15.4421L9.04306 15.4308C9.1064 15.3853 9.18229 15.3609 9.26012 15.361H26.4476C26.5259 15.3607 26.6023 15.3852 26.6662 15.4308C26.729 15.4758 26.776 15.5397 26.8006 15.6133C26.8258 15.6882 26.8272 15.7691 26.8045 15.8449C26.7822 15.9196 26.7372 15.9854 26.6759 16.0332C26.3983 16.2486 26.1152 16.4525 25.8268 16.6449L25.7886 16.6705ZM10.7532 21.4207V18.1486C10.3787 17.95 10.0107 17.7348 9.64927 17.503C9.34962 17.8009 9.13896 18.1774 9.04114 18.5896C8.94333 19.0018 8.96228 19.4334 9.09586 19.8353C9.25152 20.3063 9.54179 20.7208 9.93037 21.0268C10.1725 21.2173 10.4534 21.3521 10.7532 21.4207ZM24.0189 12.061L21.2631 12.0718C21.1517 12.0718 21.0449 12.0273 20.9661 11.9481C20.8874 11.8688 20.8431 11.7614 20.8431 11.6494C20.8431 11.5373 20.8874 11.4299 20.9661 11.3507C21.0449 11.2715 21.1517 11.227 21.2631 11.227L23.7769 11.2176L23.4982 10.2465C23.1176 9.52125 22.5473 8.91442 21.8488 8.4915C21.1503 8.06858 20.3502 7.84565 19.5349 7.84678H16.0321C15.2223 7.84502 14.4279 8.06975 13.7378 8.49587C13.0508 8.92254 12.4905 9.52718 12.1157 10.2465L11.8346 11.227H16.4061C16.5178 11.227 16.625 11.2716 16.704 11.3511C16.7831 11.4306 16.8275 11.5384 16.8275 11.6508C16.8275 11.7633 16.7831 11.8711 16.704 11.9506C16.625 12.0301 16.5178 12.0747 16.4061 12.0747H11.5916L10.892 14.5157H24.7219L24.0189 12.061ZM11.7808 38.8502C11.7813 38.8255 11.7769 38.801 11.7677 38.7781C11.7586 38.7552 11.7449 38.7344 11.7276 38.7169C11.7102 38.6994 11.6895 38.6857 11.6667 38.6765C11.6439 38.6673 11.6195 38.6628 11.595 38.6634C11.5706 38.6633 11.5464 38.6681 11.5238 38.6775C11.5013 38.6868 11.4808 38.7006 11.4635 38.718L11.4523 38.7288C11.4224 38.7659 11.4078 38.8131 11.4112 38.8607C11.4147 38.9083 11.436 38.9529 11.4708 38.9853C11.5057 39.0177 11.5514 39.0356 11.5989 39.0354C11.6464 39.0351 11.692 39.0168 11.7265 38.984C11.7438 38.9668 11.7575 38.9462 11.7669 38.9236C11.7762 38.901 11.7809 38.8767 11.7808 38.8522V38.8502ZM12.3225 38.12C12.2271 38.0239 12.1138 37.9476 11.9891 37.8956C11.8644 37.8436 11.7307 37.8168 11.5957 37.8168C11.4607 37.8168 11.3271 37.8436 11.2024 37.8956C11.0777 37.9476 10.9644 38.0239 10.869 38.12L10.8426 38.1495C10.6621 38.3453 10.564 38.6038 10.5689 38.8708C10.5738 39.1378 10.6814 39.3925 10.869 39.5814C10.9644 39.6773 11.0775 39.7534 11.2021 39.8053C11.3267 39.8572 11.4602 39.8839 11.595 39.8839C11.7298 39.8839 11.8633 39.8572 11.9879 39.8053C12.1125 39.7534 12.2257 39.6773 12.321 39.5814C12.4165 39.4855 12.4922 39.3716 12.5439 39.2462C12.5956 39.1209 12.6222 38.9865 12.6222 38.8507C12.6222 38.715 12.5956 38.5806 12.5439 38.4552C12.4922 38.3298 12.4165 38.2159 12.321 38.12H12.3225ZM20.8441 21.0646C20.903 21.0694 20.9601 21.0876 21.011 21.1179C21.0618 21.1483 21.1051 21.1899 21.1374 21.2397C21.2501 21.4103 21.3102 21.6105 21.3102 21.8153C21.3102 22.0201 21.2501 22.2203 21.1374 22.3909C21.1087 22.4439 21.0663 22.4882 21.0147 22.5191C20.9631 22.55 20.9042 22.5662 20.8441 22.5662C20.784 22.5662 20.7251 22.55 20.6735 22.5191C20.6219 22.4882 20.5795 22.4439 20.5508 22.3909C20.4379 22.2204 20.3777 22.0201 20.3777 21.8153C20.3777 21.6104 20.4379 21.4102 20.5508 21.2397C20.5831 21.1899 20.6263 21.1482 20.6772 21.1178C20.728 21.0875 20.7851 21.0693 20.8441 21.0646ZM14.7722 22.5659C14.7132 22.5614 14.6561 22.5432 14.6052 22.5129C14.5543 22.4825 14.5111 22.4407 14.4789 22.3909C14.3663 22.2202 14.3063 22.02 14.3063 21.8153C14.3063 21.6105 14.3663 21.4103 14.4789 21.2397C14.5077 21.1868 14.5501 21.1426 14.6017 21.1118C14.6533 21.0811 14.7122 21.0648 14.7722 21.0648C14.8322 21.0648 14.8911 21.0811 14.9427 21.1118C14.9943 21.1426 15.0367 21.1868 15.0656 21.2397C15.1782 21.4103 15.2383 21.6105 15.2383 21.8153C15.2383 22.0201 15.1782 22.2203 15.0656 22.3909C15.0333 22.4407 14.9901 22.4825 14.9392 22.5129C14.8884 22.5432 14.8312 22.5614 14.7722 22.5659ZM24.2076 38.8527C24.2076 38.8157 24.1968 38.7795 24.1764 38.7487C24.156 38.7179 24.1269 38.6939 24.0929 38.6798C24.059 38.6656 24.0216 38.6619 23.9855 38.6691C23.9494 38.6764 23.9163 38.6942 23.8903 38.7204C23.8555 38.7555 23.836 38.8029 23.836 38.8524C23.836 38.902 23.8555 38.9494 23.8903 38.9845L23.9025 38.9973C23.9385 39.0264 23.9838 39.0414 24.03 39.0394C24.0761 39.0374 24.12 39.0186 24.1533 38.9864C24.1705 38.9691 24.1842 38.9486 24.1935 38.926C24.2028 38.9034 24.2076 38.8791 24.2076 38.8547V38.8527ZM24.7493 38.1225C24.5564 37.9286 24.2949 37.8197 24.0222 37.8198C23.7495 37.8199 23.4881 37.929 23.2953 38.123C23.1026 38.317 22.9944 38.58 22.9945 38.8543C22.9946 39.1285 23.103 39.3915 23.2958 39.5854L23.3261 39.6129C23.5206 39.795 23.7779 39.8939 24.0436 39.8886C24.3092 39.8834 24.5625 39.7745 24.7498 39.5849C24.8452 39.489 24.921 39.3751 24.9727 39.2497C25.0244 39.1243 25.051 38.9899 25.051 38.8542C25.051 38.7184 25.0244 38.584 24.9727 38.4586C24.921 38.3333 24.8452 38.2194 24.7498 38.1235L24.7493 38.1225Z" fill="#4A4A4A"/>
</svg>
