<svg width="585" height="27" viewBox="0 0 585 27" fill="none" xmlns="http://www.w3.org/2000/svg">
<path d="M584 0V1.00982C577.328 1.27227 572 6.7639 572 13.5C572 20.2361 577.328 25.7277 584 25.9902M1 0V1.00982C1.16586 1.00329 1.33254 1 1.5 1C8.40356 1 14 6.59644 14 13.5C14 20.4036 8.40356 26 1.5 26C1.33254 26 1.16586 25.9967 1 25.9902V27" stroke="#BBBBBB"/>
<mask id="path-2-inside-1_102_61" fill="white">
<path d="M19 14H566V13H19V14Z"/>
</mask>
<path d="M566 12.5H566.5V13.5H566V12.5ZM19 13.5H18.5V12.5H19V13.5ZM24.0648 12.5H24.5648V13.5H24.0648V12.5ZM34.1944 13.5H33.6944V12.5H34.1944V13.5ZM44.3241 12.5H44.8241V13.5H44.3241V12.5ZM54.4537 13.5H53.9537V12.5H54.4537V13.5ZM64.5833 12.5H65.0833V13.5H64.5833V12.5ZM74.713 13.5H74.213V12.5H74.713V13.5ZM84.8426 12.5H85.3426V13.5H84.8426V12.5ZM94.9722 13.5H94.4722V12.5H94.9722V13.5ZM105.102 12.5H105.602V13.5H105.102V12.5ZM115.231 13.5H114.731V12.5H115.231V13.5ZM125.361 12.5H125.861V13.5H125.361V12.5ZM135.491 13.5H134.991V12.5H135.491V13.5ZM145.62 12.5H146.12V13.5H145.62V12.5ZM155.75 13.5H155.25V12.5H155.75V13.5ZM165.88 12.5H166.38V13.5H165.88V12.5ZM176.009 13.5H175.509V12.5H176.009V13.5ZM186.139 12.5H186.639V13.5H186.139V12.5ZM196.269 13.5H195.769V12.5H196.269V13.5ZM206.398 12.5H206.898V13.5H206.398V12.5ZM216.528 13.5H216.028V12.5H216.528V13.5ZM226.657 12.5H227.157V13.5H226.657V12.5ZM236.787 13.5H236.287V12.5H236.787V13.5ZM246.917 12.5H247.417V13.5H246.917V12.5ZM257.046 13.5H256.546V12.5H257.046V13.5ZM267.176 12.5H267.676V13.5H267.176V12.5ZM277.306 13.5H276.806V12.5H277.306V13.5ZM287.435 12.5H287.935V13.5H287.435V12.5ZM297.565 13.5H297.065V12.5H297.565V13.5ZM307.694 12.5H308.194V13.5H307.694V12.5ZM317.824 13.5H317.324V12.5H317.824V13.5ZM327.954 12.5H328.454V13.5H327.954V12.5ZM338.083 13.5H337.583V12.5H338.083V13.5ZM348.213 12.5H348.713V13.5H348.213V12.5ZM358.343 13.5H357.843V12.5H358.343V13.5ZM368.472 12.5H368.972V13.5H368.472V12.5ZM378.602 13.5H378.102V12.5H378.602V13.5ZM388.732 12.5H389.232V13.5H388.732V12.5ZM398.861 13.5H398.361V12.5H398.861V13.5ZM408.991 12.5H409.491V13.5H408.991V12.5ZM419.12 13.5H418.62V12.5H419.12V13.5ZM429.25 12.5H429.75V13.5H429.25V12.5ZM439.38 13.5H438.88V12.5H439.38V13.5ZM449.509 12.5H450.009V13.5H449.509V12.5ZM459.639 13.5H459.139V12.5H459.639V13.5ZM469.769 12.5H470.269V13.5H469.769V12.5ZM479.898 13.5H479.398V12.5H479.898V13.5ZM490.028 12.5H490.528V13.5H490.028V12.5ZM500.158 13.5H499.658V12.5H500.158V13.5ZM510.287 12.5H510.787V13.5H510.287V12.5ZM520.417 13.5H519.917V12.5H520.417V13.5ZM530.546 12.5H531.046V13.5H530.546V12.5ZM540.676 13.5H540.176V12.5H540.676V13.5ZM550.806 12.5H551.306V13.5H550.806V12.5ZM560.935 13.5H560.435V12.5H560.935V13.5ZM19 12.5H24.0648V13.5H19V12.5ZM34.1944 12.5H44.3241V13.5H34.1944V12.5ZM54.4537 12.5H64.5833V13.5H54.4537V12.5ZM74.713 12.5H84.8426V13.5H74.713V12.5ZM94.9722 12.5H105.102V13.5H94.9722V12.5ZM115.231 12.5H125.361V13.5H115.231V12.5ZM135.491 12.5H145.62V13.5H135.491V12.5ZM155.75 12.5H165.88V13.5H155.75V12.5ZM176.009 12.5H186.139V13.5H176.009V12.5ZM196.269 12.5H206.398V13.5H196.269V12.5ZM216.528 12.5H226.657V13.5H216.528V12.5ZM236.787 12.5H246.917V13.5H236.787V12.5ZM257.046 12.5H267.176V13.5H257.046V12.5ZM277.306 12.5H287.435V13.5H277.306V12.5ZM297.565 12.5H307.694V13.5H297.565V12.5ZM317.824 12.5H327.954V13.5H317.824V12.5ZM338.083 12.5H348.213V13.5H338.083V12.5ZM358.343 12.5H368.472V13.5H358.343V12.5ZM378.602 12.5H388.732V13.5H378.602V12.5ZM398.861 12.5H408.991V13.5H398.861V12.5ZM419.12 12.5H429.25V13.5H419.12V12.5ZM439.38 12.5H449.509V13.5H439.38V12.5ZM459.639 12.5H469.769V13.5H459.639V12.5ZM479.898 12.5H490.028V13.5H479.898V12.5ZM500.158 12.5H510.287V13.5H500.158V12.5ZM520.417 12.5H530.546V13.5H520.417V12.5ZM540.676 12.5H550.806V13.5H540.676V12.5ZM560.935 12.5H566V13.5H560.935V12.5ZM566 12H567V14H566V12ZM19 14H18V12H19V14ZM24.0648 12H25.0648V14H24.0648V12ZM34.1944 14H33.1944V12H34.1944V14ZM44.3241 12H45.3241V14H44.3241V12ZM54.4537 14H53.4537V12H54.4537V14ZM64.5833 12H65.5833V14H64.5833V12ZM74.713 14H73.713V12H74.713V14ZM84.8426 12H85.8426V14H84.8426V12ZM94.9722 14H93.9722V12H94.9722V14ZM105.102 12H106.102V14H105.102V12ZM115.231 14H114.231V12H115.231V14ZM125.361 12H126.361V14H125.361V12ZM135.491 14H134.491V12H135.491V14ZM145.62 12H146.62V14H145.62V12ZM155.75 14H154.75V12H155.75V14ZM165.88 12H166.88V14H165.88V12ZM176.009 14H175.009V12H176.009V14ZM186.139 12H187.139V14H186.139V12ZM196.269 14H195.269V12H196.269V14ZM206.398 12H207.398V14H206.398V12ZM216.528 14H215.528V12H216.528V14ZM226.657 12H227.657V14H226.657V12ZM236.787 14H235.787V12H236.787V14ZM246.917 12H247.917V14H246.917V12ZM257.046 14H256.046V12H257.046V14ZM267.176 12H268.176V14H267.176V12ZM277.306 14H276.306V12H277.306V14ZM287.435 12H288.435V14H287.435V12ZM297.565 14H296.565V12H297.565V14ZM307.694 12H308.694V14H307.694V12ZM317.824 14H316.824V12H317.824V14ZM327.954 12H328.954V14H327.954V12ZM338.083 14H337.083V12H338.083V14ZM348.213 12H349.213V14H348.213V12ZM358.343 14H357.343V12H358.343V14ZM368.472 12H369.472V14H368.472V12ZM378.602 14H377.602V12H378.602V14ZM388.732 12H389.732V14H388.732V12ZM398.861 14H397.861V12H398.861V14ZM408.991 12H409.991V14H408.991V12ZM419.12 14H418.12V12H419.12V14ZM429.25 12H430.25V14H429.25V12ZM439.38 14H438.38V12H439.38V14ZM449.509 12H450.509V14H449.509V12ZM459.639 14H458.639V12H459.639V14ZM469.769 12H470.769V14H469.769V12ZM479.898 14H478.898V12H479.898V14ZM490.028 12H491.028V14H490.028V12ZM500.158 14H499.158V12H500.158V14ZM510.287 12H511.287V14H510.287V12ZM520.417 14H519.417V12H520.417V14ZM530.546 12H531.546V14H530.546V12ZM540.676 14H539.676V12H540.676V14ZM550.806 12H551.806V14H550.806V12ZM560.935 14H559.935V12H560.935V14ZM19 12H24.0648V14H19V12ZM34.1944 12H44.3241V14H34.1944V12ZM54.4537 12H64.5833V14H54.4537V12ZM74.713 12H84.8426V14H74.713V12ZM94.9722 12H105.102V14H94.9722V12ZM115.231 12H125.361V14H115.231V12ZM135.491 12H145.62V14H135.491V12ZM155.75 12H165.88V14H155.75V12ZM176.009 12H186.139V14H176.009V12ZM196.269 12H206.398V14H196.269V12ZM216.528 12H226.657V14H216.528V12ZM236.787 12H246.917V14H236.787V12ZM257.046 12H267.176V14H257.046V12ZM277.306 12H287.435V14H277.306V12ZM297.565 12H307.694V14H297.565V12ZM317.824 12H327.954V14H317.824V12ZM338.083 12H348.213V14H338.083V12ZM358.343 12H368.472V14H358.343V12ZM378.602 12H388.732V14H378.602V12ZM398.861 12H408.991V14H398.861V12ZM419.12 12H429.25V14H419.12V12ZM439.38 12H449.509V14H439.38V12ZM459.639 12H469.769V14H459.639V12ZM479.898 12H490.028V14H479.898V12ZM500.158 12H510.287V14H500.158V12ZM520.417 12H530.546V14H520.417V12ZM540.676 12H550.806V14H540.676V12ZM560.935 12H566V14H560.935V12Z" fill="#BBBBBB" mask="url(#path-2-inside-1_102_61)"/>
</svg>
