<svg width="341" height="383" viewBox="0 0 341 383" fill="none" xmlns="http://www.w3.org/2000/svg">
<path d="M251.115 184.74C248.792 192.965 241.293 198.333 233.156 198.335C231.475 198.335 229.765 198.107 228.06 197.624C219.835 195.301 214.467 187.803 214.464 179.665C214.465 177.984 214.693 176.275 215.176 174.571C217.499 166.344 224.996 160.976 233.135 160.973C234.815 160.973 236.525 161.203 238.229 161.685C246.455 164.007 251.824 171.505 251.825 179.643C251.825 181.325 251.596 183.035 251.115 184.74ZM263.963 177.804C263.683 173.127 262.337 168.632 260.105 164.627L263.927 162.496C262.011 159.059 259.523 155.94 256.544 153.293L253.633 156.568C250.271 153.58 246.217 151.267 241.603 149.951L242.795 145.76L242.74 145.744C239.54 144.84 236.307 144.405 233.128 144.405C232.436 144.405 231.748 144.425 231.061 144.467L231.32 148.835C226.641 149.112 222.147 150.452 218.139 152.683L216.012 148.859C212.572 150.772 209.452 153.259 206.803 156.233L210.075 159.147C207.084 162.507 204.769 166.56 203.449 171.173L199.259 169.977L199.236 170.059C198.329 173.26 197.896 176.492 197.896 179.671C197.896 180.353 197.916 181.033 197.955 181.709L202.325 181.455C202.597 186.133 203.935 190.631 206.161 194.639L202.335 196.763C204.247 200.204 206.729 203.327 209.703 205.977L212.619 202.708C215.977 205.701 220.028 208.019 224.64 209.343L223.44 213.533L223.551 213.564C226.751 214.469 229.983 214.904 233.161 214.903C233.872 214.903 234.581 214.881 235.285 214.839L235.02 210.472C239.697 210.188 244.191 208.839 248.195 206.601L250.328 210.423C253.764 208.504 256.881 206.013 259.525 203.032L256.248 200.125C259.233 196.76 261.544 192.704 262.857 188.087L267.047 189.277L267.055 189.249C267.96 186.049 268.395 182.817 268.393 179.637C268.393 178.937 268.373 178.237 268.332 177.543L263.963 177.804Z" fill="#D0E8EC"/>
<path d="M267.834 119.461C266.68 123.548 262.955 126.215 258.912 126.216C258.076 126.216 257.227 126.103 256.38 125.863C252.294 124.709 249.627 120.984 249.626 116.94C249.626 116.105 249.74 115.256 249.979 114.409C251.132 110.323 254.859 107.656 258.9 107.655C259.736 107.655 260.586 107.768 261.432 108.008C265.519 109.161 268.187 112.887 268.187 116.929C268.187 117.765 268.074 118.615 267.834 119.461ZM274.218 116.016C274.078 113.692 273.41 111.46 272.3 109.469L274.199 108.411C273.247 106.703 272.011 105.153 270.531 103.839L269.086 105.465C267.415 103.981 265.4 102.832 263.108 102.179L263.7 100.096L263.674 100.088C262.084 99.6387 260.478 99.4227 258.898 99.4227C258.555 99.4227 258.212 99.4333 257.871 99.4533L258 101.624C255.675 101.761 253.443 102.427 251.451 103.535L250.394 101.635C248.686 102.585 247.136 103.821 245.819 105.299L247.444 106.747C245.959 108.416 244.808 110.429 244.154 112.721L242.071 112.128L242.06 112.168C241.61 113.759 241.394 115.364 241.394 116.943C241.394 117.283 241.404 117.62 241.424 117.956L243.595 117.829C243.73 120.155 244.394 122.388 245.5 124.38L243.6 125.435C244.55 127.144 245.783 128.696 247.26 130.013L248.708 128.388C250.378 129.876 252.39 131.027 254.682 131.685L254.084 133.767L254.139 133.781C255.73 134.232 257.335 134.448 258.915 134.447C259.268 134.447 259.62 134.437 259.97 134.415L259.837 132.245C262.163 132.104 264.394 131.435 266.383 130.323L267.443 132.221C269.15 131.268 270.699 130.031 272.012 128.549L270.384 127.105C271.867 125.433 273.016 123.419 273.667 121.125L275.75 121.716L275.752 121.703C276.203 120.112 276.419 118.507 276.419 116.927C276.419 116.579 276.408 116.232 276.388 115.885L274.218 116.016Z" fill="#D0E8EC"/>
<path d="M213.2 93.8679H104.758C94.6397 93.8679 86.4424 102.065 86.4424 112.176V136.945V144.011V157.041V179.553V185.083V207.595V359.632C86.4424 369.741 94.6397 377.939 104.758 377.939H213.2C223.32 377.939 231.517 369.741 231.517 359.632V187.356V164.844V112.176C231.517 102.065 223.32 93.8679 213.2 93.8679Z" fill="#1B2B34"/>
<path d="M212.805 101.404H105.144C101.877 101.405 98.9427 102.721 96.7987 104.861C94.6587 107.005 93.3426 109.939 93.3413 113.208V340.423C93.3426 343.691 94.6587 346.624 96.7987 348.769C98.944 350.909 101.877 352.224 105.144 352.225H212.815C216.08 352.224 219.012 350.911 221.155 348.771C223.293 346.629 224.608 343.697 224.609 340.432V113.208C224.608 109.939 223.292 107.005 221.152 104.861C219.008 102.721 216.075 101.405 212.805 101.404Z" fill="white"/>
<mask id="mask0_60_890" style="mask-type:luminance" maskUnits="userSpaceOnUse" x="64" y="77" width="134" height="255">
<path d="M189.02 331.305H72.9998C68.1158 331.305 64.1558 327.345 64.1558 322.463V86.6493C64.1558 81.7653 68.1158 77.8066 72.9998 77.8066H189.02C193.902 77.8066 197.862 81.7653 197.862 86.6493V322.463C197.862 327.345 193.902 331.305 189.02 331.305Z" fill="white"/>
</mask>
<g mask="url(#mask0_60_890)">
<path d="M189.02 331.305H72.9998C68.1158 331.305 64.1558 327.345 64.1558 322.463V86.6493C64.1558 81.7653 68.1158 77.8066 72.9998 77.8066H189.02C193.902 77.8066 197.862 81.7653 197.862 86.6493V322.463C197.862 327.345 193.902 331.305 189.02 331.305Z" fill="#71ECCF"/>
</g>
<path d="M165.556 146.547C165.556 165.625 150.09 181.092 131.01 181.092C111.93 181.092 96.4629 165.625 96.4629 146.547C96.4629 127.467 111.93 111.999 131.01 111.999C150.09 111.999 165.556 127.467 165.556 146.547Z" fill="#1FA686"/>
<path d="M160.015 146.547C160.015 162.565 147.028 175.551 131.009 175.551C114.991 175.551 102.004 162.565 102.004 146.547C102.004 130.527 114.991 117.541 131.009 117.541C147.028 117.541 160.015 130.527 160.015 146.547Z" fill="white"/>
<path d="M142.375 136.245C142.375 142.523 137.287 147.611 131.009 147.611C124.732 147.611 119.644 142.523 119.644 136.245C119.644 129.969 124.732 124.881 131.009 124.881C137.287 124.881 142.375 129.969 142.375 136.245Z" fill="#101C24"/>
<path d="M148.295 151.537V164.739H113.724V151.537C113.724 150.067 114.917 148.875 116.389 148.875H122.896C123.871 148.875 124.831 149.079 125.736 149.441C127.367 150.095 129.145 150.453 131.009 150.453C132.873 150.453 134.652 150.095 136.283 149.441C137.188 149.079 138.148 148.875 139.123 148.875H145.631C147.101 148.875 148.295 150.067 148.295 151.537Z" fill="#101C24"/>
<path d="M174.517 213.635H83.2573V200.547H174.517V213.635Z" fill="white"/>
<path d="M174.517 236.863H83.2573V223.775H174.517V236.863Z" fill="white"/>
<path d="M174.517 265.043H83.2573V251.953H174.517V265.043Z" fill="#1FA686"/>
<path d="M96.1971 230.319C96.1971 231.149 95.5251 231.823 94.6944 231.823C93.8637 231.823 93.1904 231.149 93.1904 230.319C93.1904 229.489 93.8637 228.816 94.6944 228.816C95.5251 228.816 96.1971 229.489 96.1971 230.319Z" fill="#101C24"/>
<path d="M111.395 230.319C111.395 231.149 110.722 231.823 109.891 231.823C109.06 231.823 108.388 231.149 108.388 230.319C108.388 229.489 109.06 228.816 109.891 228.816C110.722 228.816 111.395 229.489 111.395 230.319Z" fill="#101C24"/>
<path d="M126.591 230.319C126.591 231.149 125.917 231.823 125.088 231.823C124.257 231.823 123.584 231.149 123.584 230.319C123.584 229.489 124.257 228.816 125.088 228.816C125.917 228.816 126.591 229.489 126.591 230.319Z" fill="#101C24"/>
<path d="M103.796 230.319C103.796 231.149 103.122 231.823 102.293 231.823C101.462 231.823 100.789 231.149 100.789 230.319C100.789 229.489 101.462 228.816 102.293 228.816C103.122 228.816 103.796 229.489 103.796 230.319Z" fill="#101C24"/>
<path d="M118.994 230.319C118.994 231.149 118.32 231.823 117.489 231.823C116.66 231.823 115.987 231.149 115.987 230.319C115.987 229.489 116.66 228.816 117.489 228.816C118.32 228.816 118.994 229.489 118.994 230.319Z" fill="#101C24"/>
<path d="M149.387 230.319C149.387 231.149 148.713 231.823 147.884 231.823C147.053 231.823 146.38 231.149 146.38 230.319C146.38 229.489 147.053 228.816 147.884 228.816C148.713 228.816 149.387 229.489 149.387 230.319Z" fill="#101C24"/>
<path d="M134.189 230.319C134.189 231.149 133.516 231.823 132.687 231.823C131.856 231.823 131.183 231.149 131.183 230.319C131.183 229.489 131.856 228.816 132.687 228.816C133.516 228.816 134.189 229.489 134.189 230.319Z" fill="#101C24"/>
<path d="M141.788 230.319C141.788 231.149 141.115 231.823 140.284 231.823C139.455 231.823 138.781 231.149 138.781 230.319C138.781 229.489 139.455 228.816 140.284 228.816C141.115 228.816 141.788 229.489 141.788 230.319Z" fill="#101C24"/>
<path d="M164.584 230.319C164.584 231.149 163.91 231.823 163.08 231.823C162.25 231.823 161.577 231.149 161.577 230.319C161.577 229.489 162.25 228.816 163.08 228.816C163.91 228.816 164.584 229.489 164.584 230.319Z" fill="#101C24"/>
<path d="M156.985 230.319C156.985 231.149 156.312 231.823 155.481 231.823C154.651 231.823 153.979 231.149 153.979 230.319C153.979 229.489 154.651 228.816 155.481 228.816C156.312 228.816 156.985 229.489 156.985 230.319Z" fill="#101C24"/>
<path d="M111.395 207.799C111.395 208.629 110.722 209.301 109.891 209.301C109.06 209.301 108.388 208.629 108.388 207.799C108.388 206.968 109.06 206.295 109.891 206.295C110.722 206.295 111.395 206.968 111.395 207.799Z" fill="#101C24"/>
<path d="M126.591 207.799C126.591 208.629 125.917 209.301 125.088 209.301C124.257 209.301 123.584 208.629 123.584 207.799C123.584 206.968 124.257 206.295 125.088 206.295C125.917 206.295 126.591 206.968 126.591 207.799Z" fill="#101C24"/>
<path d="M118.994 207.799C118.994 208.629 118.32 209.301 117.489 209.301C116.66 209.301 115.987 208.629 115.987 207.799C115.987 206.968 116.66 206.295 117.489 206.295C118.32 206.295 118.994 206.968 118.994 207.799Z" fill="#101C24"/>
<path d="M149.387 207.799C149.387 208.629 148.713 209.301 147.884 209.301C147.053 209.301 146.38 208.629 146.38 207.799C146.38 206.968 147.053 206.295 147.884 206.295C148.713 206.295 149.387 206.968 149.387 207.799Z" fill="#101C24"/>
<path d="M134.189 207.799C134.189 208.629 133.516 209.301 132.687 209.301C131.856 209.301 131.183 208.629 131.183 207.799C131.183 206.968 131.856 206.295 132.687 206.295C133.516 206.295 134.189 206.968 134.189 207.799Z" fill="#101C24"/>
<path d="M141.788 207.799C141.788 208.629 141.115 209.301 140.284 209.301C139.455 209.301 138.781 208.629 138.781 207.799C138.781 206.968 139.455 206.295 140.284 206.295C141.115 206.295 141.788 206.968 141.788 207.799Z" fill="#101C24"/>
<path d="M303.304 358.067C301.696 354.371 295.24 340.157 293.652 331.173C292.064 322.191 287.179 314.889 287.045 310.4C286.913 305.912 294.279 303.271 296.208 294.049C298.139 284.829 302.008 269.781 304.401 270.24C306.793 270.697 308.428 287.213 310.708 291.285C312.987 295.36 319.128 300.42 314.368 306.287C309.608 312.156 312.151 319.172 316.517 325.297C320.884 331.424 308.511 339.059 309.727 347.392C310.944 355.727 308.633 366.94 308.633 366.94L303.304 358.067Z" fill="#D0E8EC"/>
<path d="M305.44 340.272C305.076 340.272 304.762 339.996 304.72 339.625C304.118 334.132 302.45 329.941 301.11 326.575C300.052 323.921 299.139 321.628 299.055 319.479C298.951 316.844 300.434 314.796 301.864 312.816C303.192 310.98 304.566 309.083 304.892 306.584C305.58 301.352 300.863 289.749 300.815 289.632C300.664 289.261 300.84 288.836 301.212 288.685C301.586 288.535 302.007 288.711 302.16 289.083C302.36 289.573 307.068 301.161 306.334 306.772C305.959 309.636 304.41 311.777 303.042 313.665C301.636 315.609 300.424 317.287 300.507 319.423C300.582 321.321 301.41 323.404 302.458 326.039C303.831 329.488 305.539 333.777 306.164 339.467C306.208 339.865 305.92 340.224 305.522 340.268L305.44 340.272Z" fill="#C5DDE0"/>
<path d="M291.006 355.3C289.222 354.497 288.646 344.771 285.378 343.317C282.11 341.865 279.75 337.327 278.661 332.605C277.572 327.885 267.949 325.888 266.134 320.805C264.318 315.721 269.765 312.091 269.402 307.371C269.038 302.651 265.045 295.933 267.949 292.847C270.854 289.76 275.938 300.472 278.661 302.651C281.385 304.828 286.649 307.189 285.197 311.183C283.745 315.177 285.741 321.713 295.182 325.344C304.622 328.975 310.796 364.196 291.006 355.3Z" fill="#D0E8EC"/>
<path d="M292.46 338.597C292.154 338.597 291.87 338.403 291.77 338.097C289.915 332.419 286.995 330.181 283.614 327.592C281.868 326.257 280.066 324.876 278.304 322.925C273.023 317.077 275.49 306.897 275.596 306.468C275.694 306.079 276.084 305.845 276.478 305.939C276.866 306.037 277.103 306.432 277.007 306.82C276.983 306.919 274.623 316.681 279.383 321.952C281.055 323.804 282.804 325.144 284.496 326.439C287.92 329.063 291.156 331.54 293.151 337.645C293.274 338.027 293.067 338.437 292.686 338.561L292.46 338.597Z" fill="#C5DDE0"/>
<path d="M308.617 356.388C309.101 354.937 309.585 348.643 312.973 347.191C316.363 345.737 319.752 344.771 322.415 340.412C325.077 336.055 322.415 329.277 325.32 324.677C328.224 320.079 334.76 324.437 338.149 319.836C341.537 315.237 334.033 307.249 336.696 303.86C339.36 300.472 342.991 291.272 339.36 290.063C335.728 288.852 325.561 295.388 322.899 301.197C320.236 307.007 314.911 310.396 313.7 314.995C312.491 319.595 308.617 322.015 307.648 326.615C306.68 331.215 308.133 338.233 306.439 343.317C304.744 348.4 308.617 356.388 308.617 356.388Z" fill="#D0E8EC"/>
<path d="M317.284 382.532H286.877C284.688 382.532 282.889 380.804 282.801 378.615L281.505 346.221H322.657L321.361 378.615C321.273 380.804 319.475 382.532 317.284 382.532Z" fill="#B1D1D7"/>
<path d="M315.396 339.443L315.341 339.441C314.943 339.412 314.641 339.065 314.669 338.664C315.584 326.107 319.944 319.295 324.52 313.804C328.004 309.623 330.164 301.576 330.185 301.495C330.288 301.108 330.68 300.871 331.073 300.98C331.46 301.081 331.692 301.48 331.589 301.868C331.499 302.209 329.327 310.305 325.635 314.735C321.216 320.04 317.003 326.621 316.119 338.771C316.091 339.153 315.772 339.443 315.396 339.443Z" fill="#C5DDE0"/>
<path d="M14.4439 259.461L45.7986 258.159L47.1732 204.515L45.0079 191.043L30.5252 185.717L21.1973 187.497C15.8959 188.509 12.1239 193.236 12.3119 198.631L15.7133 236.596L14.4439 259.461Z" fill="#F4CDA7"/>
<path d="M27.0293 179.111V189.889C27.0293 189.889 29.3066 191.251 34.6372 191.251C37.5106 191.251 38.1559 189.889 38.1559 189.889V185.905L27.0293 179.111Z" fill="#F4CDA7"/>
<path d="M25.7746 171.063C25.8 171.453 25.8119 171.819 25.8373 172.171C25.8373 172.297 25.824 172.423 25.824 172.561C25.56 178.96 29.6666 185.812 35.8506 186.744L35.9893 186.769L36.2026 186.781C37.5253 186.945 42.312 187.336 44.0626 185.409C46.116 183.141 47.9426 178.985 47.9426 176.147C47.9426 173.305 47.4253 172.635 47.4253 171.488C47.4253 170.595 47.9066 167.796 47.916 166.581C47.956 160.871 44.1133 155.204 37.2866 155.204C27.0466 155.204 25.484 164.185 25.7746 171.063Z" fill="#F4CDA7"/>
<path d="M1.73749 232.533C5.09882 233.932 15.0322 215.153 18.6562 206.869C22.2802 198.587 23.6562 191.412 19.5508 189.705C15.4455 187.997 11.3282 194.031 8.00819 202.44C4.68953 210.849 -1.62518 231.135 1.73749 232.533Z" fill="#F4CDA7"/>
<path d="M20.7201 267.212C23.6561 265.867 14.5628 243.895 11.7681 237.795C8.9721 231.696 5.57215 225.463 2.28015 226.972C-1.01052 228.48 1.48945 235.124 4.28412 241.224C7.08012 247.324 17.7841 268.557 20.7201 267.212Z" fill="#F4CDA7"/>
<path d="M18.3014 261.555C14.7241 262.883 17.7828 268.924 18.9014 270.947C20.7228 274.241 25.8135 275.872 27.1028 275.183C28.3908 274.493 23.7055 267.345 23.8641 266.937C24.0255 266.528 26.1628 270.604 27.3055 269.828C28.4468 269.055 25.6095 264.229 23.7522 262.749C21.8948 261.271 20.5428 260.723 18.3014 261.555Z" fill="#F4CDA7"/>
<path d="M33.8426 255.477C30.716 256.661 28.976 261.623 30.032 266.236C30.8734 269.908 32.3547 274.621 34.9547 280.136C41.448 293.9 46.472 312.305 51.0773 312.239C55.684 312.173 57.2093 300.757 52.6973 285.885C48.6187 272.444 44.8814 254.819 41.4907 253.943C39.7734 253.5 36.5773 254.44 33.8426 255.477Z" fill="#F4CDA7"/>
<path d="M52.5947 309.303C40.0827 305.471 45.7454 355.74 49.944 366.493C54.1454 377.245 55.7227 358.828 56.4774 340.271C57.2334 321.713 57.5173 310.811 52.5947 309.303Z" fill="#F4CDA7"/>
<path d="M46.6895 353.028C46.8321 353.217 47.7335 369.736 47.7335 369.736C47.7335 369.736 55.7081 370.305 55.7081 369.736C55.7081 369.167 56.3255 354.832 56.3255 354.832L46.6895 353.028Z" fill="#F4CDA7"/>
<path d="M18.5269 353.028C18.6682 353.217 19.5708 369.736 19.5708 369.736C19.5708 369.736 27.5455 370.305 27.5455 369.736C27.5455 369.167 28.1615 354.832 28.1615 354.832L18.5269 353.028Z" fill="#F4CDA7"/>
<path d="M18.62 255.259C15.324 255.815 12.656 260.344 12.7974 265.076C12.9107 268.84 13.4494 273.752 14.9334 279.664C18.636 294.427 19.9974 313.456 24.528 314.284C29.06 315.112 32.7694 304.209 31.2241 288.745C29.8281 274.768 29.5773 256.752 26.42 255.236C24.8213 254.468 21.504 254.771 18.62 255.259Z" fill="#F4CDA7"/>
<path d="M26.2612 310.599C13.9572 306.143 17.3906 356.64 21.0466 367.591C24.6999 378.541 26.8959 360.217 28.5839 341.721C30.2705 323.225 31.1025 312.351 26.2612 310.599Z" fill="#F4CDA7"/>
<path d="M48.1135 255.501C48.1135 255.501 61.1508 302.588 60.8975 312.46C60.6441 322.333 56.8468 363.471 56.8468 363.471C56.8468 363.471 45.8348 364.8 45.8348 363.471C45.8348 362.141 43.9362 314.296 43.1775 310.119C42.4175 305.941 34.0628 288.095 34.0628 288.095C34.0628 288.095 33.6841 308.6 33.6841 314.296C33.6841 319.992 28.5575 363.091 28.5575 363.091L17.9255 363.28C17.9255 363.28 16.4068 337.08 16.4068 329.675C16.4068 322.271 18.2095 310.688 18.1148 309.169C18.0201 307.651 3.68546 270.437 13.1788 256.007C25.6615 237.035 48.1135 255.501 48.1135 255.501Z" fill="#101C24"/>
<path d="M45.9883 190.684C48.167 192.705 49.8616 196.243 50.2723 203.477C50.3883 205.499 51.8843 211.049 49.1723 217.815C44.9763 228.28 49.2123 249.943 50.3096 255.08C50.4336 255.657 49.9989 256.199 49.4096 256.209L13.3416 256.833C12.2763 256.852 11.4243 255.959 11.511 254.896C12.0923 247.693 13.9856 222.916 13.039 216.996C9.68962 196.031 13.0656 189.284 18.9069 187.645C27.6576 185.191 43.8083 188.663 45.9883 190.684Z" fill="#010101"/>
<path d="M73.4397 221.107C75.7944 218.369 61.1557 203.22 54.4664 197.252C47.7757 191.284 41.4384 187.777 38.5637 191.12C35.6891 194.463 40.1064 200.204 47.0104 205.923C53.9131 211.643 71.085 223.845 73.4397 221.107Z" fill="#F4CDA7"/>
<path d="M102.819 192.325C100.708 189.919 82.4132 204.796 77.4118 209.183C72.4105 213.571 67.4532 218.571 69.8212 221.269C72.1892 223.968 77.7919 219.707 82.7945 215.32C87.7959 210.932 104.931 194.732 102.819 192.325Z" fill="#F4CDA7"/>
<path d="M109.317 185.051C108.479 184.113 103.911 188.603 102.44 189.763C102.219 189.937 102.063 190.041 102.005 190.033L101.991 189.833C102.228 189.116 104.029 186.603 103.155 185.811C102.193 184.94 98.5975 188.353 97.3801 190.533C97.3121 190.653 97.2228 190.785 97.1695 190.897C96.1815 193.035 95.9721 194.467 97.3014 196.431C99.4201 199.563 104.521 195.196 106.207 193.643C107.628 192.333 108.659 190.375 109.2 188.632C109.704 187.008 109.784 185.573 109.317 185.051Z" fill="#F4CDA7"/>
<path d="M49.912 163.051C49.66 166.028 47.984 168.68 46.7867 171.392C45.388 174.561 45.2986 177.789 45.4426 181.192C45.5226 183.075 45.4653 184.997 44.7667 186.771C44.1693 188.292 42.828 189.571 42.6 191.223C42.2987 193.409 44.0053 195.733 44.472 197.845C44.936 199.94 45.2547 202.047 45.0333 204.199C44.6693 207.752 42.624 210.373 39.7107 212.289C36.6227 214.324 33.504 216.475 30.9853 219.208C28.2987 222.121 25.356 222.752 22.0214 220.537C19.4307 218.817 17.2586 216.111 14.0426 215.563C12.3626 215.276 10.6413 215.347 8.95332 215.113C4.08665 214.443 0.222653 209.043 2.75332 204.324C3.84265 202.292 6.09869 201.321 7.38802 199.448C9.54802 196.308 8.85731 192.367 8.78131 188.799C8.70398 185.109 10.2573 181.481 12.468 178.585C13.9933 176.587 16.0614 174.896 17.6627 172.893C19.5294 170.559 20.0786 167.988 20.7426 165.143C21.3493 162.547 22.9693 160.261 24.7146 158.299C26.9453 155.791 29.4347 153.635 32.8 152.957C38.6333 151.781 49.0573 154.284 49.892 161.496C49.952 162.021 49.9546 162.54 49.912 163.051Z" fill="#101C24"/>
<path d="M55.7719 368.057C55.7719 368.057 56.6106 370.499 61.6933 373.677C66.7733 376.856 68.1066 376.161 68.2213 377.351C68.336 378.54 47.0986 377.561 47.0986 377.561L47.4306 367.785C47.4306 367.785 55.7693 367.803 55.7719 368.057Z" fill="#101C24"/>
<path d="M27.6081 367.789C27.6081 367.789 28.5721 369.841 31.9935 373.156C35.0161 376.083 37.6867 375.456 37.4427 376.503C37.2081 377.508 19.2534 376.857 19.2534 376.857V367.789H27.6081Z" fill="#101C24"/>
<path d="M85.3784 24.388L67.9624 17.4266L74.1784 12.3573L82.1384 17.82L85.3784 24.388Z" fill="#10ADDA"/>
<path d="M84.5397 7.49998L85.3784 24.388L77.1651 16.9253L41.8237 4.58667L84.5397 7.49998Z" fill="#16B0EE"/>
<mask id="mask1_60_890" style="mask-type:luminance" maskUnits="userSpaceOnUse" x="41" y="0" width="49" height="8">
<path d="M89.8677 -3.91155e-07L84.5397 7.5L41.8237 4.58669L89.8677 -3.91155e-07Z" fill="white"/>
</mask>
<g mask="url(#mask1_60_890)">
<path d="M89.8677 -3.91155e-07L84.5397 7.5L41.8237 4.58669L89.8677 -3.91155e-07Z" fill="url(#paint0_linear_60_890)"/>
</g>
<mask id="mask2_60_890" style="mask-type:luminance" maskUnits="userSpaceOnUse" x="41" y="4" width="37" height="26">
<path d="M77.1651 16.9253L69.7784 29.0427L41.8237 4.58668L77.1651 16.9253Z" fill="white"/>
</mask>
<g mask="url(#mask2_60_890)">
<path d="M77.1651 16.9253L69.7784 29.0427L41.8237 4.58668L77.1651 16.9253Z" fill="url(#paint1_linear_60_890)"/>
</g>
<path d="M224.724 288.803H224.932C224.932 288.803 227.889 288.361 230.743 286.753L230.768 286.805V290.981C230.768 290.981 229.964 294.949 225.087 296.065C220.237 294.949 219.407 290.955 219.407 290.955V287.116L219.459 287.039C222.131 288.413 224.724 288.803 224.724 288.803Z" fill="#F4CDA7"/>
<path d="M224.932 288.803H224.724C224.724 288.803 222.131 288.413 219.459 287.039C216.891 285.768 214.271 283.615 213.752 280.112C213.752 280.112 210.769 278.816 210.821 276.377C210.872 273.937 213.467 274.588 213.467 274.588C213.467 274.588 211.313 266.909 215.36 261.255C219.407 255.573 224.595 257.337 224.595 257.337H225.009C225.009 257.337 230.223 255.573 234.271 261.255C238.343 266.909 236.164 274.588 236.164 274.588C236.164 274.588 238.757 273.937 238.809 276.377C238.861 278.816 235.904 280.112 235.904 280.112C235.412 283.381 233.103 285.456 230.743 286.753C227.889 288.361 224.932 288.803 224.932 288.803Z" fill="#F4CDA7"/>
<path d="M249.912 349.657L249.964 349.813C238.395 354.352 226.125 361.797 225.087 362.42C224.051 361.797 211.807 354.379 200.237 349.813L200.289 349.657V338.788V332.563H202.961H224.932H225.269H247.215H249.912V338.788V349.657Z" fill="#D0E8EC"/>
<path d="M200.289 349.657L200.237 349.813C198.057 348.957 195.88 348.205 193.83 347.608C188.616 343.38 181.482 337.232 180.678 334.587C180.029 332.511 182.832 326.44 186.385 319.8L186.437 319.827L198.11 326.415C196.528 329.269 195.178 332.019 195.438 332.719C195.982 334.327 200.212 338.788 200.212 338.788H200.289V349.657Z" fill="#F4CDA7"/>
<path d="M249.912 349.657V338.788H249.991C249.991 338.788 254.192 334.327 254.763 332.719C255.023 332.019 253.673 329.269 252.091 326.415L263.764 319.827L263.816 319.8C267.369 326.44 270.171 332.511 269.523 334.587C268.719 337.207 261.611 343.353 256.397 347.583C254.348 348.179 252.168 348.932 249.964 349.813L249.912 349.657Z" fill="#F4CDA7"/>
<path d="M224.932 332.563H202.961V332.148C203.22 327.841 202.649 318.764 202.649 318.764C202.649 318.764 200.16 322.707 198.111 326.415L186.437 319.827L186.385 319.8C190.017 312.952 194.479 305.483 196.813 301.175C201.431 292.667 219.407 290.955 219.407 290.955C219.407 290.955 220.237 294.949 225.087 296.065C229.964 294.949 230.768 290.981 230.768 290.981C230.768 290.981 248.771 292.667 253.388 301.175C255.723 305.483 260.184 312.952 263.816 319.8L263.764 319.827L252.091 326.415C250.041 322.707 247.552 318.764 247.552 318.764C247.552 318.764 246.981 327.841 247.215 332.148V332.563H225.269H224.932Z" fill="black"/>
<path d="M211.889 271.513C211.729 271.272 211.096 270.271 211.176 268.843C211.28 266.989 212.499 265.987 212.645 265.869C212.589 265.744 212.319 265.104 212.52 264.357C212.699 263.692 213.183 263.193 213.779 263.047C213.732 262.875 213.321 261.309 214.115 259.972C214.809 258.803 216.136 258.297 217.389 258.763C217.479 257.192 218.272 255.809 219.447 255.184C221.095 254.305 222.599 255.393 222.721 255.487C222.739 255.437 223.061 254.568 223.855 254.428C224.377 254.335 224.9 254.597 225.225 255.101C225.552 254.597 226.075 254.335 226.597 254.428C227.389 254.568 227.713 255.437 227.731 255.487C227.853 255.393 229.357 254.305 231.005 255.184C232.18 255.809 232.973 257.192 233.063 258.763C234.317 258.297 235.643 258.803 236.337 259.972C237.132 261.309 236.721 262.875 236.673 263.047C237.269 263.193 237.753 263.692 237.932 264.357C238.133 265.104 237.861 265.744 237.805 265.869C237.955 265.987 239.172 266.989 239.276 268.843C239.356 270.271 238.723 271.272 238.561 271.513C239.048 271.896 239.255 272.628 239.065 273.277C238.883 273.907 238.368 274.321 237.805 274.285C237.684 274.423 237.497 274.6 237.24 274.739C237.067 274.832 236.907 274.885 236.777 274.916C236.604 274.845 236.2 274.652 235.917 274.16C235.359 273.192 235.811 272.021 235.833 271.968C235.653 271.751 234.552 270.384 234.784 268.665C234.836 268.273 234.949 267.937 235.077 267.659C234.856 267.564 233.52 266.965 233.084 265.389C232.951 264.913 232.937 264.472 232.957 264.129C232.544 264.413 232.056 264.416 231.697 264.129C231.4 263.892 231.292 263.533 231.257 263.399C230.959 263.588 230.195 264.008 229.179 263.903C228.116 263.793 227.403 263.171 227.143 262.92C227.143 262.92 226.849 264.024 225.252 264.049V264.053L225.225 264.052L225.2 264.053V264.049C223.603 264.024 223.309 262.92 223.309 262.92C223.049 263.171 222.335 263.793 221.273 263.903C220.256 264.008 219.493 263.588 219.195 263.399C219.161 263.533 219.052 263.892 218.753 264.129C218.396 264.416 217.908 264.413 217.495 264.129C217.516 264.472 217.5 264.913 217.368 265.389C216.933 266.965 215.596 267.564 215.375 267.659C215.503 267.937 215.615 268.273 215.668 268.665C215.9 270.384 214.799 271.751 214.619 271.968C214.64 272.021 215.093 273.192 214.535 274.16C214.251 274.652 213.848 274.845 213.675 274.916C213.545 274.885 213.385 274.832 213.212 274.739C212.955 274.6 212.768 274.423 212.645 274.285C212.084 274.321 211.569 273.907 211.387 273.277C211.197 272.628 211.404 271.896 211.889 271.513Z" fill="#101C24"/>
<path d="M246.361 379.157C246.361 379.157 186.688 373.869 180.645 360.877C176.192 351.303 185.63 343.655 196.508 347.432C207.385 351.208 246.513 370.393 246.513 370.393L246.361 379.157Z" fill="#0D171C"/>
<path d="M250.179 371.913V379.648C250.179 379.648 260.385 380.327 261.044 379.184C261.703 378.043 262.493 373.915 259.903 371.939C257.312 369.964 250.992 369.867 250.179 371.913Z" fill="#0D171C"/>
<path d="M246.251 370.393L250.253 371.868V379.572L246.099 379.157L246.251 370.393Z" fill="#F4CDA7"/>
<path d="M203.839 379.157C203.839 379.157 263.513 373.869 269.556 360.877C274.009 351.303 264.571 343.655 253.693 347.432C242.816 351.208 203.688 370.393 203.688 370.393L203.839 379.157Z" fill="#101C24"/>
<path d="M203.835 370.393L199.832 371.868V379.572L203.985 379.157L203.835 370.393Z" fill="#F4CDA7"/>
<path d="M199.907 371.913V379.648C199.907 379.648 189.699 380.327 189.04 379.184C188.383 378.043 187.592 373.915 190.183 371.939C192.773 369.964 199.093 369.867 199.907 371.913Z" fill="#101C24"/>
<path d="M91.3226 31.0613C90.2359 30.0227 89.2012 28.9053 88.2466 27.7373L89.3933 26.8C90.3093 27.9213 91.3025 28.9947 92.3452 29.9894L91.3226 31.0613ZM101.204 37.904C99.8359 37.2307 98.5106 36.488 97.2639 35.696L98.0559 34.4454C99.2586 35.208 100.539 35.9254 101.86 36.576L101.204 37.904ZM202.825 41.4894L202.792 40.008C204.128 39.9773 205.463 39.9613 206.793 39.9613H207.255L207.249 41.4413H206.793C205.473 41.4413 204.151 41.4587 202.825 41.4894ZM112.509 41.8827C111.02 41.5294 109.561 41.128 108.176 40.688L108.624 39.276C109.973 39.7054 111.396 40.0973 112.851 40.4413L112.509 41.8827ZM219.016 41.9774C217.553 41.8414 216.084 41.7334 214.612 41.6507L214.695 40.172C216.187 40.2547 217.672 40.364 219.153 40.504L219.016 41.9774ZM191.029 42.0814L190.923 40.604C192.405 40.496 193.887 40.3987 195.367 40.3134L195.453 41.792C193.979 41.8774 192.505 41.9747 191.029 42.0814ZM179.175 42.6534L179.115 41.1747L183.553 40.9933L183.613 42.472L179.175 42.6534ZM167.336 43.132L167.277 41.6534L171.716 41.4747L171.776 42.9547L167.336 43.132ZM155.493 43.5774L155.441 42.0973L159.879 41.936L159.935 43.416L155.493 43.5774ZM124.317 43.7027C122.787 43.5733 121.288 43.4107 119.864 43.2214L120.059 41.7534C121.46 41.94 122.936 42.1 124.443 42.2267L124.317 43.7027ZM230.629 43.7613C229.217 43.4507 227.763 43.168 226.304 42.924L226.549 41.4627C228.032 41.712 229.512 41.9987 230.947 42.3147L230.629 43.7613ZM143.645 43.952L143.605 42.472C145.084 42.4307 146.564 42.3867 148.044 42.3413L148.089 43.8227C146.609 43.868 145.128 43.9107 143.645 43.952ZM135.008 44.116C133.932 44.116 132.851 44.1054 131.764 44.0827L131.795 42.6027C132.871 42.6253 133.943 42.6347 135.008 42.636L136.217 42.632L136.228 44.112L135.008 44.116ZM241.856 47.1187C240.507 46.5974 239.112 46.1054 237.711 45.6587L238.161 44.2467C239.591 44.704 241.013 45.2053 242.389 45.7373L241.856 47.1187ZM252.453 52.16C251.183 51.452 249.869 50.7627 248.552 50.1107L249.208 48.784C250.548 49.4454 251.883 50.1467 253.173 50.8653L252.453 52.16ZM261.687 59.3134C260.559 58.3547 259.424 57.4107 258.284 56.4787L259.221 55.332C260.368 56.2707 261.511 57.2214 262.645 58.1854L261.687 59.3134ZM270.453 67.2147C269.391 66.192 268.313 65.184 267.225 64.188L268.224 63.096C269.323 64.1 270.409 65.1174 271.48 66.1494L270.453 67.2147ZM278.628 75.708C277.653 74.6067 276.659 73.52 275.645 72.4467L276.723 71.4307C277.747 72.5147 278.752 73.6133 279.737 74.7267L278.628 75.708ZM285.981 84.8973C285.147 83.732 284.257 82.544 283.337 81.3653L284.504 80.4534C285.437 81.648 286.34 82.8533 287.185 84.036L285.981 84.8973ZM292.223 94.8494C291.536 93.5774 290.801 92.292 290.033 91.0267L291.301 90.2587C292.08 91.5454 292.829 92.8534 293.525 94.148L292.223 94.8494ZM296.997 105.552C296.511 104.187 295.973 102.808 295.4 101.456L296.763 100.877C297.348 102.256 297.896 103.661 298.392 105.056L296.997 105.552ZM299.921 116.869C299.701 115.443 299.42 113.995 299.085 112.564L300.527 112.227C300.871 113.693 301.159 115.179 301.385 116.643L299.921 116.869ZM300.548 128.593L300.507 127.565C300.543 126.701 300.56 125.908 300.56 125.117C300.56 124.791 300.557 124.465 300.552 124.14L302.032 124.113C302.037 124.447 302.041 124.781 302.041 125.117C302.041 125.929 302.024 126.745 301.987 127.565L302.028 128.543L300.548 128.593ZM301.669 140.471L300.195 140.335C300.331 138.865 300.432 137.384 300.5 135.937L301.979 136.004C301.911 137.476 301.807 138.977 301.669 140.471ZM299.895 152.264L298.445 151.961C298.747 150.52 299.019 149.061 299.256 147.625L300.717 147.867C300.476 149.324 300.2 150.803 299.895 152.264ZM296.831 163.788L295.421 163.329C295.873 161.937 296.304 160.516 296.7 159.105L298.125 159.505C297.724 160.936 297.288 162.376 296.831 163.788ZM292.084 174.8L290.824 174.024C291.56 172.828 292.248 171.537 292.867 170.185L294.213 170.801C293.569 172.209 292.853 173.555 292.084 174.8ZM283.836 183.605L282.996 182.385C284.176 181.575 285.3 180.656 286.335 179.655L287.364 180.719C286.271 181.776 285.083 182.748 283.836 183.605ZM272.707 188.243L272.403 186.793C273.857 186.488 275.264 186.096 276.583 185.629L277.077 187.024C275.696 187.513 274.225 187.923 272.707 188.243Z" fill="#354D5A"/>
<defs>
<linearGradient id="paint0_linear_60_890" x1="41.8931" y1="6.00133" x2="90.0467" y2="3.60898" gradientUnits="userSpaceOnUse">
<stop stop-color="#2BA7E5"/>
<stop offset="1" stop-color="#2BA7E5"/>
</linearGradient>
<linearGradient id="paint1_linear_60_890" x1="42.4637" y1="17.4773" x2="77.1067" y2="15.7562" gradientUnits="userSpaceOnUse">
<stop stop-color="#2BA7E5"/>
<stop offset="1" stop-color="#2BA7E5"/>
</linearGradient>
</defs>
</svg>
