<svg width="50" height="50" viewBox="0 0 50 50" fill="none" xmlns="http://www.w3.org/2000/svg">
<path d="M39.5015 32.8195L41.985 19.7285C42.0311 19.5023 41.9698 19.2679 41.8203 19.0881C41.6746 18.9122 41.4565 18.8084 41.2225 18.8084H18.0935L17.4229 14.8341C17.2582 13.857 16.419 13.1519 15.4303 13.1519H10.5627C9.45112 13.1519 8.54297 14.0561 8.54297 15.1715C8.54297 16.2869 9.45112 17.1912 10.5627 17.1912H13.7245L17.0661 36.9511C17.2079 37.7984 17.8634 38.4458 18.6836 38.5992C17.875 39.1703 17.3462 40.109 17.3462 41.171C17.3462 42.9151 18.7638 44.3289 20.5077 44.3289C22.2476 44.3289 23.6656 42.9151 23.6656 41.171C23.6656 40.1326 23.1597 39.209 22.3778 38.6302H34.5881C33.8063 39.209 33.3007 40.1326 33.3007 41.171C33.3007 42.9151 34.7187 44.3289 36.4586 44.3289C38.2024 44.3289 39.6166 42.9151 39.6166 41.171C39.6166 40.1326 39.1106 39.209 38.333 38.6302H38.5321C39.6433 38.6302 40.5518 37.7259 40.5518 36.614C40.5518 35.4993 39.6433 34.5908 38.5321 34.5908H20.7645L20.5728 33.456H38.7387C39.1106 33.4557 39.4326 33.1879 39.5015 32.8195ZM20.508 42.7768C19.6224 42.7768 18.9025 42.0559 18.9025 41.171C18.9025 40.286 19.6227 39.5654 20.508 39.5654C21.3933 39.5654 22.1136 40.2857 22.1136 41.171C22.1136 42.0562 21.3933 42.7768 20.508 42.7768ZM36.4586 42.7768C35.5733 42.7768 34.8531 42.0559 34.8531 41.171C34.8531 40.286 35.5737 39.5654 36.4586 39.5654C37.3436 39.5654 38.0642 40.2857 38.0642 41.171C38.0642 42.0562 37.3439 42.7768 36.4586 42.7768ZM38.5321 36.1464C38.7886 36.1464 38.9959 36.3533 38.9959 36.6136C38.9959 36.8705 38.7886 37.0774 38.5321 37.0774H19.0555C18.8293 37.0774 18.634 36.9124 18.5953 36.6903L15.1467 16.2869C15.0848 15.9112 14.7593 15.6353 14.38 15.6353H10.5627C10.3061 15.6353 10.0989 15.4284 10.0989 15.1715C10.0989 14.9147 10.3061 14.7043 10.5627 14.7043H15.43C15.6597 14.7043 15.8511 14.8686 15.8898 15.0913L19.3427 35.4993C19.4042 35.8712 19.7301 36.1467 20.1055 36.1467L38.5321 36.1464ZM20.3089 31.9001L18.3582 20.3608H40.2837L38.0951 31.9001H20.3089Z" fill="#4A4A4A"/>
<path d="M26.05 11.8904H26.9163V16.7788C26.9163 17.2081 27.2688 17.555 27.6985 17.555H30.4268C30.8564 17.555 31.209 17.2081 31.209 16.7788V11.8904H32.0753C32.3508 11.8904 32.6115 11.7409 32.7498 11.5016C32.8184 11.3809 32.849 11.2465 32.849 11.1128C32.849 10.9784 32.8184 10.8443 32.7498 10.7254L29.7364 5.50976C29.5989 5.26804 29.3381 5.12061 29.0623 5.12061C28.7864 5.12061 28.5257 5.26839 28.3877 5.50976L25.3755 10.7254C25.2368 10.965 25.2368 11.262 25.3755 11.5016C25.5137 11.7412 25.7741 11.8904 26.05 11.8904ZM29.0623 7.45063L30.7255 10.3363H30.4264C29.9975 10.3363 29.6527 10.6832 29.6527 11.1125V16.0023H28.4722V11.1125C28.4722 10.6832 28.1277 10.3363 27.6985 10.3363H27.3994L29.0623 7.45063Z" fill="#4A4A4A"/>
</svg>
