<svg width="50" height="50" viewBox="0 0 50 50" fill="none" xmlns="http://www.w3.org/2000/svg">
<path d="M25 24C29.9706 24 34 19.9706 34 15C34 10.0294 29.9706 6 25 6C20.0294 6 16 10.0294 16 15C16 19.9706 20.0294 24 25 24Z" fill="#797979"/>
<path fill-rule="evenodd" clip-rule="evenodd" d="M42 41V43C42 43.552 41.552 44 41 44H9C8.448 44 8 43.552 8 43V41C8 37.022 9.58001 33.206 12.393 30.393C15.206 27.58 19.022 26 23 26H27C30.978 26 34.794 27.58 37.607 30.393C40.42 33.206 42 37.022 42 41Z" fill="#797979"/>
</svg>
