<svg width="20" height="20" viewBox="0 0 20 20" fill="none" xmlns="http://www.w3.org/2000/svg">
<path d="M19.6017 8.3915L10.7396 0.297811C10.3038 -0.0999155 9.65497 -0.0991403 9.22069 0.299361L0.396297 8.39344C-0.405685 9.1292 0.0911149 10.5135 1.15685 10.5135C1.79422 10.5135 2.31099 11.055 2.31099 11.7233V18.7902C2.31099 19.4585 2.82814 19.9996 3.46551 19.9996H7.51056V13.8062C7.51056 13.4282 7.80242 13.1224 8.16272 13.1224H11.8371C12.1974 13.1224 12.4897 13.4282 12.4897 13.8062V20H16.3313C16.969 20 17.4858 19.4588 17.4858 18.7905V11.7237C17.4858 11.0554 18.0025 10.5139 18.6399 10.5139H18.8434C19.9102 10.5131 20.4063 9.1261 19.6017 8.3915Z" fill="#15803D"/>
</svg>
