<svg width="20" height="20" viewBox="0 0 20 20" fill="none" xmlns="http://www.w3.org/2000/svg">
<path d="M5.07837 16.4528L10.3676 11.1635C10.5396 10.9915 10.7976 10.9915 10.9266 11.1635L13.5498 13.7866C13.7218 13.9587 13.9798 13.9587 14.1088 13.7866L15.0548 12.8406C15.2268 12.6686 15.4848 12.6686 15.6138 12.8406L20 17.2268V7.20735C20 6.82033 19.656 6.47632 19.269 6.47632H5.8094C5.42238 6.47632 5.07837 6.82033 5.07837 7.20735V16.4528ZM15.3988 9.35745C15.3988 9.31445 15.3988 9.27144 15.3988 9.22844V9.18544C15.3988 9.14244 15.3988 9.14244 15.4418 9.09944C15.4418 9.05643 15.4418 9.05643 15.4418 9.01343C15.4418 8.97043 15.4848 8.92743 15.4848 8.88443C15.4848 8.88443 15.4848 8.84143 15.5278 8.84143C15.5278 8.79842 15.5708 8.75542 15.5708 8.71242C15.5708 8.71242 15.5708 8.66942 15.6138 8.66942C15.6568 8.62642 15.6568 8.58341 15.6998 8.54041C15.7859 8.45441 15.8289 8.3684 15.9149 8.3254C15.9579 8.2824 16.0009 8.2824 16.0439 8.2394C16.0439 8.2394 16.0869 8.2394 16.0869 8.1964C16.1299 8.1964 16.1729 8.15339 16.2159 8.15339C16.2159 8.15339 16.2589 8.15339 16.2589 8.11039C16.3019 8.11039 16.3449 8.06739 16.3879 8.06739C16.4309 8.06739 16.4309 8.06739 16.4739 8.06739C16.5169 8.06739 16.5169 8.06739 16.5599 8.02439H16.6029C16.6459 8.02439 16.6889 8.02439 16.6889 8.02439C16.7319 8.02439 16.7319 8.02439 16.7749 8.02439C16.8179 8.02439 16.8179 8.02439 16.8609 8.02439C16.9039 8.02439 16.9469 8.02439 16.9899 8.02439H17.0329C17.0759 8.02439 17.0759 8.02439 17.1189 8.06739C17.1619 8.06739 17.1619 8.06739 17.2049 8.06739C17.2479 8.06739 17.2909 8.11039 17.3339 8.11039C17.3339 8.11039 17.3769 8.11039 17.3769 8.15339C17.4199 8.15339 17.4629 8.1964 17.5059 8.1964C17.5059 8.1964 17.5489 8.1964 17.5489 8.2394C17.5919 8.2824 17.6349 8.2824 17.6779 8.3254C17.7639 8.41141 17.8499 8.45441 17.8929 8.54041C17.9359 8.58341 17.9359 8.62642 17.979 8.66942C17.979 8.66942 17.979 8.71242 18.022 8.71242C18.022 8.75542 18.065 8.79842 18.065 8.84143C18.065 8.84143 18.065 8.88443 18.108 8.88443C18.108 8.92743 18.151 8.97043 18.151 9.01343C18.151 9.05643 18.151 9.05643 18.151 9.09944C18.151 9.14244 18.151 9.14244 18.194 9.18544V9.22844C18.194 9.27144 18.194 9.31445 18.194 9.31445C18.194 9.35745 18.194 9.35745 18.194 9.40045C18.194 9.44345 18.194 9.44345 18.194 9.48645C18.194 9.52946 18.194 9.57246 18.194 9.61546V9.65846C18.194 9.70146 18.194 9.70146 18.151 9.74447C18.151 9.78747 18.151 9.78747 18.151 9.83047C18.151 9.87347 18.108 9.91647 18.108 9.95948C18.108 9.95948 18.108 10.0025 18.065 10.0025C18.065 10.0455 18.022 10.0885 18.022 10.1315C18.022 10.1315 18.022 10.1745 17.979 10.1745C17.9359 10.2175 17.9359 10.2605 17.8929 10.3035C17.8069 10.3895 17.7639 10.4755 17.6779 10.5185C17.6349 10.5615 17.5919 10.5615 17.5489 10.6045C17.5489 10.6045 17.5059 10.6045 17.5059 10.6475C17.4629 10.6475 17.4199 10.6905 17.3769 10.6905C17.3769 10.6905 17.3339 10.6905 17.3339 10.7335C17.2909 10.7335 17.2479 10.7765 17.2049 10.7765C17.1619 10.7765 17.1619 10.7765 17.1189 10.7765C17.0759 10.7765 17.0759 10.7765 17.0329 10.8195H16.9899C16.9469 10.8195 16.9039 10.8195 16.8609 10.8195C16.8179 10.8195 16.8179 10.8195 16.7749 10.8195C16.7319 10.8195 16.7319 10.8195 16.6889 10.8195C16.6459 10.8195 16.6029 10.8195 16.5599 10.8195H16.5169C16.4739 10.8195 16.4739 10.8195 16.4309 10.7765C16.3879 10.7765 16.3879 10.7765 16.3449 10.7765C16.3019 10.7765 16.2589 10.7335 16.2159 10.7335C16.2159 10.7335 16.1729 10.7335 16.1729 10.6905C16.1299 10.6905 16.0869 10.6475 16.0439 10.6475C16.0439 10.6475 16.0009 10.6475 16.0009 10.6045C15.9579 10.5615 15.9149 10.5615 15.8719 10.5185C15.7859 10.4325 15.6998 10.3895 15.6568 10.3035C15.6138 10.2605 15.6138 10.2175 15.5708 10.1745C15.5708 10.1745 15.5708 10.1315 15.5278 10.1315C15.5278 10.0885 15.4848 10.0455 15.4848 10.0025C15.4848 10.0025 15.4848 9.95948 15.4418 9.95948C15.4418 9.91647 15.3988 9.87347 15.3988 9.83047C15.3988 9.78747 15.3988 9.78747 15.3988 9.74447C15.3988 9.70146 15.3988 9.70146 15.3558 9.65846V9.61546C15.3558 9.57246 15.3558 9.52946 15.3558 9.48645C15.3558 9.44345 15.3558 9.44345 15.3558 9.40045C15.3988 9.44345 15.3988 9.40045 15.3988 9.35745Z" fill="#15803D"/>
<path d="M4.4333 6.5623C4.4333 6.17529 4.77731 5.83127 5.16433 5.83127H15.2268L14.9688 3.63817L14.8398 2.64913C14.7968 2.26211 14.4097 1.96109 14.0227 2.0041L0.649126 3.76718C0.262108 3.81018 -0.0389052 4.1972 0.00409675 4.58421L0.0470987 4.79922L1.25115 13.7006L1.38016 14.6897C1.42316 15.0767 1.81018 15.3777 2.1972 15.3347L4.4763 15.0337V6.77731V6.5623H4.4333Z" fill="#15803D"/>
<path d="M19.269 17.1838L15.6998 13.6146C15.5278 13.4426 15.2698 13.4426 15.1408 13.6146L14.1948 14.5607C14.0228 14.7327 13.7648 14.7327 13.6358 14.5607L11.0126 11.9375C10.8406 11.7655 10.5826 11.7655 10.4536 11.9375L5.07837 17.1838V17.4418C5.07837 17.8288 5.42238 18.1728 5.8094 18.1728H9.76558H17.9359H18.323H19.312C19.57 18.1728 19.785 18.0438 19.914 17.8718L19.269 17.1838Z" fill="#15803D"/>
</svg>
