<svg width="20" height="20" viewBox="0 0 20 20" fill="none" xmlns="http://www.w3.org/2000/svg">
<mask id="mask0_33_95" style="mask-type:alpha" maskUnits="userSpaceOnUse" x="0" y="0" width="20" height="20">
<rect width="20" height="20" fill="#D9D9D9"/>
</mask>
<g mask="url(#mask0_33_95)">
<path d="M13.9999 9.97138C13.8351 9.97157 13.6729 9.93104 13.5275 9.85341C13.3822 9.77578 13.2583 9.66345 13.1669 9.52639L10 4.77157L6.83212 9.52639C6.68493 9.74705 6.45612 9.90019 6.19601 9.95213C5.93591 10.0041 5.66583 9.95057 5.44517 9.80338C5.22452 9.65619 5.07138 9.42738 5.01943 9.16727C4.96749 8.90717 5.02099 8.63709 5.16818 8.41643L9.16804 2.41665C9.26478 2.28731 9.39035 2.18231 9.53477 2.10998C9.67919 2.03766 9.83849 2 10 2C10.1615 2 10.3208 2.03766 10.4652 2.10998C10.6097 2.18231 10.7352 2.28731 10.832 2.41665L14.8318 8.41643C14.9323 8.56703 14.99 8.74208 14.9988 8.9229C15.0076 9.10372 14.9671 9.28354 14.8817 9.44316C14.7963 9.60279 14.6692 9.73623 14.5138 9.82926C14.3585 9.92228 14.1809 9.9714 13.9999 9.97138Z" fill="#15803D"/>
<path d="M18.9997 9.97142H1.00033C0.836922 9.97148 0.675988 9.9315 0.531611 9.85496C0.387233 9.77842 0.263813 9.66767 0.172148 9.53239C0.0804825 9.39712 0.0233664 9.24144 0.00579692 9.07897C-0.0117726 8.91651 0.0107401 8.75222 0.0713649 8.60047L2.07129 3.60066C2.14549 3.41494 2.27366 3.25574 2.43926 3.14362C2.60486 3.0315 2.80027 2.97161 3.00026 2.97168H9.33002C9.57759 2.97178 9.81631 3.06371 10 3.22967C10.1837 3.06371 10.4224 2.97178 10.67 2.97168H16.9997C17.1997 2.97161 17.3951 3.0315 17.5607 3.14362C17.7263 3.25574 17.8545 3.41494 17.9287 3.60066L19.9286 8.60047C19.9893 8.75222 20.0118 8.91651 19.9942 9.07897C19.9766 9.24144 19.9195 9.39712 19.8279 9.53239C19.7362 9.66767 19.6128 9.77842 19.4684 9.85496C19.324 9.9315 19.1631 9.97148 18.9997 9.97142ZM2.47728 7.9715H17.5227L16.3228 4.97161H10.67C10.4224 4.97151 10.1837 4.87958 10 4.71362C9.81631 4.87958 9.57759 4.97151 9.33002 4.97161H3.67723L2.47728 7.9715Z" fill="#15803D"/>
<path d="M17.9997 17.9711H2.00027C1.73506 17.9711 1.48072 17.8658 1.29319 17.6782C1.10566 17.4907 1.00031 17.2364 1.00031 16.9712V8.97146C1.00031 8.70625 1.10566 8.45191 1.29319 8.26438C1.48072 8.07685 1.73506 7.9715 2.00027 7.9715C2.26548 7.9715 2.51982 8.07685 2.70735 8.26438C2.89488 8.45191 3.00023 8.70625 3.00023 8.97146V15.9712H16.9997V8.97146C16.9997 8.70625 17.1051 8.45191 17.2926 8.26438C17.4801 8.07685 17.7345 7.9715 17.9997 7.9715C18.2649 7.9715 18.5192 8.07685 18.7068 8.26438C18.8943 8.45191 18.9996 8.70625 18.9996 8.97146V16.9712C18.9996 17.2364 18.8943 17.4907 18.7068 17.6782C18.5192 17.8658 18.2649 17.9711 17.9997 17.9711Z" fill="#15803D"/>
<path d="M7.00009 17.9711C6.73488 17.9711 6.48053 17.8658 6.293 17.6782C6.10548 17.4907 6.00012 17.2364 6.00012 16.9712V8.97146C6.00012 8.70625 6.10548 8.45191 6.293 8.26438C6.48053 8.07685 6.73488 7.9715 7.00009 7.9715C7.26529 7.9715 7.51964 8.07685 7.70717 8.26438C7.8947 8.45191 8.00005 8.70625 8.00005 8.97146V16.9712C8.00005 17.2364 7.8947 17.4907 7.70717 17.6782C7.51964 17.8658 7.26529 17.9711 7.00009 17.9711Z" fill="#15803D"/>
<path d="M12.9999 17.9711C12.7347 17.9711 12.4804 17.8658 12.2928 17.6782C12.1053 17.4907 11.9999 17.2364 11.9999 16.9712V8.97146C11.9999 8.70625 12.1053 8.45191 12.2928 8.26438C12.4804 8.07685 12.7347 7.9715 12.9999 7.9715C13.2651 7.9715 13.5195 8.07685 13.707 8.26438C13.8945 8.45191 13.9999 8.70625 13.9999 8.97146V16.9712C13.9999 17.2364 13.8945 17.4907 13.707 17.6782C13.5195 17.8658 13.2651 17.9711 12.9999 17.9711Z" fill="#15803D"/>
<path d="M10 12.9713C9.83537 12.9729 9.67288 12.9335 9.52729 12.8565C9.3817 12.7796 9.25761 12.6675 9.16626 12.5305C9.07492 12.3935 9.01919 12.2358 9.00414 12.0718C8.98909 11.9078 9.01519 11.7427 9.08007 11.5913C9.1284 11.4689 9.19967 11.3569 9.29007 11.2613C9.48345 11.0829 9.73692 10.9838 10 10.9838C10.2632 10.9838 10.5166 11.0829 10.71 11.2613C10.7983 11.3586 10.8693 11.4702 10.92 11.5913C10.9979 11.7732 11.0196 11.9742 10.9821 12.1685C10.9447 12.3628 10.8499 12.5414 10.71 12.6813C10.6126 12.7693 10.501 12.8403 10.38 12.8913C10.2598 12.9425 10.1307 12.9697 10 12.9713Z" fill="#15803D"/>
</g>
</svg>
