<svg width="20" height="20" viewBox="0 0 20 20" fill="none" xmlns="http://www.w3.org/2000/svg">
<path d="M18.5166 5.82069C18.4371 4.71724 17.8808 3.77931 17.0596 3.2C16.9272 1.4069 15.4967 0 13.7483 0H6.22517C4.47682 0 3.04636 1.4069 2.91391 3.2C2.09271 3.77931 1.53642 4.71724 1.45695 5.82069C0.582781 6.42759 0 7.50345 0 8.68966V16.5517C0 18.4552 1.48344 20 3.31126 20H16.6887C18.5166 20 20 18.4552 20 16.5517V8.66207C19.9735 7.47586 19.3907 6.42759 18.5166 5.82069ZM6.22517 1.35172H13.7748C14.596 1.35172 15.3113 1.87586 15.6026 2.62069C15.4702 2.5931 15.3642 2.5931 15.2318 2.5931H4.76821C4.63576 2.5931 4.5298 2.5931 4.39735 2.62069C4.68874 1.87586 5.40397 1.35172 6.22517 1.35172ZM4.76821 3.97241H15.2318C16.053 3.97241 16.7682 4.49655 17.0596 5.24138C16.9272 5.21379 16.8212 5.21379 16.6887 5.21379H3.31126C3.17881 5.21379 3.07285 5.21379 2.9404 5.24138C3.23179 4.49655 3.94702 3.97241 4.76821 3.97241ZM7.15232 9.48966C7.15232 9.07586 7.60265 8.8 7.94702 9.02069L13.351 12.2759C13.6954 12.4966 13.6954 13.0207 13.351 13.2414L7.94702 16.469C7.60265 16.6897 7.15232 16.4138 7.15232 16V9.48966Z" fill="#15803D"/>
</svg>
