<svg width="20" height="20" viewBox="0 0 20 20" fill="none" xmlns="http://www.w3.org/2000/svg">
<path d="M11.1647 14.0808V13.2413C11.1647 12.6747 11.5845 12.192 12.1511 12.0871C11.8153 11.6254 11.8783 10.9958 12.277 10.576L12.4449 10.4081H9.38091C9.17104 11.0797 8.54145 11.5624 7.80693 11.5624H6.88353C6.14901 11.5624 5.51942 11.0797 5.30955 10.4081H0.797485V14.4585C0.797485 14.8363 1.11228 15.1511 1.51102 15.1511H11.9203C11.4795 14.9832 11.1647 14.5634 11.1647 14.0808Z" fill="#15803D"/>
<path d="M6.88353 8.24659H7.80693C8.62539 8.24659 9.31794 8.85519 9.44386 9.63169H13.9769C14.3757 9.63169 14.6905 9.31689 14.6905 8.91815V5.7702C14.6905 5.37146 14.3757 5.05666 13.9769 5.05666H9.75866V4.42707C9.75866 3.65058 9.12907 3 8.33158 3H6.35887C5.58237 3 4.93179 3.62959 4.93179 4.42707V5.05666H0.713536C0.314795 5.05666 0 5.37146 0 5.7702V8.91815C0 9.31689 0.314795 9.63169 0.713536 9.63169H5.24659C5.37251 8.85519 6.06506 8.24659 6.88353 8.24659ZM5.87618 4.46905C5.87618 4.21721 6.08604 4.00734 6.33788 4.00734H8.3106C8.56243 4.00734 8.7723 4.21721 8.7723 4.46905V5.09864H5.87618V4.46905Z" fill="#15803D"/>
<path d="M6.88355 9.02307C6.37988 9.02307 5.98114 9.42181 5.98114 9.92548C5.98114 10.4292 6.37988 10.8279 6.88355 10.8279H7.80695C8.31063 10.8279 8.70937 10.4292 8.70937 9.92548C8.70937 9.42181 8.31063 9.02307 7.80695 9.02307H6.88355Z" fill="#15803D"/>
<path d="M19.6012 12.8426L18.8667 12.7376C18.7828 12.5068 18.7408 12.4648 18.6569 12.234L19.0976 11.6463C19.2235 11.4785 19.2025 11.2686 19.0556 11.1217L18.447 10.5131C18.3001 10.3662 18.0902 10.3662 17.9223 10.4711L17.3347 10.9118C17.1039 10.8279 17.0619 10.7859 16.831 10.702L16.7261 9.96744C16.7051 9.77856 16.5372 9.63165 16.3274 9.63165H15.4879C15.299 9.63165 15.1311 9.77856 15.0892 9.96744L15.0052 10.7229C14.7744 10.8069 14.7324 10.8489 14.5016 10.9328L13.9139 10.4921C13.7461 10.3662 13.5362 10.3872 13.3893 10.5341L12.7807 11.1427C12.6338 11.2896 12.6338 11.4994 12.7387 11.6673L13.1794 12.2549C13.0955 12.4858 13.0535 12.5278 12.9696 12.7586L12.277 12.8426C12.0881 12.8636 11.9412 13.0314 11.9412 13.2413V14.0808C11.9412 14.2696 12.0881 14.4375 12.277 14.4795L13.0115 14.5844C13.0955 14.8153 13.1374 14.8573 13.2214 15.0881L12.7807 15.6757C12.6548 15.8436 12.6757 16.0535 12.8226 16.2004L13.4313 16.809C13.5782 16.9559 13.788 16.9559 13.9559 16.851L14.5435 16.4102C14.7744 16.4942 14.8164 16.5362 15.0472 16.6201L15.1521 17.3546C15.1731 17.5435 15.341 17.6904 15.5509 17.6904H16.3903C16.5792 17.6904 16.7471 17.5435 16.7891 17.3546L16.894 16.6201C17.1249 16.5362 17.1668 16.4942 17.3977 16.4102L17.9853 16.851C18.1532 16.9769 18.363 16.9559 18.51 16.809L19.1186 16.2004C19.2655 16.0535 19.2655 15.8436 19.1605 15.6757L18.7198 15.0881C18.8038 14.8573 18.8457 14.8153 18.9297 14.5844L19.6642 14.4795C19.8531 14.4585 20 14.2906 20 14.0808V13.2413C19.937 13.0314 19.7901 12.8636 19.6012 12.8426ZM15.9286 15.0671C15.1521 15.0671 14.5225 14.4375 14.5225 13.661C14.5225 12.8845 15.1521 12.2549 15.9286 12.2549C16.7051 12.2549 17.3347 12.8845 17.3347 13.661C17.3557 14.4375 16.7051 15.0671 15.9286 15.0671Z" fill="#15803D"/>
</svg>
