<svg width="20" height="20" viewBox="0 0 20 20" fill="none" xmlns="http://www.w3.org/2000/svg">
<mask id="mask0_33_104" style="mask-type:alpha" maskUnits="userSpaceOnUse" x="0" y="0" width="20" height="20">
<rect width="20" height="20" fill="#D9D9D9"/>
</mask>
<g mask="url(#mask0_33_104)">
<path d="M13.3675 5.59528H12.6139L12.5625 6.31313C12.5551 6.4176 12.4761 6.50027 12.3772 6.51655C12.2515 6.54752 12.1281 6.58846 12.0089 6.63754C11.8861 6.68872 11.7656 6.75093 11.6502 6.8218C11.5599 6.87718 11.4457 6.86064 11.3746 6.78794L10.8446 6.32836L10.3108 6.86222L10.7822 7.40631C10.8478 7.48243 10.853 7.59056 10.8013 7.67088C10.7323 7.78374 10.6709 7.9029 10.6202 8.026C10.5685 8.15172 10.5263 8.28007 10.4953 8.41025C10.4725 8.50658 10.3895 8.57324 10.2956 8.58007L9.57771 8.63177V9.38532L10.2953 9.43702C10.4 9.44437 10.4824 9.52311 10.4987 9.62233C10.5294 9.74752 10.5706 9.87062 10.6202 9.99057C10.6712 10.1137 10.7331 10.2341 10.804 10.3496C10.8593 10.4397 10.8428 10.5541 10.7701 10.6252L10.3103 11.1557L10.8441 11.6895L11.3885 11.2176C11.4646 11.152 11.5725 11.1467 11.653 11.1982C11.7651 11.2669 11.8843 11.3278 12.0134 11.3816C12.1368 11.4318 12.2617 11.4722 12.3922 11.5032C12.4914 11.5268 12.5593 11.6139 12.563 11.7116L12.6139 12.4218H13.3675L13.4192 11.7042C13.4265 11.5995 13.5053 11.5168 13.6045 11.5005C13.7297 11.4701 13.8525 11.4292 13.978 11.3774C14.1042 11.3247 14.221 11.2646 14.3318 11.1963C14.4171 11.1439 14.525 11.1562 14.5961 11.2202L15.1376 11.689L15.6712 11.1551L15.1995 10.611C15.1349 10.5362 15.1292 10.4299 15.1782 10.3499C15.2489 10.2339 15.3108 10.1129 15.362 9.98952C15.4124 9.86826 15.4541 9.73991 15.4856 9.60737C15.509 9.50789 15.5964 9.44017 15.694 9.4365L16.404 9.38532V8.63177L15.6864 8.58059C15.5872 8.57351 15.5076 8.50238 15.4859 8.41025C15.4541 8.27744 15.4121 8.14883 15.3617 8.02731C15.3105 7.90395 15.2489 7.78348 15.1777 7.66799C15.1226 7.5777 15.1391 7.46353 15.2113 7.39266L15.6712 6.86222L15.1376 6.32836L14.5932 6.80001C14.5184 6.86484 14.4121 6.87061 14.3321 6.82127C14.2153 6.7504 14.0948 6.6882 13.9733 6.63781C13.8478 6.5861 13.7192 6.5441 13.5895 6.51287C13.4932 6.49004 13.4265 6.4071 13.4197 6.31313L13.3675 5.59528ZM2.06431 12.6761L2.86484 17.2496L10.873 18.1454C11.1864 18.1806 11.483 18.1701 11.7672 18.1129C12.0512 18.0557 12.3276 17.9507 12.6021 17.7966L19.6867 13.8218C19.8922 13.6961 19.9882 13.5095 19.999 13.3213C20.005 13.2131 19.9838 13.1021 19.9402 13.0005C19.8964 12.899 19.8305 12.8071 19.7483 12.7381C19.6053 12.6173 19.4048 12.5588 19.173 12.6202L12.9667 14.8667C12.7029 14.962 12.4441 15.0179 12.1822 15.0339C11.9223 15.0496 11.6593 15.0265 11.3853 14.9641L7.90133 14.1701C7.78191 14.1433 7.70684 14.0244 7.73361 13.905C7.76038 13.7859 7.87928 13.7105 7.9987 13.7373L11.4827 14.5313C11.7145 14.584 11.937 14.604 12.1559 14.5906C12.374 14.5775 12.5916 14.5299 12.8153 14.4491L12.9218 14.4105C13.0208 14.1948 13.0809 13.9428 13.0118 13.7037C12.9549 13.5063 12.8066 13.3063 12.5145 13.1255L7.67508 11.3544C7.2239 11.1895 6.77482 11.095 6.33308 11.0911C5.89555 11.0872 5.4588 11.1714 5.02704 11.3628L2.06431 12.6761ZM1.57717 12.4735L0 12.7496L0.906564 17.9284L2.48373 17.6523L1.57717 12.4735ZM16.0727 10.941C16.1772 10.9045 16.2809 10.8638 16.3832 10.8187C16.5457 10.7465 16.7027 10.6643 16.8512 10.573C16.9391 10.5194 17.0499 10.5341 17.1208 10.6024L18.0027 11.3662L18.9444 10.4244L18.1727 9.53387C18.1084 9.45933 18.1021 9.3533 18.1512 9.27324C18.2591 9.09687 18.3541 8.9113 18.4339 8.71891C18.5113 8.53151 18.5759 8.33413 18.6242 8.13072C18.6475 8.03125 18.7349 7.96353 18.8323 7.95986L19.9998 7.87613V6.54542L18.8247 6.4609C18.7202 6.45355 18.6376 6.37429 18.6213 6.27534C18.5738 6.08032 18.5103 5.88794 18.4313 5.6966C18.3512 5.50421 18.2578 5.32205 18.151 5.1483C18.0972 5.06064 18.1121 4.94988 18.1804 4.87901L18.9441 3.99685L18.0024 3.05486L17.1118 3.82704C17.0368 3.89161 16.9307 3.89738 16.8504 3.8483C16.6733 3.7399 16.4877 3.64489 16.2924 3.56378C16.1034 3.48609 15.9097 3.4231 15.7087 3.37559C15.6092 3.35197 15.5415 3.26483 15.5378 3.16719L15.4541 2H14.1231L14.0391 3.17481C14.0318 3.27953 13.9525 3.36221 13.853 3.37848C13.6578 3.42599 13.4656 3.48898 13.2746 3.56824C13.0838 3.64751 12.9021 3.74121 12.7273 3.84882C12.637 3.90394 12.5229 3.88741 12.452 3.81523L11.5748 3.05486L10.6331 3.99685L11.4047 4.88767C11.4696 4.96247 11.4754 5.06877 11.426 5.14883C11.331 5.30473 11.246 5.46615 11.1746 5.63045C11.132 5.72704 11.0935 5.82626 11.0588 5.92704L11.5591 6.36064C11.6491 6.31208 11.7425 6.26773 11.8386 6.22757C11.9336 6.18899 12.0307 6.15434 12.1305 6.12468L12.1843 5.3714C12.1851 5.24909 12.2848 5.14988 12.4071 5.14988H13.3381C13.5378 5.00867 13.7601 4.89581 13.9969 4.81733C14.2462 4.73544 14.5129 4.69029 14.7887 4.69029C15.483 4.69029 16.1126 4.97218 16.5691 5.42809C17.0268 5.8861 17.309 6.51602 17.309 7.21077C17.309 7.48584 17.2638 7.75303 17.1804 8.00395C17.1019 8.24122 16.9893 8.46222 16.8494 8.66091V9.59241C16.8489 9.70789 16.7596 9.80553 16.6426 9.81393L15.8759 9.86905C15.8462 9.96773 15.8113 10.0651 15.7722 10.1601C15.7323 10.2564 15.6877 10.3504 15.6386 10.4404L16.0727 10.941ZM12.9911 7.69398C13.3483 7.69398 13.6725 7.83623 13.915 8.07298C14.1583 8.31655 14.3055 8.64542 14.3055 9.00868C14.3055 9.37141 14.158 9.70054 13.9205 9.93834C13.6827 10.1761 13.3538 10.3236 12.9911 10.3236C12.6281 10.3236 12.299 10.1761 12.0614 9.93834C11.8236 9.70054 11.6761 9.37141 11.6761 9.00868C11.6761 8.65093 11.8184 8.32652 12.0551 8.08479C12.299 7.84122 12.6278 7.69398 12.9911 7.69398Z" fill="#15803D"/>
</g>
</svg>
