<svg width="20" height="20" viewBox="0 0 20 20" fill="none" xmlns="http://www.w3.org/2000/svg">
<g clip-path="url(#clip0_108_285)">
<path d="M13 6.66667C13.1847 6.66667 13.3333 6.81533 13.3333 7V9C13.3333 9.18467 13.1847 9.33333 13 9.33333C12.8153 9.33333 12.6667 9.18467 12.6667 9V7C12.6667 6.81533 12.8153 6.66667 13 6.66667ZM7 6.66667C7.18467 6.66667 7.33333 6.81533 7.33333 7V9C7.33333 9.18467 7.18467 9.33333 7 9.33333C6.81533 9.33333 6.66667 9.18467 6.66667 9V7C6.66667 6.81533 6.81533 6.66667 7 6.66667ZM6.33333 13.3333C5.99533 13.3333 5.898 13.7427 6.12333 13.9253C7.202 14.8287 8.59333 15.3333 10 15.3333C11.4067 15.3333 12.802 14.828 13.88 13.9253C14.2027 13.656 13.78 13.1387 13.4533 13.414C12.4973 14.214 11.2487 14.6673 10.0027 14.6673C8.756 14.6673 7.50667 14.214 6.552 13.414C6.492 13.3633 6.412 13.3333 6.33333 13.3333ZM10 0C4.48133 0 0 4.48133 0 10C0 15.5187 4.48133 20 10 20C15.5187 20 20 15.5187 20 10C20 4.48133 15.5187 0 10 0ZM10 0.666667C15.1587 0.666667 19.3333 4.84133 19.3333 10C19.3333 15.1587 15.1587 19.3333 10 19.3333C4.84133 19.3333 0.666667 15.1587 0.666667 10C0.666667 4.84133 4.84133 0.666667 10 0.666667Z" fill="black"/>
</g>
<defs>
<clipPath id="clip0_108_285">
<rect width="20" height="20" fill="white"/>
</clipPath>
</defs>
</svg>
