<svg width="20" height="20" viewBox="0 0 20 20" fill="none" xmlns="http://www.w3.org/2000/svg">
<g clip-path="url(#clip0_108_287)">
<path d="M16.3333 2.66667C16.63 2.66667 16.78 3.024 16.5667 3.23067L15.9067 3.892C15.5967 4.21667 15.1173 3.736 15.4413 3.42533L16.1013 2.76333C16.1627 2.69933 16.244 2.66667 16.3333 2.66667ZM3 2.66667C2.70333 2.66667 2.55333 3.024 2.76667 3.23067L3.42667 3.892C3.73667 4.21667 4.216 3.736 3.892 3.42533L3.232 2.76333C3.17133 2.7 3.09 2.66667 3 2.66667ZM17.3333 9.66667C17.3333 9.482 17.482 9.33333 17.6667 9.33333H19C19.1847 9.33333 19.3333 9.482 19.3333 9.66667C19.3333 9.85133 19.1847 10 19 10H17.6667C17.482 10 17.3333 9.85133 17.3333 9.66667ZM0 9.66667C0 9.482 0.148667 9.33333 0.333333 9.33333H1.66667C1.85133 9.33333 2 9.482 2 9.66667C2 9.85133 1.85133 10 1.66667 10H0.333333C0.148667 10 0 9.85133 0 9.66667ZM9.66667 17.3333C9.85133 17.3333 10 17.482 10 17.6667V19C10 19.1847 9.85133 19.3333 9.66667 19.3333C9.482 19.3333 9.33333 19.1847 9.33333 19V17.6667C9.33333 17.482 9.482 17.3333 9.66667 17.3333ZM9.66667 0C9.85133 0 10 0.148667 10 0.333333V1.66667C10 1.85133 9.85133 2 9.66667 2C9.482 2 9.33333 1.85133 9.33333 1.66667V0.333333C9.33333 0.148667 9.482 0 9.66667 0ZM9.66667 3.33333C6.17333 3.33333 3.33333 6.17333 3.33333 9.66667C3.33333 13.16 6.17333 16 9.66667 16C13.16 16 16 13.16 16 9.66667C16 6.17333 13.16 3.33333 9.66667 3.33333ZM9.66667 4C12.8 4 15.3333 6.53333 15.3333 9.66667C15.3333 12.8 12.8 15.3333 9.66667 15.3333C6.53333 15.3333 4 12.8 4 9.66667C4 6.53333 6.53333 4 9.66667 4ZM16.3333 16.6667C16.63 16.6667 16.78 16.3093 16.5667 16.1027L15.9067 15.4413C15.5967 15.1167 15.1173 15.5973 15.4413 15.908L16.1013 16.57C16.1627 16.634 16.244 16.6667 16.3333 16.6667ZM3 16.6667C2.70333 16.6667 2.55333 16.3093 2.76667 16.1027L3.42667 15.4413C3.73667 15.1167 4.216 15.5973 3.892 15.908L3.232 16.57C3.17067 16.634 3.08933 16.6667 3 16.6667Z" fill="black"/>
</g>
<defs>
<clipPath id="clip0_108_287">
<rect width="20" height="20" fill="white"/>
</clipPath>
</defs>
</svg>
