<svg width="20" height="20" viewBox="0 0 20 20" fill="none" xmlns="http://www.w3.org/2000/svg">
<g clip-path="url(#clip0_108_283)">
<path d="M4.32667 17.333C4.24 17.3357 4.158 17.371 4.098 17.433L3.43533 18.0957C3.11 18.409 3.59133 18.889 3.904 18.5644L4.56667 17.9017C4.78267 17.691 4.632 17.333 4.32667 17.333ZM2.32667 17.333C2.24 17.3357 2.158 17.371 2.098 17.433L1.43533 18.0957C1.11 18.409 1.59133 18.889 1.904 18.5644L2.56667 17.9017C2.78267 17.691 2.62467 17.333 2.32667 17.333ZM2.32667 15.333C2.24 15.3357 2.158 15.371 2.098 15.433L1.43533 16.0957C1.11 16.409 1.59133 16.889 1.904 16.5644L2.56667 15.9017C2.78267 15.691 2.628 15.333 2.32667 15.333ZM4.33333 12.6664C4.15 12.669 3.998 12.8164 4 12.9997V13.333C4 14.8017 5.198 15.9997 6.66667 15.9997H7C7.45333 15.9997 7.42667 15.333 7 15.333H6.66667C5.558 15.333 4.66667 14.4417 4.66667 13.333V12.9997C4.66867 12.8117 4.52 12.6637 4.33333 12.6664ZM14 3.33305C12.5313 3.33305 11.3333 4.53105 11.3333 5.99972C11.3333 7.46838 12.5313 8.66638 14 8.66638C15.4687 8.66638 16.6667 7.46838 16.6667 5.99972C16.6667 4.53105 15.4687 3.33305 14 3.33305ZM14 3.99972C15.1087 3.99972 16 4.89105 16 5.99972C16 7.10838 15.1087 7.99972 14 7.99972C12.8913 7.99972 12 7.10838 12 5.99972C12 4.89105 12.8913 3.99972 14 3.99972ZM18.2047 0.0150486C17.6593 -0.0216181 17.0113 0.0370486 16.294 0.180382C14.8593 0.467049 13.1427 1.09638 11.5007 2.04438C8.21333 3.94172 5.896 6.81972 4.03133 10.8597C3.69133 11.597 2.69133 12.7117 1.88933 13.135C1.488 13.347 1.196 13.371 1.02933 13.265C0.862 13.1597 0.666667 12.8184 0.666667 11.9997C0.666667 11.255 0.986667 10.015 1.43 9.00905C1.65133 8.50572 1.90333 8.05572 2.142 7.75238C2.38067 7.44772 2.602 7.33238 2.66667 7.33238C2.84267 7.33238 2.938 7.37905 3.02333 7.45638C3.11 7.53238 3.17933 7.64972 3.23 7.78305C3.32867 8.04772 3.33333 8.33238 3.33333 8.33238C3.32667 8.78305 4.00667 8.78305 4 8.33238C4 8.33238 4.00467 7.95038 3.85333 7.54838C3.77867 7.34838 3.662 7.13238 3.46667 6.95838C3.27067 6.78505 2.99067 6.66505 2.66667 6.66505C2.23133 6.66505 1.91133 6.96638 1.61867 7.33972C1.32533 7.71305 1.05733 8.19972 0.82 8.73972C0.346667 9.81705 0 11.077 0 11.9997C0 12.9224 0.208667 13.5344 0.672 13.8277C1.13533 14.121 1.69867 13.9904 2.20067 13.725C3.206 13.195 4.20733 12.069 4.636 11.1384C6.462 7.17972 8.68 4.44305 11.8333 2.62305C13.4113 1.71172 15.0733 1.10505 16.4247 0.835049C17.1 0.700382 17.698 0.650382 18.158 0.681715C18.618 0.712382 18.9247 0.836382 19.0447 0.956382C19.1647 1.07638 19.288 1.38172 19.3193 1.84172C19.3493 2.30172 19.2993 2.90038 19.1647 3.57505C18.8947 4.92705 18.288 6.58838 17.3767 8.16705C15.5567 11.3204 12.8193 13.5377 8.86 15.365C7.93067 15.7944 6.80467 16.795 6.27467 17.7997C6.00933 18.3017 5.878 18.8644 6.172 19.3277C6.46533 19.791 7.07867 19.9997 8 19.9997C8.922 19.9997 10.182 19.653 11.26 19.1797C11.798 18.9424 12.2867 18.673 12.6587 18.381C13.032 18.0877 13.3333 17.7677 13.3333 17.333C13.3333 17.009 13.2133 16.729 13.04 16.533C12.8667 16.3377 12.6513 16.221 12.4507 16.1464C12.0487 15.995 11.6667 15.9997 11.6667 15.9997C11.216 15.993 11.216 16.673 11.6667 16.6664C11.6667 16.6664 11.9513 16.671 12.216 16.7704C12.3493 16.8204 12.4667 16.8904 12.5427 16.977C12.6193 17.0617 12.6667 17.157 12.6667 17.333C12.6667 17.3977 12.5513 17.6197 12.2467 17.8577C11.9433 18.0964 11.4933 18.3484 10.9907 18.5697C9.984 19.013 8.744 19.333 8 19.333C7.18 19.333 6.84 19.1377 6.73467 18.971C6.628 18.8044 6.65267 18.511 6.86467 18.111C7.288 17.3077 8.40267 16.3084 9.13933 15.9684C13.1793 14.1037 16.0573 11.7864 17.9553 8.49972C18.9033 6.85772 19.532 5.14105 19.8187 3.70638C19.9613 2.98772 20.02 2.33972 19.9833 1.79505C19.946 1.25038 19.8233 0.793715 19.514 0.484382C19.2047 0.174382 18.7473 0.0523819 18.2033 0.0150486H18.2047Z" fill="black"/>
</g>
<defs>
<clipPath id="clip0_108_283">
<rect width="20" height="20" fill="white"/>
</clipPath>
</defs>
</svg>
