<svg width="50" height="50" viewBox="0 0 50 50" fill="none" xmlns="http://www.w3.org/2000/svg">
<rect x="6" y="2" width="38" height="38" fill="#8AD5B9"/>
<mask id="mask0_82_588" style="mask-type:alpha" maskUnits="userSpaceOnUse" x="0" y="0" width="50" height="50">
<rect width="50" height="50" fill="#D9D9D9"/>
</mask>
<g mask="url(#mask0_82_588)">
<path d="M14.3214 11.0045L10.75 23.5045C10.6852 23.7318 10.7132 23.9755 10.8279 24.1822C10.9425 24.3889 11.1345 24.5417 11.3616 24.6071C11.441 24.632 11.5239 24.6441 11.6071 24.6428C11.8009 24.6426 11.9893 24.5793 12.1439 24.4625C12.2986 24.3457 12.411 24.1818 12.4643 23.9955L16.0357 11.4955C16.087 11.2727 16.0509 11.0387 15.9347 10.8417C15.8186 10.6447 15.6313 10.4998 15.4115 10.4369C15.1917 10.3739 14.9561 10.3977 14.7533 10.5033C14.5505 10.6089 14.3959 10.7883 14.3214 11.0045Z" fill="black"/>
<path d="M26.5221 16.6611C26.3924 16.5496 26.2334 16.4777 26.0641 16.454C25.8947 16.4302 25.7221 16.4556 25.5668 16.5271C25.4116 16.5979 25.28 16.7116 25.1874 16.8548C25.0949 16.998 25.0453 17.1647 25.0444 17.3352V42.0539C25.0447 42.2033 25.0824 42.3502 25.1542 42.4813C25.2259 42.6123 25.3294 42.7232 25.4551 42.8039C25.5807 42.8848 25.7246 42.9329 25.8735 42.9439C26.0225 42.9548 26.1718 42.9282 26.3078 42.8664L31.4328 40.5227L33.7944 45.4334C33.8919 45.6486 34.0706 45.8164 34.2915 45.9C34.5124 45.9837 34.7575 45.9764 34.973 45.8798L41.8346 42.7548C41.9434 42.7066 42.0414 42.6372 42.123 42.5506C42.2046 42.464 42.268 42.362 42.3096 42.2505C42.3512 42.1391 42.3701 42.0204 42.3652 41.9016C42.3603 41.7827 42.3317 41.666 42.281 41.5584L39.9194 36.6432L45.0132 34.3128C45.1501 34.251 45.2691 34.1557 45.3594 34.0357C45.4496 33.9156 45.5081 33.7748 45.5295 33.6261C45.5509 33.4775 45.5344 33.3258 45.4816 33.1852C45.4288 33.0446 45.3414 32.9196 45.2275 32.8218L26.5221 16.6611ZM38.348 35.4111C38.2399 35.4604 38.1428 35.5309 38.0623 35.6183C37.9818 35.7057 37.9196 35.8082 37.8793 35.92C37.8394 36.0312 37.8221 36.1493 37.8282 36.2673C37.8343 36.3853 37.8638 36.501 37.915 36.6075L40.2632 41.4914L35.0266 43.8887L32.665 38.978C32.5635 38.7668 32.383 38.604 32.1625 38.5246C31.942 38.4453 31.6992 38.4558 31.4864 38.5539L26.8301 40.67V19.2861L43.0087 33.2593L38.348 35.4111Z" fill="black"/>
<path d="M45.4688 5H4.53125C3.32985 5.00118 2.178 5.47896 1.32848 6.32848C0.47896 7.178 0.0011819 8.32985 0 9.53125V25.4688C0.0011819 26.6701 0.47896 27.822 1.32848 28.6715C2.178 29.521 3.32985 29.9988 4.53125 30H22.3214C22.5582 30 22.7853 29.9059 22.9528 29.7385C23.1202 29.571 23.2143 29.3439 23.2143 29.1071C23.2143 28.8703 23.1202 28.6432 22.9528 28.4758C22.7853 28.3084 22.5582 28.2143 22.3214 28.2143H4.53125C3.80345 28.2131 3.1058 27.9235 2.59117 27.4088C2.07653 26.8942 1.78689 26.1965 1.78571 25.4688V9.53125C1.78689 8.80345 2.07653 8.1058 2.59117 7.59117C3.1058 7.07653 3.80345 6.78689 4.53125 6.78571H45.4688C46.1965 6.78689 46.8942 7.07653 47.4088 7.59117C47.9235 8.1058 48.2131 8.80345 48.2143 9.53125V25.4688C48.2131 26.1965 47.9235 26.8942 47.4088 27.4088C46.8942 27.9235 46.1965 28.2131 45.4688 28.2143C45.2319 28.2143 45.0048 28.3084 44.8374 28.4758C44.67 28.6432 44.5759 28.8703 44.5759 29.1071C44.5759 29.3439 44.67 29.571 44.8374 29.7385C45.0048 29.9059 45.2319 30 45.4688 30C46.6701 29.9988 47.822 29.521 48.6715 28.6715C49.521 27.822 49.9988 26.6701 50 25.4688V9.53125C49.9988 8.32985 49.521 7.178 48.6715 6.32848C47.822 5.47896 46.6701 5.00118 45.4688 5Z" fill="black"/>
<path d="M8.03544 15.7144C8.52855 15.7144 8.92829 15.3147 8.92829 14.8216C8.92829 14.3285 8.52855 13.9287 8.03544 13.9287C7.54232 13.9287 7.14258 14.3285 7.14258 14.8216C7.14258 15.3147 7.54232 15.7144 8.03544 15.7144Z" fill="black"/>
<path d="M8.03544 21.0709C8.52855 21.0709 8.92829 20.6711 8.92829 20.178C8.92829 19.6849 8.52855 19.2852 8.03544 19.2852C7.54232 19.2852 7.14258 19.6849 7.14258 20.178C7.14258 20.6711 7.54232 21.0709 8.03544 21.0709Z" fill="black"/>
<path d="M19.6784 11.0045L16.1069 23.5045C16.0422 23.7318 16.0702 23.9755 16.1848 24.1822C16.2995 24.3889 16.4914 24.5417 16.7185 24.6071C16.798 24.632 16.8809 24.6441 16.9641 24.6428C17.1578 24.6426 17.3463 24.5793 17.5009 24.4625C17.6555 24.3457 17.7679 24.1818 17.8212 23.9955L21.3927 11.4955C21.444 11.2727 21.4078 11.0387 21.2917 10.8417C21.1755 10.6447 20.9883 10.4998 20.7684 10.4369C20.5486 10.3739 20.313 10.3977 20.1102 10.5033C19.9074 10.6089 19.7528 10.7883 19.6784 11.0045Z" fill="black"/>
</g>
</svg>
