<svg width="20" height="20" viewBox="0 0 20 20" fill="none" xmlns="http://www.w3.org/2000/svg">
<g clip-path="url(#clip0_108_281)">
<path d="M14.1211 6.66667C13.857 6.66667 13.5945 6.70417 13.3561 6.86C13.1536 6.99333 13.0045 7.185 12.9186 7.40583C12.892 7.4725 12.8853 7.54417 12.8711 7.61417C12.8611 7.61 12.8545 7.60417 12.8436 7.60083C12.5811 7.5125 12.2911 7.47583 11.997 7.52833C11.7011 7.58083 11.4178 7.72167 11.2011 7.95667C10.9928 8.18333 10.8778 8.46667 10.8445 8.75417C10.8361 8.82583 10.8695 8.8875 10.872 8.95917C10.8495 8.95083 10.8336 8.93417 10.8103 8.92833C10.5586 8.85583 10.2853 8.83917 10.017 8.8975C9.74612 8.95583 9.49195 9.08917 9.29029 9.28917C9.09695 9.48333 8.97195 9.7275 8.90945 9.98583L7.29195 8.3725C7.14862 8.22917 6.99195 8.0725 6.80195 7.92833C6.61029 7.78333 6.39112 7.655 6.13779 7.57833C5.88362 7.50083 5.60695 7.47833 5.33195 7.53667C5.05695 7.595 4.80112 7.73167 4.59862 7.93417C4.39529 8.13833 4.25945 8.3925 4.20112 8.66917C4.14279 8.94417 4.16445 9.22083 4.24279 9.475C4.31779 9.7275 4.44695 9.9475 4.59279 10.1383C4.73612 10.3283 4.89279 10.485 5.03612 10.6283L11.0778 16.6667H9.58362C9.36862 16.6667 9.13362 16.6667 8.88529 16.7C8.63529 16.7333 8.37695 16.8033 8.13362 16.9333C7.88779 17.065 7.66695 17.2525 7.50862 17.4983C7.34779 17.745 7.25862 18.0342 7.25862 18.3333C7.25862 18.6333 7.34779 18.9217 7.50862 19.1683C7.66695 19.4142 7.88779 19.6017 8.13362 19.7333C8.37779 19.8633 8.63612 19.9333 8.88529 19.9667C9.13362 20 9.36862 20 9.58362 20H14.5836C15.147 20.0083 15.117 19.1667 14.5836 19.1667H9.58362C9.37029 19.1667 9.17362 19.1642 8.99779 19.1417C8.82279 19.1167 8.66112 19.0708 8.52695 19C8.39362 18.9283 8.28029 18.825 8.20695 18.7125C8.13362 18.6 8.09279 18.4625 8.09279 18.3333C8.09279 18.2033 8.13445 18.0667 8.20779 17.9542C8.28112 17.8408 8.39529 17.7375 8.52779 17.6675C8.66112 17.5967 8.82279 17.5508 8.99862 17.5258C9.17362 17.5033 9.37112 17.5008 9.58445 17.5008H12.0845C12.4553 17.5008 12.6345 17.0458 12.3795 16.7892L5.62779 10.0392C5.48612 9.8975 5.35695 9.76667 5.25695 9.635C5.15695 9.50417 5.08195 9.36833 5.04195 9.235C5.00029 9.10167 4.99195 8.96333 5.01695 8.84333C5.04362 8.72333 5.10612 8.60833 5.18945 8.52667C5.27279 8.44333 5.38695 8.38 5.50612 8.35417C5.62695 8.32917 5.76695 8.3375 5.89779 8.3775C6.03112 8.41917 6.16779 8.49417 6.29945 8.59417C6.43029 8.69417 6.56112 8.82167 6.70362 8.96417L9.70362 11.9642L10.1203 12.3808C10.4853 12.7592 11.0903 12.1558 10.712 11.7908L10.2953 11.3742C10.1536 11.235 10.0286 11.1058 9.93279 10.9775C9.83695 10.8492 9.76612 10.7142 9.72779 10.5817C9.69029 10.4508 9.68362 10.3133 9.70945 10.1933C9.73445 10.0725 9.79695 9.96 9.87779 9.88C9.95779 9.79917 10.0695 9.73833 10.1903 9.71167C10.3095 9.68667 10.447 9.6925 10.5778 9.73C10.7111 9.7675 10.8445 9.83833 10.9736 9.935C11.102 10.0308 11.2261 10.1617 11.3703 10.2967L11.8253 10.72C12.1961 11.0658 12.7503 10.5117 12.3728 10.1342C12.0378 9.79917 11.8361 9.5575 11.7278 9.27167C11.6745 9.13 11.6528 8.98167 11.6678 8.85167C11.6828 8.725 11.7378 8.60167 11.8128 8.52083C11.8895 8.4375 12.0111 8.3725 12.1411 8.35C12.2745 8.325 12.4261 8.34 12.5728 8.39C12.977 8.56 13.2011 8.79417 13.4528 9.04667C13.8503 9.44333 14.4136 8.76917 14.0428 8.45667C13.9395 8.37083 13.8561 8.24833 13.7903 8.17333C13.732 8.09 13.692 8.0025 13.677 7.925C13.6628 7.84833 13.6686 7.76917 13.6936 7.70833C13.717 7.64833 13.7628 7.59167 13.812 7.55833C13.8703 7.52 13.9661 7.495 14.0661 7.50167C14.1703 7.50833 14.2861 7.545 14.402 7.6075C14.6403 7.735 14.8686 7.95917 15.1211 8.21333L19.2878 12.38C19.6628 12.755 20.2503 12.1633 19.8778 11.79L15.7111 7.62333C15.4611 7.375 15.1845 7.08167 14.7961 6.87333C14.5986 6.76833 14.3853 6.66833 14.1211 6.66833V6.66667ZM3.73779 10C3.62945 10 3.52612 10.05 3.45112 10.1267L2.61779 10.96C2.24945 11.315 2.85112 11.9217 3.20779 11.5492L4.04112 10.7158C4.31612 10.4508 4.12279 9.99667 3.73779 9.99917V10ZM7.91695 5.83333C7.80862 5.83667 7.69195 5.87333 7.61695 5.95L6.78362 6.78333C6.42029 7.13333 6.98112 7.76667 7.37362 7.37333L8.20695 6.54C8.45445 6.29833 8.30695 5.83333 7.91695 5.83333ZM2.91695 5.83333C2.54195 5.83333 2.36362 6.28583 2.62195 6.53667L3.45529 7.37C3.83695 7.76667 4.41862 7.13917 4.04529 6.78083L3.21195 5.9475C3.13362 5.86667 3.02862 5.83333 2.91695 5.83333ZM1.66695 8.75C1.66695 8.51917 1.85279 8.33333 2.08362 8.33333H2.91695C3.14779 8.33333 3.33362 8.51917 3.33362 8.75C3.33362 8.98083 3.14779 9.16667 2.91695 9.16667H2.08362C1.85279 9.16667 1.66695 8.98083 1.66695 8.75ZM5.41695 5C5.64779 5 5.83362 5.18583 5.83362 5.41667V6.25C5.83362 6.48083 5.64779 6.66667 5.41695 6.66667C5.18612 6.66667 5.00029 6.48083 5.00029 6.25V5.41667C5.00029 5.18583 5.18612 5 5.41695 5ZM5.83529 16.25C5.83529 16.48 5.64862 16.6667 5.41862 16.6667C5.18779 16.6667 5.00195 16.48 5.00195 16.25C5.00195 16.02 5.18779 15.8333 5.41862 15.8333C5.64862 15.8333 5.83529 16.02 5.83529 16.25ZM4.58529 1.66667H6.25195C6.48279 1.66667 6.66862 1.8525 6.66862 2.08333C6.66862 2.31417 6.48279 2.5 6.25195 2.5H4.58529C4.35445 2.5 4.16862 2.31417 4.16862 2.08333C4.16862 1.8525 4.35445 1.66667 4.58529 1.66667ZM1.25195 0C0.566953 0 0.00195312 0.565 0.00195312 1.25V17.0833C0.00195312 17.7683 0.56612 18.3333 1.25195 18.3333H5.41862C5.98195 18.3417 5.98195 17.4917 5.41862 17.5H1.25195C1.01362 17.5 0.835286 17.3217 0.835286 17.0833V1.25C0.835286 1.01167 1.01362 0.833333 1.25195 0.833333H9.58529C9.82279 0.833333 10.002 1.01167 10.002 1.25V7.08333C9.99362 7.64667 10.8436 7.64667 10.8353 7.08333V1.25C10.8353 0.565 10.2703 0 9.58529 0H1.25195Z" fill="black"/>
</g>
<defs>
<clipPath id="clip0_108_281">
<rect width="20" height="20" fill="white"/>
</clipPath>
</defs>
</svg>
