<svg width="50" height="50" viewBox="0 0 50 50" fill="none" xmlns="http://www.w3.org/2000/svg">
<mask id="mask0_82_586" style="mask-type:alpha" maskUnits="userSpaceOnUse" x="0" y="0" width="50" height="50">
<path d="M0 0H50V50H0V0Z" fill="#D9D9D9"/>
</mask>
<g mask="url(#mask0_82_586)">
<rect x="11" y="6" width="34" height="39" fill="#8AD5B9"/>
<path d="M44.0308 50.0005H5.96848C5.25913 50.0005 4.6709 49.4123 4.6709 48.703V14.6198C4.6709 13.9105 5.25913 13.3223 5.96848 13.3223H44.0308C44.7402 13.3223 45.3284 13.9105 45.3284 14.6198V48.703C45.3284 49.4123 44.7402 50.0005 44.0308 50.0005ZM7.26606 47.4054H42.7332V15.9174H7.26606V47.4054Z" fill="black"/>
<path d="M36.7128 44.844C36.5052 44.844 36.3149 44.7748 36.1419 44.6364L33.2353 42.0931C32.872 41.7817 32.8374 41.228 33.1488 40.8647C33.4602 40.5014 34.0139 40.4668 34.3772 40.7782L36.7128 42.8197L38.9793 40.7955C39.3426 40.4841 39.8789 40.5014 40.2077 40.8647C40.5191 41.228 40.5018 41.7644 40.1385 42.0931L37.3011 44.6364C37.1281 44.7748 36.9205 44.844 36.7128 44.844Z" fill="black"/>
<path d="M39.5496 22.7854C39.342 22.7854 39.1516 22.7162 38.9786 22.5778L36.643 20.5362L34.3766 22.5604C34.0132 22.8719 33.4769 22.8546 33.1482 22.4912C32.8368 22.1279 32.8541 21.5916 33.2174 21.2629L36.0548 18.7196C36.3835 18.4255 36.8679 18.4255 37.1966 18.7196L40.1032 21.2629C40.4665 21.5743 40.5011 22.1279 40.1897 22.4912C40.034 22.6816 39.7918 22.7854 39.5496 22.7854Z" fill="black"/>
<path d="M29.6707 49.2038C29.1863 49.2038 28.8057 48.8232 28.8057 48.3387V14.619C28.8057 14.1345 29.1863 13.7539 29.6707 13.7539C30.1551 13.7539 30.5358 14.1345 30.5358 14.619V48.3387C30.5358 48.8232 30.1551 49.2038 29.6707 49.2038Z" fill="black"/>
<path d="M44.0308 15.917H5.96848C5.25913 15.917 4.6709 15.3287 4.6709 14.6194V1.29758C4.6709 0.588236 5.25913 0 5.96848 0H44.0308C44.7402 0 45.3284 0.588236 45.3284 1.29758V14.6194C45.3284 15.3287 44.7402 15.917 44.0308 15.917ZM7.26606 13.3218H42.7332V2.59516H7.26606V13.3218Z" fill="black"/>
<path d="M16.6955 26.3828H9.94806C9.46363 26.3828 9.08301 26.0022 9.08301 25.5177V18.7703C9.08301 18.2859 9.46363 17.9053 9.94806 17.9053H16.6955C17.1799 17.9053 17.5605 18.2859 17.5605 18.7703V25.5177C17.5605 25.9849 17.1626 26.3828 16.6955 26.3828ZM10.8131 24.6527H15.8304V19.6354H10.8131V24.6527Z" fill="black"/>
<path d="M12.8545 24.2377C12.6296 24.2377 12.4047 24.1512 12.2489 23.9782L11.3147 23.044C10.9687 22.6979 10.9687 22.1616 11.3147 21.8156C11.6607 21.4696 12.197 21.4696 12.5431 21.8156L12.7853 22.0578L14.1175 20.3623C14.4116 19.9817 14.9479 19.9125 15.3285 20.2066C15.7092 20.5007 15.7784 21.037 15.4842 21.4177L13.5465 23.8917C13.3908 24.082 13.1659 24.2031 12.9237 24.2204C12.8891 24.2377 12.8718 24.2377 12.8545 24.2377Z" fill="black"/>
<path d="M16.6955 36.2627H9.94806C9.46363 36.2627 9.08301 35.8821 9.08301 35.3976V28.6502C9.08301 28.1658 9.46363 27.7852 9.94806 27.7852H16.6955C17.1799 27.7852 17.5605 28.1658 17.5605 28.6502V35.3976C17.5605 35.8821 17.1626 36.2627 16.6955 36.2627ZM10.8131 34.5326H15.8304V29.5153H10.8131V34.5326Z" fill="black"/>
<path d="M12.8545 34.1342C12.6296 34.1342 12.4047 34.0477 12.2489 33.8747L11.3147 32.9404C10.9687 32.5944 10.9687 32.0581 11.3147 31.7121C11.6607 31.366 12.197 31.366 12.5431 31.7121L12.7853 31.9543L14.1175 30.2588C14.4116 29.8782 14.9479 29.809 15.3285 30.1031C15.7092 30.3972 15.7784 30.9335 15.4842 31.3141L13.5465 33.7882C13.3908 33.9785 13.1659 34.0996 12.9237 34.1169C12.8891 34.1342 12.8718 34.1342 12.8545 34.1342Z" fill="black"/>
<path d="M16.6955 45.8467H9.94806C9.46363 45.8467 9.08301 45.466 9.08301 44.9816V38.2342C9.08301 37.7498 9.46363 37.3691 9.94806 37.3691H16.6955C17.1799 37.3691 17.5605 37.7498 17.5605 38.2342V44.9816C17.5605 45.466 17.1626 45.8467 16.6955 45.8467ZM10.8131 44.1166H15.8304V39.0992H10.8131V44.1166Z" fill="black"/>
<path d="M12.8545 43.7192C12.6296 43.7192 12.4047 43.6327 12.2489 43.4597L11.3147 42.5254C10.9687 42.1794 10.9687 41.6431 11.3147 41.297C11.6607 40.951 12.197 40.951 12.5431 41.297L12.7853 41.5392L14.1175 39.8437C14.4116 39.4631 14.9479 39.3939 15.3285 39.688C15.7092 39.9822 15.7784 40.5185 15.4842 40.8991L13.5465 43.3732C13.3908 43.5635 13.1659 43.6846 12.9237 43.7019C12.8891 43.7192 12.8718 43.7192 12.8545 43.7192Z" fill="black"/>
<path d="M29.239 22.8893H19.7235C19.239 22.8893 18.8584 22.5087 18.8584 22.0242C18.8584 21.5398 19.239 21.1592 19.7235 21.1592H29.239C29.7235 21.1592 30.1041 21.5398 30.1041 22.0242C30.1041 22.5087 29.7235 22.8893 29.239 22.8893Z" fill="black"/>
<path d="M29.239 32.9918H19.7235C19.239 32.9918 18.8584 32.6112 18.8584 32.1268C18.8584 31.6423 19.239 31.2617 19.7235 31.2617H29.239C29.7235 31.2617 30.1041 31.6423 30.1041 32.1268C30.1041 32.6112 29.7235 32.9918 29.239 32.9918Z" fill="black"/>
<path d="M29.239 42.4215H19.7235C19.239 42.4215 18.8584 42.0409 18.8584 41.5565C18.8584 41.072 19.239 40.6914 19.7235 40.6914H29.239C29.7235 40.6914 30.1041 41.072 30.1041 41.5565C30.1041 42.0409 29.7235 42.4215 29.239 42.4215Z" fill="black"/>
<path d="M36.3839 10.9865C34.3596 10.9865 32.6987 9.34286 32.6987 7.30134C32.6987 5.25981 34.3423 3.61621 36.3839 3.61621C38.4254 3.61621 40.069 5.25981 40.069 7.30134C40.069 9.34286 38.4081 10.9865 36.3839 10.9865ZM36.3839 5.36362C35.3112 5.36362 34.4288 6.24597 34.4288 7.31864C34.4288 8.39131 35.3112 9.25636 36.3839 9.25636C37.4565 9.25636 38.3389 8.374 38.3389 7.30134C38.3389 6.22867 37.4565 5.36362 36.3839 5.36362Z" fill="black"/>
<path d="M40.4846 12.2829C40.2597 12.2829 40.0347 12.1964 39.879 12.0234L37.7683 9.9127C37.4223 9.56668 37.4223 9.03034 37.7683 8.68432C38.1143 8.3383 38.6507 8.3383 38.9967 8.68432L41.1074 10.7951C41.4534 11.1411 41.4534 11.6774 41.1074 12.0234C40.9344 12.1964 40.7095 12.2829 40.4846 12.2829Z" fill="black"/>
</g>
</svg>
