<svg width="50" height="50" viewBox="0 0 50 50" fill="none" xmlns="http://www.w3.org/2000/svg">
<mask id="mask0_82_587" style="mask-type:alpha" maskUnits="userSpaceOnUse" x="0" y="0" width="50" height="50">
<rect width="50" height="50" fill="#D9D9D9"/>
</mask>
<g mask="url(#mask0_82_587)">
<rect x="15" y="12" width="30" height="30" fill="#8AD5B9"/>
<path d="M42.0646 4.13421H34.5665V3.61349C34.5665 3.17641 34.2152 2.82188 33.782 2.82188H29.6267C28.9641 1.13285 27.3462 0 25.4995 0C23.6527 0 22.0348 1.13341 21.3722 2.82188H17.2174C16.7843 2.82188 16.4329 3.17641 16.4329 3.61349V4.13421H8.93543C7.31702 4.13421 6 5.46317 6 7.09625V47.038C6 48.6716 7.31702 50 8.93543 50H42.0646C43.6835 50 45 48.671 45 47.038V7.09625C45 5.46317 43.683 4.13421 42.0646 4.13421ZM17.2174 10.0489H33.782C34.2152 10.0489 34.5665 9.69432 34.5665 9.25725V8.73653H40.439V45.3971H10.561V8.73708H16.4335V9.2578C16.4335 9.69488 16.7843 10.0489 17.2174 10.0489ZM18.0019 4.4051H21.9448C22.3071 4.4051 22.6222 4.15471 22.7073 3.79907C23.0191 2.49449 24.1676 1.58267 25.5 1.58267C26.8324 1.58267 27.9809 2.49393 28.2927 3.79907C28.3778 4.15471 28.6929 4.4051 29.0552 4.4051H32.9981V8.46619H18.0019V4.4051ZM43.4315 47.038C43.4315 47.7986 42.8183 48.4173 42.0646 48.4173H8.93543C8.18167 48.4173 7.56845 47.7986 7.56845 47.038V7.09625C7.56845 6.33566 8.18167 5.71688 8.93543 5.71688H16.4335V7.15386H9.77703C9.34388 7.15386 8.99253 7.50839 8.99253 7.94547V46.1893C8.99253 46.6264 9.34388 46.9809 9.77703 46.9809H41.2235C41.6567 46.9809 42.008 46.6264 42.008 46.1893V7.94547C42.008 7.50839 41.6567 7.15386 41.2235 7.15386H34.5665V5.71688H42.0646C42.8183 5.71688 43.4315 6.33566 43.4315 7.09625V47.038ZM15.7165 14.4944H35.2829C35.7161 14.4944 36.0674 14.8489 36.0674 15.286C36.0674 15.7231 35.7161 16.0776 35.2829 16.0776H15.7165C15.2834 16.0776 14.932 15.7231 14.932 15.286C14.9326 14.8484 15.2834 14.4944 15.7165 14.4944ZM36.0674 20.8079C36.0674 21.245 35.7161 21.5995 35.2829 21.5995H15.7165C15.2834 21.5995 14.932 21.245 14.932 20.8079C14.932 20.3708 15.2834 20.0163 15.7165 20.0163H35.2829C35.7161 20.0163 36.0674 20.3708 36.0674 20.8079ZM36.0674 26.3298C36.0674 26.7669 35.7161 27.1214 35.2829 27.1214H15.7171C15.2839 27.1214 14.9326 26.7669 14.9326 26.3298C14.9326 25.8927 15.2839 25.5382 15.7171 25.5382H35.2835C35.7161 25.5382 36.0674 25.8927 36.0674 26.3298ZM24.5327 3.81679C24.5327 3.2789 24.9675 2.84071 25.5 2.84071C26.0331 2.84071 26.4673 3.27945 26.4673 3.81679C26.4673 4.35414 26.0331 4.79287 25.5 4.79287C24.9669 4.79287 24.5327 4.35469 24.5327 3.81679ZM29.0536 34.2464C29.3446 34.57 29.3209 35.0707 28.9998 35.3643L25.0021 39.0255C24.8522 39.1629 24.6633 39.231 24.475 39.231C24.2741 39.231 24.0732 39.1534 23.9206 38.9994L21.9722 37.0334C21.6659 36.7243 21.6659 36.2235 21.9722 35.9144C22.2785 35.6053 22.7748 35.6053 23.0812 35.9144L24.5014 37.3475L27.9463 34.1933C28.2669 33.8986 28.7626 33.9229 29.0536 34.2464ZM25.5 29.838C21.8004 29.838 18.7897 32.8754 18.7897 36.6091C18.7897 40.3428 21.7998 43.3796 25.5 43.3796C29.2002 43.3796 32.2103 40.3422 32.2103 36.6091C32.2097 32.8754 29.1996 29.838 25.5 29.838ZM25.5 41.7969C22.665 41.7969 20.3587 39.4697 20.3587 36.6091C20.3587 33.7484 22.665 31.4212 25.5 31.4212C28.335 31.4212 30.6413 33.7484 30.6413 36.6091C30.6413 39.4697 28.335 41.7969 25.5 41.7969Z" fill="black"/>
</g>
</svg>
