<svg width="121" height="42" viewBox="0 0 121 42" fill="none" xmlns="http://www.w3.org/2000/svg">
<path d="M71.0269 25.886C71.358 25.0941 71.6942 24.3021 72.0073 23.5024C72.382 24.2918 72.7311 25.0915 73.0879 25.8886C72.4 25.886 71.7121 25.886 71.0269 25.886Z" fill="white"/>
<path d="M15.8866 1.22092C16.7105 0.818649 17.4856 0.329342 18.3506 0C19.2207 0.291703 19.9753 0.809239 20.794 1.2021C20.812 2.07015 20.8017 2.9382 20.8094 3.80625C20.0061 4.26027 19.1693 4.66489 18.3326 5.06716C17.519 4.62254 16.6977 4.18734 15.8687 3.76626C15.8764 2.91938 15.8789 2.07015 15.8866 1.22092Z" fill="#006592"/>
<path d="M11.1249 8.97412C13.2167 7.89906 15.3008 6.81459 17.3644 5.69482C17.6698 5.81715 17.9752 5.93948 18.2781 6.06416C17.7237 8.35779 17.1975 10.6585 16.6226 12.9474C17.1257 13.7425 17.6441 14.5306 18.2165 15.2857C18.8094 14.5141 19.5819 13.8272 19.9798 12.9521C19.5049 10.6538 18.9454 8.36955 18.4193 6.08062C18.7196 5.95124 19.0199 5.82421 19.3201 5.69718C21.3221 6.84517 23.4396 7.83084 25.4082 9.02353C25.5109 11.5359 25.4082 14.0601 25.4416 16.5772C23.0803 17.8452 20.6522 19.0096 18.3115 20.3082C15.9271 19.0049 13.4913 17.7887 11.1172 16.4784C11.1198 13.9754 11.1223 11.4748 11.1249 8.97412Z" fill="#006592"/>
<path d="M5.21674 12.1865C5.91743 11.6407 6.75929 11.2502 7.59601 10.9067C8.54566 11.1349 9.32849 11.7301 10.1755 12.1676C10.1678 12.9722 10.1678 13.7791 10.1729 14.586C9.33362 15.0611 8.47123 15.5011 7.59601 15.9151C6.79265 15.4775 5.9816 15.0494 5.17824 14.6095C5.17567 13.8026 5.11921 12.991 5.21674 12.1865Z" fill="#70BDE8"/>
<path d="M26.2439 12.2064C27.0986 11.7735 27.9507 11.3383 28.8003 10.8984C29.6062 11.3266 30.4096 11.7571 31.218 12.1852C31.2283 13.0627 31.2232 13.9425 31.1257 14.8176C30.3095 15.1705 29.5703 15.6762 28.713 15.9421C27.8404 15.5821 27.0473 15.0834 26.2285 14.6388C26.2388 13.8272 26.2413 13.018 26.2439 12.2064Z" fill="#52A653"/>
<path d="M0.411258 19.8521C2.54413 18.763 4.6539 17.6385 6.78677 16.5493C7.04087 16.7022 7.29754 16.8528 7.5542 17.0057C7.0691 19.0288 6.62251 21.0613 6.12458 23.0844C5.71906 24.2912 6.97927 25.1969 7.49773 26.1967C8.11116 25.4415 8.72458 24.6841 9.33031 23.9242C8.76052 21.6565 8.30622 19.3652 7.72616 17.0998C7.99566 16.9163 8.26516 16.7328 8.53722 16.5493C10.5546 17.7585 12.785 18.6665 14.7305 19.9651C14.8922 21.1366 14.7741 22.3246 14.7998 23.5031C14.7716 24.7523 14.8896 26.0179 14.6561 27.2576C14.6047 27.5305 14.2428 27.6081 14.0401 27.7657C11.8815 28.8926 9.72557 30.017 7.56703 31.1391C5.19033 29.8382 2.76486 28.6126 0.408691 27.2788C0.444624 24.804 0.434358 22.3269 0.411258 19.8521Z" fill="#70BDE8"/>
<path d="M21.5803 19.9411C23.649 18.8261 25.7588 17.7769 27.848 16.6924C28.1021 16.81 28.3588 16.9277 28.6129 17.0453C28.2253 19.3554 27.5401 21.6161 27.0755 23.9168C27.5426 24.7378 28.0636 25.5305 28.6052 26.3116C29.1262 25.6129 29.7371 24.9707 30.235 24.2579C30.448 23.9803 30.3043 23.6321 30.2709 23.3287C29.8295 21.2538 29.3316 19.1907 28.8619 17.1206C29.1211 16.9724 29.3803 16.8265 29.6396 16.6807C31.7134 17.7745 33.8155 18.8284 35.8405 19.9905C36.0998 22.4441 35.8431 24.9307 35.9355 27.3984C33.5254 28.7157 31.0717 29.9625 28.636 31.2446C26.2952 29.9531 23.9262 28.7087 21.5649 27.4478C21.5187 24.9471 21.5983 22.4441 21.5803 19.9411Z" fill="#52A653"/>
<path d="M15.8114 23.0386C16.5686 22.5117 17.4156 22.0671 18.3036 21.7495C19.0608 22.093 19.764 22.5282 20.5366 22.8481C20.647 23.695 20.7727 24.556 20.6521 25.4099C19.9642 26.0192 19.0531 26.4967 18.1394 26.7437C17.2693 26.4356 16.507 25.9227 15.7165 25.4758C15.7473 24.6642 15.6523 23.8432 15.8114 23.0386Z" fill="#0098D2"/>
<path d="M16.9654 27.6704C17.3941 27.4093 17.8407 27.7668 18.2436 27.8892C17.5198 30.1428 17.1528 32.4764 16.4906 34.7442C17.0065 35.5346 17.5404 36.3179 18.0716 37.099C18.6209 36.3109 19.4422 35.6475 19.8016 34.7724C19.5269 32.4223 18.585 30.1522 18.4284 27.7927C18.875 27.4798 19.4345 27.5433 19.8657 27.8445C21.7009 28.8395 23.5463 29.8229 25.402 30.7874C25.3943 33.2904 25.3866 35.7934 25.3712 38.2987C23.2408 39.4443 21.0797 40.5429 18.952 41.6933C18.6055 41.8415 18.1948 42.1638 17.8201 41.9003C15.5461 40.717 13.3105 39.4726 11.0288 38.2987C11.0468 35.7792 11.057 33.2574 11.0776 30.7356C13.0513 29.7335 14.9866 28.6631 16.9654 27.6704Z" fill="#0098D2"/>
<path d="M40.0963 18.7715C40.7251 18.7715 41.3565 18.7741 41.9853 18.7766C41.9622 19.9723 41.9186 21.1731 41.993 22.3713C43.0941 22.3738 44.1926 22.3764 45.2937 22.379C45.4246 21.1833 45.4323 19.98 45.4529 18.7792C46.0817 18.7895 46.7131 18.7972 47.3445 18.8126C47.27 21.695 47.3393 24.58 47.27 27.4624C46.6566 27.4624 46.0406 27.465 45.4272 27.4701C45.2809 26.3593 45.3066 25.2382 45.3348 24.1197C44.2029 24.1172 43.071 24.1069 41.9391 24.1249C41.9443 25.2331 41.952 26.3439 41.9058 27.4521C41.2949 27.4495 40.6866 27.4495 40.0783 27.4521C40.0116 24.5594 40.0501 21.6642 40.0963 18.7715Z" fill="#0098D2"/>
<path d="M49.3825 18.7988C50.0267 18.804 50.6735 18.8091 51.3203 18.8194C51.3717 20.5627 51.328 22.306 51.3537 24.0468C51.2998 24.9802 52.1083 25.9084 53.0785 25.7927C54.0076 25.839 54.6954 24.9236 54.7185 24.0571C54.7596 22.3112 54.7596 20.5653 54.7827 18.8194C55.4321 18.8194 56.0814 18.8245 56.7308 18.8297C56.7564 20.4856 56.7872 22.1441 56.7616 23.8025C56.7282 25.0753 56.1559 26.4304 54.9957 27.0578C52.9835 28.2303 49.8394 27.248 49.421 24.7848C49.2003 22.7997 49.4082 20.7916 49.3825 18.7988Z" fill="#0098D2"/>
<path d="M58.6172 18.9619C59.4975 18.8025 60.3933 18.8179 61.2865 18.8333C62.0103 20.3735 62.6879 21.9317 63.4296 23.4616C64.4101 22.0037 64.9619 20.3118 65.8654 18.8076C66.6867 18.823 67.5054 18.823 68.3268 18.8179C68.3216 21.7054 68.3011 24.593 68.3088 27.4805C67.6492 27.4831 66.9895 27.4805 66.3299 27.4728C66.3453 25.7398 66.3684 24.0067 66.2889 22.2763C65.6241 23.7959 64.8079 25.2435 64.0995 26.7451C63.6812 26.74 63.2654 26.7349 62.8496 26.7271C62.136 25.2075 61.3378 23.729 60.6833 22.1837C60.614 23.9502 60.6217 25.7218 60.6115 27.4908C59.9595 27.4882 59.305 27.4857 58.6531 27.4831C58.6275 24.6418 58.7173 21.8006 58.6172 18.9619Z" fill="#0098D2"/>
<path d="M73.0242 18.9604C73.6427 18.9682 74.2613 18.9733 74.8799 18.9733C76.0887 21.8249 77.2566 24.6944 78.5578 27.5048C77.8803 27.5151 77.2027 27.5639 76.5302 27.4868C76.1093 26.9854 75.9604 26.3117 75.6858 25.7229C74.4795 25.7049 73.2757 25.6895 72.072 25.7306C71.8281 26.3246 71.574 26.9134 71.3148 27.4997C70.6218 27.4971 69.9288 27.4945 69.2358 27.4842C70.5038 24.6455 71.7075 21.776 73.0242 18.9604Z" fill="#0098D2"/>
<path d="M92.9433 19.0312C95.2174 19.0312 97.4914 19.0544 99.768 19.0492C99.7552 19.6381 99.7449 20.2269 99.7244 20.8157C98.9185 20.8029 98.1125 20.7977 97.3092 20.79C97.3143 23.0964 97.322 25.4003 97.2887 27.7042C96.6804 27.7093 96.0695 27.717 95.4612 27.7299C95.1866 25.4286 95.3996 23.0964 95.3611 20.7849C94.5629 20.7823 93.7647 20.7823 92.969 20.7874C92.9485 20.2012 92.9408 19.6175 92.9433 19.0312Z" fill="#0098D2"/>
<path d="M105.576 20.6088C106.777 19.0326 108.995 18.6186 110.815 19.1997C111.559 19.462 112.16 19.9942 112.771 20.4776C112.378 20.9533 111.98 21.4239 111.587 21.897C110.648 20.8248 108.949 20.3722 107.727 21.2259C106.156 22.2698 106.367 25.0082 108.086 25.7873C109.275 26.3504 110.597 25.7899 111.495 24.9568C111.908 25.3708 112.319 25.7848 112.729 26.2013C111.782 27.0627 110.625 27.8881 109.277 27.7955C107.319 27.9498 105.32 26.6333 104.814 24.7074C104.491 23.3215 104.634 21.735 105.576 20.6088Z" fill="#0098D2"/>
<path d="M114.1 20.4064C114.677 19.293 116.045 18.8764 117.226 19.0127C118.355 18.9304 119.369 19.4961 120.275 20.1029C119.941 20.5529 119.613 21.0029 119.289 21.4606C118.476 21.0697 117.639 20.5529 116.705 20.6249C115.971 20.6609 115.622 21.7871 116.335 22.1034C117.349 22.5919 118.566 22.6177 119.482 23.3273C120.668 24.1373 120.706 26.0786 119.651 27.0145C118.763 27.8553 117.441 27.9248 116.294 27.7654C115.216 27.6214 114.31 26.9683 113.44 26.364C113.843 25.8883 114.251 25.4126 114.654 24.9369C115.421 25.5206 116.261 26.0786 117.239 26.2072C117.932 26.2483 118.874 25.2789 118.057 24.7492C117.054 24.1039 115.732 24.163 114.767 23.4225C113.804 22.7848 113.668 21.4014 114.1 20.4064Z" fill="#0098D2"/>
<path d="M79.5508 27.5293C79.5764 24.6752 79.5405 21.8237 79.6175 18.9721C80.3182 19.0878 81.3089 18.6841 81.7504 19.435C82.9824 21.1397 84.2836 22.7905 85.531 24.4824C85.5952 22.6645 85.5798 20.844 85.5439 19.0261C86.2112 19.0107 86.8785 19.0056 87.5484 19.003C87.533 21.852 87.5279 24.7035 87.5253 27.5525C86.8631 27.5576 86.2035 27.5602 85.5439 27.5679C84.1476 25.8554 82.9054 24.0195 81.4989 22.3122C81.4578 24.053 81.4732 25.7937 81.4681 27.5345C80.829 27.5371 80.1899 27.5345 79.5508 27.5293Z" fill="#0098D2"/>
<path d="M89.5708 27.5709C89.6067 24.7168 89.5836 21.8652 89.6298 19.0137C90.2843 19.0162 90.9388 19.0214 91.5933 19.0342C91.696 21.8832 91.524 24.727 91.5112 27.5735C90.8618 27.5735 90.215 27.5734 89.5708 27.5709Z" fill="#0098D2"/>
<path d="M101.164 19.116C101.821 19.0208 102.491 19.0568 103.156 19.0697C103.002 21.9521 103.107 24.8422 103.038 27.7272C102.401 27.7272 101.764 27.7272 101.131 27.7272C101.097 24.8576 101.1 21.9855 101.164 19.116Z" fill="#0098D2"/>
<path d="M100.667 29.5068C100.798 29.5145 101.059 29.5274 101.188 29.5351C101.188 30.5431 101.183 31.5536 101.183 32.5615C101.529 32.289 101.878 32.0215 102.232 31.7567C102.068 31.6281 101.904 31.4996 101.74 31.3762L102.528 31.497L102.199 30.9185C102.322 31.0573 102.448 31.1936 102.579 31.3299C102.846 30.9468 103.269 30.7976 103.711 30.7488C103.254 31.2733 102.761 31.7618 102.273 32.2555C102.725 33.0115 103.613 33.6363 103.534 34.6057C102.9 33.9629 102.381 33.2223 101.837 32.5075C101.288 32.9601 101.103 33.6106 101.116 34.2971C101 34.2971 100.767 34.2946 100.651 34.2946C100.669 32.6978 100.649 31.1036 100.667 29.5068Z" fill="#52A653"/>
<path d="M57.8393 34.1602C57.9343 32.8925 57.6006 31.54 58.0909 30.3315C58.173 30.4832 58.3373 30.7892 58.4194 30.9409C58.8095 30.7661 59.2022 30.5938 59.6001 30.4293C59.5949 30.5552 59.5898 30.8072 59.5872 30.9358C59.1252 31.1261 58.5041 31.2109 58.3629 31.7817C58.268 32.5583 58.3244 33.3425 58.3219 34.1242C58.2012 34.1319 57.96 34.1525 57.8393 34.1602Z" fill="#52A653"/>
<path d="M65.5035 33.7005C64.4256 32.8622 64.8516 30.8772 66.1914 30.5789C66.9024 30.3552 68.1805 30.6818 68.0573 31.6203C67.4798 31.2552 66.7561 30.7718 66.0656 31.1626C65.0595 31.6666 65.252 33.4896 66.4121 33.6516C67.0949 33.811 67.6492 33.2993 68.2242 33.0242C68.0317 34.2867 66.3069 34.5207 65.5035 33.7005Z" fill="#52A653"/>
<path d="M74.0024 30.8677C74.6004 30.3097 75.4525 30.6209 76.125 30.8446C76.1352 30.968 76.1558 31.2148 76.166 31.3383C75.4448 31.076 74.6389 30.896 73.9921 31.4385C74.0794 31.5851 74.2539 31.8731 74.3437 32.0171C74.8365 32.1276 75.3268 32.2562 75.8144 32.3925C75.953 32.4902 76.2276 32.6907 76.3662 32.7885C76.2969 33.1664 76.4022 33.6704 76.0377 33.9172C75.2215 34.4932 74.1512 34.1307 73.3633 33.6884C73.6661 33.3593 74.0178 33.4364 74.3514 33.655C74.7749 33.6755 75.2036 33.7013 75.6271 33.6473C75.8555 33.4184 75.7913 33.0764 75.8375 32.7885C75.0932 32.5596 74.2231 32.521 73.6353 31.9579C73.6097 31.5671 73.5994 31.0786 74.0024 30.8677Z" fill="#52A653"/>
<path d="M78.1096 30.6347C78.8 30.429 79.4853 30.7709 80.1424 30.9458C80.1347 31.0563 80.1193 31.2775 80.1116 31.388C79.2543 31.1618 78.1173 30.7375 77.6271 31.784C78.3586 32.108 79.1953 32.2211 79.8678 32.666C80.4067 33.1494 79.9627 33.985 79.3621 34.1599C78.5613 34.3347 77.468 34.273 77.124 33.3808C77.8889 33.5582 78.6768 33.8796 79.4648 33.6173C79.511 33.4708 79.6085 33.1802 79.6547 33.0337C79.0131 32.612 78.22 32.5374 77.5578 32.1646C76.9752 31.6632 77.5706 30.8815 78.1096 30.6347Z" fill="#52A653"/>
<path d="M87.0029 30.461C88.0475 31.1938 88.0732 32.644 88.738 33.6622C88.9356 33.2045 89.1666 32.7571 89.2924 32.2712C89.1897 31.6412 88.9895 31.0318 88.892 30.4019C89.1846 30.8107 89.4592 31.2324 89.7159 31.6669C89.9289 31.2324 90.1599 30.8081 90.4191 30.4019C90.3935 31.0344 90.1548 31.6284 90.0624 32.2506C90.1573 32.734 90.3883 33.1763 90.5654 33.6339C91.1814 32.5952 91.3636 31.2658 92.339 30.4713C92.0643 31.8058 91.3636 32.9886 90.8606 34.2382C90.7451 34.2433 90.5115 34.2536 90.396 34.2588C90.106 33.8268 90.106 32.9911 89.5696 32.842C89.2718 33.3511 89.046 33.8962 88.7842 34.4233C87.8576 33.2945 87.3674 31.8546 87.0029 30.461Z" fill="#52A653"/>
<path d="M97.8357 34.2847C97.9563 33.0608 97.5431 31.7057 98.1257 30.5718C98.1873 30.7209 98.3079 31.0192 98.3695 31.1683C98.8649 30.888 99.409 30.7055 99.9685 30.9215C99.5219 31.1246 99.0702 31.3072 98.6159 31.4794C98.254 32.3717 98.3541 33.3436 98.3464 34.2821C98.2181 34.2821 97.964 34.2847 97.8357 34.2847Z" fill="#52A653"/>
<path fill-rule="evenodd" clip-rule="evenodd" d="M71.6016 30.699C70.1899 29.925 68.4523 31.7043 69.1787 33.116C69.7177 34.5173 71.9789 34.5559 72.4973 33.1057C72.3401 33.1653 72.1811 33.2376 72.0204 33.3108C71.4598 33.566 70.8773 33.8312 70.2669 33.5994C70.0122 33.4198 69.8185 33.1749 69.6257 32.9311C69.5562 32.8432 69.4869 32.7556 69.4148 32.6711C70.2396 32.5817 71.0687 32.5834 71.8979 32.5851C72.1653 32.5857 72.4328 32.5862 72.7001 32.5837C72.618 31.8329 72.3921 30.9895 71.6016 30.699ZM69.6314 31.7789C69.5587 31.8736 69.4874 31.9665 69.4145 32.0501C70.377 32.0887 71.3369 32.0964 72.2994 32.0501C72.2607 32.0019 72.2216 31.9521 72.1819 31.9015C71.8276 31.4495 71.4265 30.9378 70.7825 31.0396C70.2468 30.9776 69.9277 31.3931 69.6314 31.7789Z" fill="#52A653"/>
<path fill-rule="evenodd" clip-rule="evenodd" d="M53.1288 33.0838C53.128 33.4973 53.1273 33.911 53.1193 34.3247C53.1196 34.3961 53.1191 34.4681 53.1185 34.5403C53.1152 34.9832 53.1117 35.4372 53.3169 35.8417C53.7038 35.4337 53.6844 34.8805 53.6653 34.3343C53.6556 34.0579 53.646 33.7833 53.6891 33.5301C53.8302 33.6317 53.9708 33.7339 54.1113 33.8361C54.2518 33.9383 54.3923 34.0405 54.5335 34.1421L55.4549 34.1627C55.5436 34.0821 55.6399 34.0034 55.7374 33.9235C56.1226 33.6083 56.5284 33.2763 56.5714 32.7511C56.7511 31.9128 56.3661 30.9152 55.5165 30.6169C54.9436 30.3692 54.3544 30.6338 53.8268 30.8707C53.8013 30.8822 53.7759 30.8936 53.7507 30.9049C53.6218 30.7708 53.3637 30.5072 53.2259 30.3666C53.221 30.3616 53.2163 30.3567 53.2117 30.3521C53.1322 31.2598 53.1305 32.1712 53.1288 33.0838ZM54.9746 31.0275C54.4983 31.0498 54.0089 31.0728 53.7311 31.5242C53.5874 32.0102 53.6079 32.5476 53.7337 33.0387C54.2316 33.8718 55.5996 33.8769 55.9846 32.9435C56.3799 32.2262 55.8845 31.5165 55.4225 30.9919C55.2795 31.0132 55.1278 31.0203 54.9746 31.0275Z" fill="#52A653"/>
<path fill-rule="evenodd" clip-rule="evenodd" d="M63.9718 32.7597C64.3106 31.4792 62.9144 30.065 61.6464 30.6049C60.4299 31.0009 59.9396 32.788 60.9509 33.657C61.862 34.6676 63.7536 34.0916 63.9718 32.7597ZM62.3057 31.0393C61.22 30.8362 60.4706 32.3404 61.1687 33.1529C61.4231 33.6175 61.925 33.6293 62.4039 33.6405C62.5533 33.644 62.7004 33.6475 62.837 33.6646C62.889 33.5901 62.945 33.5149 63.0019 33.4386C63.3045 33.0322 63.6314 32.5934 63.5018 32.0653C63.3658 31.5356 62.9012 30.9725 62.3057 31.0393Z" fill="#52A653"/>
<path fill-rule="evenodd" clip-rule="evenodd" d="M96.5964 33.2227C97.2662 31.9242 95.7365 30.2324 94.3865 30.7492C93.2623 31.0912 92.7259 32.5516 93.4035 33.5236C94.1119 34.7012 96.1164 34.5212 96.5964 33.2227ZM95.5626 31.3561C95.1134 31.2018 94.6181 31.2661 94.1689 31.3818C93.25 32.0529 93.6042 33.9557 94.9004 33.7808C95.6315 33.9171 95.9647 33.2728 96.2501 32.721C96.2823 32.6587 96.3139 32.5976 96.3454 32.5389C96.2781 32.4238 96.2201 32.2986 96.1618 32.1727C96.0156 31.857 95.8672 31.5362 95.5626 31.3561Z" fill="#52A653"/>
<path fill-rule="evenodd" clip-rule="evenodd" d="M83.2336 29.9636C82.6654 30.1671 82.0827 30.3759 81.6885 30.8506C80.7465 31.9023 80.9749 33.7176 82.112 34.5404C82.8999 35.1961 84.1011 35.1627 84.9019 34.5404C84.6261 34.5165 84.3491 34.5127 84.0724 34.5089C83.636 34.5028 83.2004 34.4968 82.7716 34.4119C82.0452 34.0956 81.3907 33.3782 81.3933 32.5503C81.2983 31.0358 83.1746 29.9584 84.4912 30.5729C85.8875 30.9586 86.6729 33.2805 85.0662 33.9439C85.0107 33.6367 84.9869 33.3226 84.9631 33.0085C84.922 32.4656 84.8809 31.9229 84.676 31.4163C84.2294 30.7401 83.4158 30.9818 82.7767 31.1721C82.7636 31.2408 82.7438 31.3494 82.725 31.453C82.7106 31.5316 82.6969 31.6074 82.6869 31.6606C82.7702 31.6399 82.8532 31.6182 82.9362 31.5965C83.2549 31.5132 83.5731 31.43 83.9009 31.4035C84.1807 31.6297 84.4476 31.8714 84.7017 32.126C84.4932 32.1569 84.2664 32.1513 84.0371 32.1457C83.5043 32.1325 82.9585 32.1191 82.5996 32.5631C82.1631 33.0239 82.4548 33.6186 82.6947 34.1075C82.7185 34.156 82.7418 34.2036 82.7639 34.2499C83.3568 34.2113 83.9445 34.1213 84.522 33.967C84.5415 33.9761 84.561 33.9853 84.5806 33.9946C84.9152 34.1522 85.2705 34.3196 85.6488 34.1933C86.5548 33.2239 86.3649 31.5886 85.4435 30.6964C85.0612 30.2911 84.5325 30.1229 84.014 29.958C83.878 29.9148 83.7427 29.8717 83.6109 29.8247C83.4874 29.8727 83.3609 29.918 83.2336 29.9636ZM84.1267 32.6732C83.7668 32.6638 83.4073 32.6543 83.0537 32.7209C82.7253 32.9032 82.789 33.2205 82.8502 33.5252C82.8641 33.5943 82.8779 33.6627 82.8869 33.7288C83.3053 33.7211 83.7262 33.7108 84.1497 33.698C84.1985 33.635 84.2722 33.5405 84.346 33.446C84.4198 33.3515 84.4936 33.257 84.5424 33.194C84.5334 33.1297 84.5186 33.0333 84.5039 32.9369C84.4891 32.8404 84.4744 32.744 84.4654 32.6797C84.3526 32.6791 84.2396 32.6762 84.1267 32.6732Z" fill="#52A653"/>
</svg>
