<svg width="50" height="50" viewBox="0 0 50 50" fill="none" xmlns="http://www.w3.org/2000/svg">
<rect x="2.43896" y="9.68359" width="47.561" height="37.3165" rx="5" fill="#A9FFDF"/>
<path d="M47.1094 46.6633H2.89062C2.12441 46.662 1.38996 46.3834 0.848165 45.8885C0.306366 45.3937 0.00137686 44.7228 0 44.0229V5.64035C0.00137686 4.94047 0.306366 4.26962 0.848165 3.77473C1.38996 3.27984 2.12441 3.00126 2.89062 3H47.1094C47.8756 3.00126 48.61 3.27984 49.1518 3.77473C49.6936 4.26962 49.9986 4.94047 50 5.64035V44.0229C49.9986 44.7228 49.6936 45.3937 49.1518 45.8885C48.61 46.3834 47.8756 46.662 47.1094 46.6633ZM2.89062 3.95148C2.40025 3.95148 1.92996 4.12941 1.58321 4.44614C1.23647 4.76286 1.04167 5.19243 1.04167 5.64035V44.0229C1.04167 44.4708 1.23647 44.9004 1.58321 45.2171C1.92996 45.5339 2.40025 45.7118 2.89062 45.7118H47.1094C47.5997 45.7118 48.07 45.5339 48.4168 45.2171C48.7635 44.9004 48.9583 44.4708 48.9583 44.0229V5.64035C48.9583 5.19243 48.7635 4.76286 48.4168 4.44614C48.07 4.12941 47.5997 3.95148 47.1094 3.95148H2.89062Z" fill="black"/>
<path d="M49.4792 12.0771H41.3021C41.2087 12.0769 41.117 12.0539 41.0367 12.0102C40.9564 11.9666 40.8904 11.9041 40.8457 11.8292C40.801 11.7542 40.7791 11.6697 40.7824 11.5844C40.7858 11.4992 40.8141 11.4163 40.8646 11.3445L43.0365 8.24739H28.4531L25.9167 11.8582C25.8696 11.9252 25.8049 11.9804 25.7285 12.0186C25.652 12.0569 25.5663 12.077 25.4792 12.0771H0.520833C0.3827 12.0771 0.250224 12.027 0.152549 11.9377C0.0548735 11.8485 0 11.7275 0 11.6014V5.64511C0 4.94358 0.305096 4.27079 0.84817 3.77473C1.39124 3.27868 2.12781 3 2.89583 3H47.1042C47.8722 3 48.6088 3.27868 49.1518 3.77473C49.6949 4.27079 50 4.94358 50 5.64511V11.6014C50 11.7275 49.9451 11.8485 49.8474 11.9377C49.7498 12.027 49.6173 12.0771 49.4792 12.0771ZM42.2552 11.1256H48.9583V5.64511C48.9583 5.19593 48.763 4.76515 48.4153 4.44753C48.0675 4.12991 47.5959 3.95148 47.1042 3.95148H2.89583C2.40408 3.95148 1.93246 4.12991 1.58474 4.44753C1.23702 4.76515 1.04167 5.19593 1.04167 5.64511V11.1256H25.1771L27.7135 7.51476C27.7606 7.44776 27.8253 7.39262 27.9017 7.35439C27.9782 7.31615 28.0639 7.29605 28.151 7.29592H43.9896C44.0834 7.2952 44.1758 7.31767 44.2568 7.36094C44.3378 7.40421 44.4046 7.46669 44.4499 7.54175C44.4953 7.61681 44.5176 7.70168 44.5145 7.78737C44.5114 7.87306 44.483 7.95639 44.4323 8.02855L42.2552 11.1256Z" fill="black"/>
<path d="M6.67204 9.74591C6.19407 9.74591 5.72683 9.61644 5.32941 9.37389C4.93199 9.13133 4.62224 8.78658 4.43933 8.38323C4.25642 7.97987 4.20856 7.53603 4.30181 7.10783C4.39506 6.67964 4.62522 6.28631 4.9632 5.9776C5.30117 5.66888 5.73178 5.45864 6.20057 5.37347C6.66936 5.2883 7.15527 5.33201 7.59686 5.49909C8.03845 5.66616 8.41588 5.94909 8.68142 6.3121C8.94697 6.67511 9.08871 7.10189 9.08871 7.53848C9.08871 8.12393 8.83409 8.68539 8.38088 9.09937C7.92767 9.51334 7.31298 9.74591 6.67204 9.74591ZM6.67204 6.28253C6.40009 6.28253 6.13425 6.35619 5.90813 6.4942C5.68201 6.6322 5.50578 6.82836 5.4017 7.05785C5.29763 7.28735 5.2704 7.53988 5.32346 7.78351C5.37651 8.02714 5.50747 8.25092 5.69977 8.42657C5.89206 8.60222 6.13707 8.72184 6.40379 8.7703C6.67051 8.81876 6.94698 8.79389 7.19823 8.69883C7.44948 8.60377 7.66422 8.44279 7.81531 8.23625C7.9664 8.02971 8.04704 7.78689 8.04704 7.53848C8.04773 7.37315 8.01267 7.20932 7.94387 7.05639C7.87508 6.90346 7.77391 6.76444 7.64616 6.64731C7.51841 6.53018 7.3666 6.43725 7.19943 6.37383C7.03227 6.31042 6.85305 6.27777 6.67204 6.27778V6.28253Z" fill="black"/>
<path d="M13.1613 9.74591C12.6833 9.74591 12.2161 9.61644 11.8187 9.37389C11.4212 9.13133 11.1115 8.78658 10.9286 8.38323C10.7457 7.97987 10.6978 7.53603 10.7911 7.10783C10.8843 6.67964 11.1145 6.28631 11.4525 5.9776C11.7904 5.66888 12.221 5.45864 12.6898 5.37347C13.1586 5.2883 13.6445 5.33201 14.0861 5.49909C14.5277 5.66616 14.9051 5.94909 15.1707 6.3121C15.4362 6.67511 15.578 7.10189 15.578 7.53848C15.578 8.12393 15.3234 8.68539 14.8701 9.09937C14.4169 9.51334 13.8022 9.74591 13.1613 9.74591ZM13.1613 6.28253C12.8893 6.28253 12.6235 6.35619 12.3974 6.4942C12.1713 6.6322 11.995 6.82836 11.891 7.05785C11.7869 7.28735 11.7597 7.53988 11.8127 7.78351C11.8658 8.02714 11.9967 8.25092 12.189 8.42657C12.3813 8.60222 12.6263 8.72184 12.893 8.7703C13.1598 8.81876 13.4362 8.79389 13.6875 8.69883C13.9387 8.60377 14.1535 8.44279 14.3046 8.23625C14.4557 8.02971 14.5363 7.78689 14.5363 7.53848C14.537 7.37315 14.5019 7.20932 14.4331 7.05639C14.3643 6.90346 14.2632 6.76444 14.1354 6.64731C14.0077 6.53018 13.8559 6.43725 13.6887 6.37383C13.5215 6.31042 13.3423 6.27777 13.1613 6.27778V6.28253Z" fill="black"/>
<path d="M19.6506 9.74591C19.1726 9.74591 18.7053 9.61644 18.3079 9.37389C17.9105 9.13133 17.6008 8.78658 17.4178 8.38323C17.2349 7.97987 17.1871 7.53603 17.2803 7.10783C17.3736 6.67964 17.6037 6.28631 17.9417 5.9776C18.2797 5.66888 18.7103 5.45864 19.1791 5.37347C19.6479 5.2883 20.1338 5.33201 20.5754 5.49909C21.017 5.66616 21.3944 5.94909 21.6599 6.3121C21.9255 6.67511 22.0672 7.10189 22.0672 7.53848C22.0672 8.12393 21.8126 8.68539 21.3594 9.09937C20.9062 9.51334 20.2915 9.74591 19.6506 9.74591ZM19.6506 6.28253C19.3786 6.28253 19.1128 6.35619 18.8866 6.4942C18.6605 6.6322 18.4843 6.82836 18.3802 7.05785C18.2761 7.28735 18.2489 7.53988 18.302 7.78351C18.355 8.02714 18.486 8.25092 18.6783 8.42657C18.8706 8.60222 19.1156 8.72184 19.3823 8.7703C19.649 8.81876 19.9255 8.79389 20.1767 8.69883C20.428 8.60377 20.6427 8.44279 20.7938 8.23625C20.9449 8.02971 21.0256 7.78689 21.0256 7.53848C21.0262 7.37315 20.9912 7.20932 20.9224 7.05639C20.8536 6.90346 20.7524 6.76444 20.6247 6.64731C20.4969 6.53018 20.3451 6.43725 20.1779 6.37383C20.0108 6.31042 19.8316 6.27777 19.6506 6.27778V6.28253Z" fill="black"/>
<path d="M23.0156 35.2984H7.47396C7.04617 35.2971 6.63629 35.1413 6.33379 34.865C6.0313 34.5887 5.86075 34.2143 5.85938 33.8236V31.4925C5.86586 30.6589 6.15192 29.8472 6.67901 29.1667C7.2061 28.4862 7.94889 27.9696 8.80729 27.6866L11.7552 26.7351C11.8376 26.708 11.9261 26.7004 12.0126 26.7129C12.0991 26.7253 12.1807 26.7575 12.25 26.8064C13.0884 27.4509 14.149 27.8043 15.2448 27.8043C16.3406 27.8043 17.4012 27.4509 18.2396 26.8064C18.3088 26.7575 18.3905 26.7253 18.477 26.7129C18.5635 26.7004 18.652 26.708 18.7344 26.7351L21.6823 27.6866C22.5407 27.9696 23.2835 28.4862 23.8106 29.1667C24.3377 29.8472 24.6237 30.6589 24.6302 31.4925V33.8711C24.6167 34.254 24.4406 34.617 24.1393 34.8834C23.8379 35.1497 23.435 35.2986 23.0156 35.2984ZM11.8437 27.6866L9.16146 28.5667C8.50105 28.7829 7.92968 29.1798 7.52519 29.7034C7.12069 30.2269 6.90275 30.8517 6.90104 31.4925V33.8711C6.90035 33.94 6.91469 34.0084 6.94324 34.0722C6.97178 34.1359 7.01396 34.1939 7.0673 34.2426C7.12064 34.2913 7.18407 34.3298 7.25389 34.3559C7.32372 34.382 7.39853 34.3951 7.47396 34.3945H23.0156C23.0911 34.3951 23.1659 34.382 23.2357 34.3559C23.3055 34.3298 23.3689 34.2913 23.4223 34.2426C23.4756 34.1939 23.5178 34.1359 23.5463 34.0722C23.5749 34.0084 23.5892 33.94 23.5885 33.8711V31.4925C23.5909 30.8529 23.3778 30.2281 22.978 29.703C22.5783 29.1779 22.0114 28.7778 21.3542 28.5572L18.6458 27.6866C17.6585 28.3527 16.467 28.7188 15.2396 28.7332C14.0142 28.725 12.824 28.3582 11.8437 27.6866Z" fill="black"/>
<path d="M15.2448 26.5395C12.3229 26.5395 10.125 22.6907 10.125 20.1931C10.125 18.9528 10.6644 17.7633 11.6246 16.8863C12.5847 16.0093 13.8869 15.5166 15.2448 15.5166C16.6026 15.5166 17.9049 16.0093 18.865 16.8863C19.8252 17.7633 20.3646 18.9528 20.3646 20.1931C20.3646 22.6907 18.1667 26.5395 15.2448 26.5395ZM15.2448 16.4681C14.1636 16.4693 13.1271 16.8622 12.3626 17.5605C11.5981 18.2588 11.168 19.2056 11.1667 20.1931C11.1667 22.2721 13.0313 25.588 15.2448 25.588C17.4583 25.588 19.3229 22.2578 19.3229 20.1931C19.3215 19.2056 18.8914 18.2588 18.1269 17.5605C17.3624 16.8622 16.326 16.4693 15.2448 16.4681Z" fill="black"/>
<path d="M4.65049 41.3778C4.54748 41.3774 4.44691 41.3492 4.36151 41.2966C4.2761 41.244 4.20968 41.1694 4.17066 41.0823C4.13164 40.9953 4.12175 40.8996 4.14227 40.8074C4.16278 40.7152 4.21277 40.6306 4.2859 40.5643L6.99944 38.0857C7.04614 38.0359 7.10359 37.9955 7.16821 37.9669C7.23283 37.9384 7.30321 37.9223 7.37494 37.9198C7.44667 37.9173 7.51819 37.9283 7.58503 37.9522C7.65187 37.9761 7.71257 38.0124 7.76332 38.0588C7.81408 38.1051 7.8538 38.1606 7.87998 38.2216C7.90617 38.2827 7.91826 38.348 7.91549 38.4135C7.91271 38.4791 7.89515 38.5433 7.86388 38.6024C7.83262 38.6614 7.78834 38.7139 7.73382 38.7565L5.02028 41.2399C4.97161 41.284 4.91389 41.3188 4.85044 41.3425C4.78698 41.3662 4.71903 41.3782 4.65049 41.3778Z" fill="black"/>
<path d="M7.37019 41.3782C7.30165 41.3785 7.2337 41.3665 7.17024 41.3429C7.10678 41.3192 7.04907 41.2843 7.0004 41.2402L4.28686 38.7569C4.20153 38.6659 4.15695 38.5488 4.16201 38.4291C4.16707 38.3093 4.22141 38.1957 4.31417 38.111C4.40693 38.0263 4.53127 37.9767 4.66235 37.972C4.79343 37.9674 4.9216 38.0081 5.02123 38.0861L7.73478 40.5647C7.80791 40.6309 7.8579 40.7155 7.87841 40.8077C7.89892 40.8999 7.88904 40.9956 7.85002 41.0827C7.811 41.1698 7.74458 41.2443 7.65917 41.2969C7.57376 41.3495 7.4732 41.3778 7.37019 41.3782Z" fill="black"/>
<path d="M10.8072 41.3778C10.7042 41.3774 10.6037 41.3492 10.5182 41.2966C10.4328 41.244 10.3664 41.1694 10.3274 41.0823C10.2884 40.9953 10.2785 40.8996 10.299 40.8074C10.3195 40.7152 10.3695 40.6306 10.4426 40.5643L13.1562 38.0857C13.2029 38.0359 13.2603 37.9955 13.3249 37.9669C13.3896 37.9384 13.4599 37.9223 13.5317 37.9198C13.6034 37.9173 13.6749 37.9283 13.7418 37.9522C13.8086 37.9761 13.8693 38.0124 13.9201 38.0588C13.9708 38.1051 14.0105 38.1606 14.0367 38.2216C14.0629 38.2827 14.075 38.348 14.0722 38.4135C14.0695 38.4791 14.0519 38.5433 14.0206 38.6024C13.9894 38.6614 13.9451 38.7139 13.8906 38.7565L11.177 41.2399C11.1283 41.284 11.0706 41.3188 11.0072 41.3425C10.9437 41.3662 10.8758 41.3782 10.8072 41.3778Z" fill="black"/>
<path d="M13.5416 41.3782C13.473 41.3785 13.4051 41.3665 13.3416 41.3429C13.2782 41.3192 13.2205 41.2843 13.1718 41.2402L10.4582 38.7569C10.3729 38.6659 10.3283 38.5488 10.3334 38.4291C10.3385 38.3093 10.3928 38.1957 10.4856 38.111C10.5783 38.0263 10.7027 37.9767 10.8337 37.972C10.9648 37.9674 11.093 38.0081 11.1926 38.0861L13.9062 40.5647C13.9793 40.6309 14.0293 40.7155 14.0498 40.8077C14.0703 40.8999 14.0604 40.9956 14.0214 41.0827C13.9824 41.1698 13.916 41.2443 13.8306 41.2969C13.7452 41.3495 13.6446 41.3778 13.5416 41.3782Z" fill="black"/>
<path d="M16.9635 41.3782C16.8605 41.3778 16.7599 41.3495 16.6745 41.2969C16.5891 41.2443 16.5227 41.1698 16.4836 41.0827C16.4446 40.9956 16.4347 40.8999 16.4553 40.8077C16.4758 40.7155 16.5258 40.6309 16.5989 40.5647L19.3124 38.0861C19.4121 38.0081 19.5402 37.9674 19.6713 37.972C19.8024 37.9767 19.9267 38.0263 20.0195 38.111C20.1123 38.1957 20.1666 38.3093 20.1717 38.4291C20.1767 38.5488 20.1321 38.6659 20.0468 38.7569L17.3333 41.2402C17.2846 41.2843 17.2269 41.3192 17.1634 41.3429C17.1 41.3665 17.032 41.3785 16.9635 41.3782Z" fill="black"/>
<path d="M19.6817 41.3782C19.6132 41.3785 19.5452 41.3665 19.4818 41.3429C19.4183 41.3192 19.3606 41.2843 19.3119 41.2402L16.5984 38.7569C16.5131 38.6659 16.4685 38.5488 16.4735 38.4291C16.4786 38.3093 16.5329 38.1957 16.6257 38.111C16.7185 38.0263 16.8428 37.9767 16.9739 37.972C17.105 37.9674 17.2331 38.0081 17.3328 38.0861L20.0463 40.5647C20.1194 40.6309 20.1694 40.7155 20.1899 40.8077C20.2104 40.8999 20.2006 40.9956 20.1615 41.0827C20.1225 41.1698 20.0561 41.2443 19.9707 41.2969C19.8853 41.3495 19.7847 41.3778 19.6817 41.3782Z" fill="black"/>
<path d="M23.1197 41.3778C23.0167 41.3774 22.9162 41.3492 22.8307 41.2966C22.7453 41.244 22.6789 41.1694 22.6399 41.0823C22.6009 40.9953 22.591 40.8996 22.6115 40.8074C22.632 40.7152 22.682 40.6306 22.7551 40.5643L25.4687 38.0857C25.5154 38.0359 25.5728 37.9955 25.6374 37.9669C25.7021 37.9384 25.7724 37.9223 25.8442 37.9198C25.9159 37.9173 25.9874 37.9283 26.0543 37.9522C26.1211 37.9761 26.1818 38.0124 26.2326 38.0588C26.2833 38.1051 26.323 38.1606 26.3492 38.2216C26.3754 38.2827 26.3875 38.348 26.3847 38.4135C26.382 38.4791 26.3644 38.5433 26.3331 38.6024C26.3019 38.6614 26.2576 38.7139 26.2031 38.7565L23.4895 41.2399C23.4408 41.284 23.3831 41.3188 23.3197 41.3425C23.2562 41.3662 23.1883 41.3782 23.1197 41.3778Z" fill="black"/>
<path d="M25.8386 41.3778C25.7701 41.3782 25.7021 41.3662 25.6387 41.3425C25.5752 41.3188 25.5175 41.284 25.4688 41.2399L22.7553 38.7565C22.7008 38.7139 22.6565 38.6614 22.6252 38.6024C22.594 38.5433 22.5764 38.4791 22.5736 38.4135C22.5709 38.348 22.5829 38.2827 22.6091 38.2216C22.6353 38.1606 22.675 38.1051 22.7258 38.0588C22.7765 38.0124 22.8373 37.9761 22.9041 37.9522C22.9709 37.9283 23.0425 37.9173 23.1142 37.9198C23.1859 37.9223 23.2563 37.9384 23.3209 37.9669C23.3855 37.9955 23.443 38.0359 23.4897 38.0857L26.2032 40.5643C26.2763 40.6306 26.3263 40.7152 26.3468 40.8074C26.3674 40.8996 26.3575 40.9953 26.3185 41.0823C26.2794 41.1694 26.213 41.244 26.1276 41.2966C26.0422 41.3492 25.9416 41.3774 25.8386 41.3778Z" fill="black"/>
<path d="M45.7498 22.8046H26.7342C26.5961 22.8046 26.4636 22.7545 26.3659 22.6653C26.2683 22.5761 26.2134 22.455 26.2134 22.3289V17.2956C26.2134 17.1694 26.2683 17.0484 26.3659 16.9592C26.4636 16.8699 26.5961 16.8198 26.7342 16.8198H45.7498C45.888 16.8198 46.0204 16.8699 46.1181 16.9592C46.2158 17.0484 46.2707 17.1694 46.2707 17.2956V22.3289C46.2707 22.455 46.2158 22.5761 46.1181 22.6653C46.0204 22.7545 45.888 22.8046 45.7498 22.8046ZM27.255 21.8531H45.229V17.7713H27.255V21.8531Z" fill="black"/>
<path d="M45.7498 31.4394H28.2967C28.1586 31.4394 28.0261 31.3893 27.9284 31.3C27.8308 31.2108 27.7759 31.0898 27.7759 30.9636V25.9303C27.7759 25.8042 27.8308 25.6831 27.9284 25.5939C28.0261 25.5047 28.1586 25.4546 28.2967 25.4546H45.7498C45.888 25.4546 46.0204 25.5047 46.1181 25.5939C46.2158 25.6831 46.2707 25.8042 46.2707 25.9303V30.9636C46.2707 31.0898 46.2158 31.2108 46.1181 31.3C46.0204 31.3893 45.888 31.4394 45.7498 31.4394ZM28.8175 30.4879H45.229V26.4061H28.8175V30.4879Z" fill="black"/>
<path d="M45.7498 40.0556H29.8592C29.7211 40.0556 29.5886 40.0055 29.4909 39.9163C29.3933 39.827 29.3384 39.706 29.3384 39.5799V34.5656C29.3384 34.4394 29.3933 34.3184 29.4909 34.2292C29.5886 34.14 29.7211 34.0898 29.8592 34.0898H45.7498C45.888 34.0898 46.0204 34.14 46.1181 34.2292C46.2158 34.3184 46.2707 34.4394 46.2707 34.5656V39.5799C46.2707 39.706 46.2158 39.827 46.1181 39.9163C46.0204 40.0055 45.888 40.0556 45.7498 40.0556ZM30.38 39.1041H45.229V35.0413H30.38V39.1041Z" fill="black"/>
</svg>
