<?xml version="1.0" encoding="iso-8859-1"?>
<!-- Uploaded to: SVG Repo, www.svgrepo.com, Generator: SVG Repo Mixer Tools -->
<svg fill="#000000" height="800px" width="800px" version="1.1" id="Layer_1" xmlns="http://www.w3.org/2000/svg" xmlns:xlink="http://www.w3.org/1999/xlink" 
	 viewBox="0 0 512 512" xml:space="preserve">
<g>
	<g>
		<path d="M256,0C114.844,0,0,114.839,0,256s114.844,256,256,256s256-114.839,256-256S397.156,0,256,0z M389.594,317.231H122.406
			c-9.219,0-16.699-7.475-16.699-16.699c0-9.225,7.48-16.699,16.699-16.699h267.189c9.219,0,16.699,7.475,16.699,16.699
			C406.294,309.756,398.813,317.231,389.594,317.231z M389.594,217.035H122.406c-9.219,0-16.699-7.475-16.699-16.699
			c0-9.225,7.48-16.699,16.699-16.699h267.189c9.219,0,16.699,7.475,16.699,16.699C406.294,209.56,398.813,217.035,389.594,217.035z
			"/>
	</g>
</g>
</svg>