<svg width="50" height="50" viewBox="0 0 50 50" fill="none" xmlns="http://www.w3.org/2000/svg">
<mask id="mask0_82_585" style="mask-type:alpha" maskUnits="userSpaceOnUse" x="0" y="0" width="50" height="50">
<rect width="50" height="50" fill="#D9D9D9"/>
</mask>
<g mask="url(#mask0_82_585)">
<rect x="2" y="11" width="34" height="34" fill="#8AD5B9"/>
<path d="M47.6742 1H2.33202C1.71381 1.00065 1.12108 1.26878 0.683889 1.74557C0.246695 2.22236 0.000743651 2.86886 0 3.54322V46.4862C0.000743373 47.1606 0.246677 47.8072 0.683855 48.284C1.12103 48.7609 1.71376 49.0292 2.33202 49.03H47.6691C48.2872 49.0289 48.8796 48.7604 49.3165 48.2836C49.7535 47.8067 49.9993 47.1604 50 46.4862V3.54322C50 2.86977 49.7551 2.22382 49.3191 1.74705C48.8831 1.27028 48.2915 1.00162 47.6742 1ZM48.3146 46.4862C48.3145 46.6732 48.2463 46.8525 48.125 46.9848C48.0038 47.117 47.8394 47.1914 47.668 47.1915H2.33202C2.16057 47.1914 1.99619 47.117 1.87495 46.9848C1.75372 46.8525 1.68554 46.6732 1.68539 46.4862V8.10813H36.7337C36.9572 8.10813 37.1715 8.01129 37.3296 7.8389C37.4876 7.66651 37.5764 7.4327 37.5764 7.1889C37.5764 6.9451 37.4876 6.71129 37.3296 6.5389C37.1715 6.36651 36.9572 6.26967 36.7337 6.26967H1.68539V3.54322C1.68554 3.35625 1.75373 3.177 1.87499 3.04485C1.99624 2.9127 2.16062 2.83847 2.33202 2.83847H47.6742C47.7589 2.8378 47.8429 2.85562 47.9213 2.89088C47.9996 2.92614 48.0707 2.97813 48.1304 3.04378C48.19 3.10944 48.2371 3.18744 48.2687 3.27321C48.3004 3.35898 48.316 3.45078 48.3146 3.54322V46.4862Z" fill="black"/>
<path d="M39.5048 8.108H40.1615C40.385 8.108 40.5994 8.01115 40.7574 7.83876C40.9155 7.66637 41.0042 7.43256 41.0042 7.18877C41.0042 6.94497 40.9155 6.71116 40.7574 6.53877C40.5994 6.36638 40.385 6.26953 40.1615 6.26953H39.5048C39.2813 6.26953 39.067 6.36638 38.9089 6.53877C38.7509 6.71116 38.6621 6.94497 38.6621 7.18877C38.6621 7.43256 38.7509 7.66637 38.9089 7.83876C39.067 8.01115 39.2813 8.108 39.5048 8.108Z" fill="black"/>
<path d="M43.4073 6.26953H42.7529C42.5294 6.26953 42.315 6.36638 42.157 6.53877C41.9989 6.71116 41.9102 6.94497 41.9102 7.18877C41.9102 7.43256 41.9989 7.66637 42.157 7.83876C42.315 8.01115 42.5294 8.108 42.7529 8.108H43.409C43.6325 8.108 43.8469 8.01115 44.0049 7.83876C44.1629 7.66637 44.2517 7.43256 44.2517 7.18877C44.2517 6.94497 44.1629 6.71116 44.0049 6.53877C43.8469 6.36638 43.6325 6.26953 43.409 6.26953H43.4073Z" fill="black"/>
<path d="M46.6532 6.26953H45.997C45.7735 6.26953 45.5592 6.36638 45.4011 6.53877C45.2431 6.71116 45.1543 6.94497 45.1543 7.18877C45.1543 7.43256 45.2431 7.66637 45.4011 7.83876C45.5592 8.01115 45.7735 8.108 45.997 8.108H46.6532C46.8767 8.108 47.091 8.01115 47.249 7.83876C47.4071 7.66637 47.4959 7.43256 47.4959 7.18877C47.4959 6.94497 47.4071 6.71116 47.249 6.53877C47.091 6.36638 46.8767 6.26953 46.6532 6.26953Z" fill="black"/>
<path d="M12.1243 21.4925C12.9558 21.4929 13.7694 21.2286 14.4653 20.732C14.6511 20.5981 14.7808 20.3894 14.826 20.1515C14.8712 19.9136 14.8283 19.6659 14.7065 19.4625C14.5847 19.2591 14.3941 19.1165 14.1763 19.0659C13.9584 19.0153 13.7311 19.0609 13.544 19.1926C13.209 19.4334 12.8271 19.5854 12.4288 19.6366C12.0304 19.6878 11.6266 19.6368 11.2495 19.4875C10.8724 19.3382 10.5326 19.0949 10.257 18.777C9.98142 18.459 9.77779 18.0752 9.66234 17.6562C9.54688 17.2371 9.5228 16.7945 9.59201 16.3635C9.66122 15.9325 9.82181 15.5251 10.061 15.1738C10.3001 14.8225 10.6112 14.5371 10.9695 14.3402C11.3277 14.1434 11.7232 14.0406 12.1243 14.04C12.5864 14.0388 13.0402 14.1743 13.4372 14.4322C13.5321 14.4958 13.6376 14.5382 13.7477 14.557C13.8577 14.5758 13.97 14.5706 14.0782 14.5417C14.1864 14.5129 14.2883 14.4609 14.3779 14.3889C14.4676 14.3168 14.5433 14.2261 14.6006 14.1219C14.6579 14.0178 14.6957 13.9023 14.7119 13.7821C14.728 13.6619 14.7222 13.5394 14.6946 13.4216C14.6671 13.3039 14.6185 13.1933 14.5515 13.0963C14.4846 12.9992 14.4007 12.9175 14.3046 12.856C13.7414 12.4902 13.1083 12.2712 12.4547 12.216C11.8012 12.1608 11.1447 12.271 10.5366 12.5379C9.92844 12.8048 9.38499 13.2212 8.94857 13.7548C8.51215 14.2884 8.19455 14.9246 8.02051 15.614C7.84647 16.3034 7.82068 17.0274 7.94516 17.7294C8.06963 18.4315 8.34102 19.0927 8.73816 19.6616C9.13531 20.2305 9.6475 20.6917 10.2348 21.0093C10.8222 21.3269 11.4688 21.4922 12.1243 21.4925Z" fill="black"/>
<path d="M41.2924 15.9258H18.6093C18.3858 15.9258 18.1715 16.0226 18.0134 16.195C17.8554 16.3674 17.7666 16.6012 17.7666 16.845C17.7666 17.0888 17.8554 17.3226 18.0134 17.495C18.1715 17.6674 18.3858 17.7643 18.6093 17.7643H41.2924C41.5159 17.7643 41.7303 17.6674 41.8883 17.495C42.0464 17.3226 42.1351 17.0888 42.1351 16.845C42.1351 16.6012 42.0464 16.3674 41.8883 16.195C41.7303 16.0226 41.5159 15.9258 41.2924 15.9258Z" fill="black"/>
<path d="M15.3613 14.1465L13.3388 16.3496L12.7208 15.6755C12.6431 15.5877 12.5501 15.5176 12.4473 15.4695C12.3445 15.4213 12.2339 15.3959 12.122 15.3949C12.0101 15.3938 11.8991 15.4171 11.7956 15.4633C11.692 15.5095 11.5979 15.5778 11.5188 15.6641C11.4397 15.7504 11.3771 15.853 11.3347 15.966C11.2924 16.0789 11.271 16.2 11.272 16.322C11.273 16.4441 11.2962 16.5647 11.3404 16.6769C11.3846 16.789 11.4488 16.8905 11.5292 16.9753L12.7444 18.3008C12.9024 18.4731 13.1167 18.5699 13.3402 18.5699C13.5636 18.5699 13.778 18.4731 13.936 18.3008L16.5523 15.4475C16.7058 15.2741 16.7907 15.0419 16.7888 14.8009C16.7869 14.5599 16.6982 14.3293 16.542 14.1589C16.3858 13.9885 16.1744 13.8918 15.9535 13.8897C15.7325 13.8876 15.5196 13.9802 15.3607 14.1477L15.3613 14.1465Z" fill="black"/>
<path d="M12.1245 31.9398C12.9561 31.9402 13.7696 31.6759 14.4655 31.1793C14.5588 31.1136 14.6393 31.0285 14.7023 30.9288C14.7654 30.829 14.8097 30.7167 14.8328 30.5982C14.856 30.4798 14.8574 30.3575 14.837 30.2384C14.8167 30.1193 14.7749 30.0058 14.7142 29.9044C14.6535 29.803 14.575 29.7156 14.4833 29.6474C14.3915 29.5792 14.2883 29.5314 14.1796 29.5068C14.0709 29.4822 13.9588 29.4813 13.8497 29.5042C13.7407 29.527 13.6368 29.5731 13.5442 29.6399C13.2092 29.8809 12.8271 30.0331 12.4286 30.0844C12.0301 30.1357 11.6261 30.0847 11.2488 29.9355C10.8716 29.7862 10.5316 29.5429 10.2559 29.2248C9.98017 28.9067 9.77644 28.5227 9.66095 28.1035C9.54546 27.6843 9.5214 27.2414 9.59069 26.8103C9.65998 26.3791 9.8207 25.9716 10.06 25.6202C10.2994 25.2688 10.6107 24.9834 10.9691 24.7865C11.3276 24.5897 11.7232 24.487 12.1245 24.4866C12.5866 24.4852 13.0405 24.6207 13.4374 24.8789C13.6295 25.0043 13.8594 25.0414 14.0765 24.982C14.2937 24.9226 14.4803 24.7715 14.5953 24.562C14.7103 24.3525 14.7443 24.1018 14.6899 23.8649C14.6354 23.628 14.4969 23.4245 14.3048 23.299C13.7415 22.9346 13.1087 22.7169 12.4557 22.6628C11.8026 22.6086 11.1469 22.7195 10.5396 22.9868C9.93225 23.2541 9.3896 23.6706 8.95385 24.204C8.51811 24.7373 8.201 25.3731 8.0272 26.0619C7.8534 26.7507 7.82758 27.4739 7.95175 28.1753C8.07593 28.8768 8.34675 29.5375 8.74316 30.1062C9.13956 30.6749 9.65087 31.1362 10.2373 31.4542C10.8238 31.7722 11.4696 31.9384 12.1245 31.9398Z" fill="black"/>
<path d="M41.2924 26.3721H18.6093C18.3858 26.3721 18.1715 26.4689 18.0134 26.6413C17.8554 26.8137 17.7666 27.0475 17.7666 27.2913C17.7666 27.5351 17.8554 27.7689 18.0134 27.9413C18.1715 28.1137 18.3858 28.2105 18.6093 28.2105H41.2924C41.5159 28.2105 41.7303 28.1137 41.8883 27.9413C42.0464 27.7689 42.1351 27.5351 42.1351 27.2913C42.1351 27.0475 42.0464 26.8137 41.8883 26.6413C41.7303 26.4689 41.5159 26.3721 41.2924 26.3721Z" fill="black"/>
<path d="M15.3611 24.5923L13.3386 26.7984L12.7206 26.1243C12.5617 25.9569 12.3488 25.8642 12.1279 25.8663C11.9069 25.8684 11.6955 25.9651 11.5393 26.1355C11.3831 26.3059 11.2944 26.5365 11.2925 26.7775C11.2906 27.0185 11.3755 27.2507 11.529 27.4241L12.7442 28.7496C12.9022 28.922 13.1165 29.0188 13.34 29.0188C13.5634 29.0188 13.7777 28.922 13.9358 28.7496L16.5521 25.8957C16.7056 25.7224 16.7905 25.4902 16.7886 25.2491C16.7867 25.0081 16.698 24.7776 16.5418 24.6071C16.3856 24.4367 16.1742 24.34 15.9533 24.3379C15.7323 24.3358 15.5194 24.4285 15.3605 24.5959L15.3611 24.5923Z" fill="black"/>
<path d="M13.5438 40.0848C13.2089 40.3256 12.827 40.4776 12.4286 40.5288C12.0302 40.58 11.6264 40.5289 11.2493 40.3797C10.8723 40.2304 10.5324 39.9871 10.2568 39.6692C9.98126 39.3512 9.77763 38.9674 9.66217 38.5484C9.54672 38.1293 9.52263 37.6866 9.59185 37.2556C9.66106 36.8246 9.82165 36.4173 10.0608 36.066C10.3 35.7147 10.6111 35.4292 10.9693 35.2324C11.3276 35.0355 11.723 34.9327 12.1241 34.9322C12.5863 34.9307 13.0401 35.0663 13.4371 35.3244C13.532 35.3879 13.6375 35.4303 13.7475 35.4491C13.8575 35.4679 13.9699 35.4628 14.0781 35.4339C14.1862 35.4051 14.2881 35.3531 14.3778 35.281C14.4674 35.209 14.5431 35.1183 14.6004 35.0141C14.6577 34.91 14.6956 34.7944 14.7117 34.6742C14.7278 34.554 14.722 34.4315 14.6945 34.3138C14.667 34.1961 14.6183 34.0855 14.5514 33.9884C14.4844 33.8914 14.4005 33.8097 14.3045 33.7482C13.6512 33.3248 12.906 33.0999 12.1461 33.0967C11.3863 33.0935 10.6395 33.3123 9.98328 33.7302C9.32708 34.1481 8.78538 34.75 8.4144 35.4734C8.04343 36.1968 7.85671 37.0153 7.87361 37.844C7.89052 38.6727 8.11044 39.4813 8.51055 40.1859C8.91066 40.8906 9.47637 41.4656 10.149 41.8513C10.8216 42.237 11.5765 42.4192 12.3355 42.3792C13.0945 42.3392 13.8298 42.0783 14.4651 41.6236C14.5584 41.5579 14.6389 41.4728 14.702 41.3731C14.765 41.2734 14.8094 41.161 14.8325 41.0425C14.8556 40.9241 14.857 40.8018 14.8367 40.6827C14.8163 40.5636 14.7746 40.4501 14.7139 40.3487C14.6532 40.2473 14.5747 40.1599 14.4829 40.0917C14.3912 40.0235 14.288 39.9757 14.1792 39.9511C14.0705 39.9265 13.9584 39.9256 13.8493 39.9485C13.7403 39.9713 13.6365 40.018 13.5438 40.0848Z" fill="black"/>
<path d="M41.2924 36.8184H18.6093C18.3858 36.8184 18.1715 36.9152 18.0134 37.0876C17.8554 37.26 17.7666 37.4938 17.7666 37.7376C17.7666 37.9814 17.8554 38.2152 18.0134 38.3876C18.1715 38.56 18.3858 38.6568 18.6093 38.6568H41.2924C41.5159 38.6568 41.7303 38.56 41.8883 38.3876C42.0464 38.2152 42.1351 37.9814 42.1351 37.7376C42.1351 37.4938 42.0464 37.26 41.8883 37.0876C41.7303 36.9152 41.5159 36.8184 41.2924 36.8184Z" fill="black"/>
<path d="M15.3611 35.0359L13.3386 37.2421L12.7206 36.568C12.5617 36.4005 12.3488 36.3079 12.1279 36.31C11.9069 36.3121 11.6955 36.4088 11.5393 36.5792C11.3831 36.7496 11.2944 36.9802 11.2925 37.2212C11.2906 37.4622 11.3755 37.6944 11.529 37.8678L12.7442 39.1933C12.9022 39.3657 13.1165 39.4625 13.34 39.4625C13.5634 39.4625 13.7777 39.3657 13.9358 39.1933L16.5521 36.34C16.6303 36.2547 16.6924 36.1533 16.7348 36.0418C16.7772 35.9303 16.799 35.8108 16.799 35.69C16.7991 35.5693 16.7773 35.4498 16.735 35.3382C16.6926 35.2267 16.6306 35.1253 16.5524 35.0399C16.4741 34.9545 16.3812 34.8868 16.279 34.8406C16.1767 34.7943 16.0672 34.7705 15.9565 34.7705C15.8458 34.7705 15.7362 34.7942 15.634 34.8404C15.5317 34.8866 15.4388 34.9543 15.3605 35.0396L15.3611 35.0359Z" fill="black"/>
</g>
</svg>
