<svg width="50" height="50" viewBox="0 0 50 50" fill="none" xmlns="http://www.w3.org/2000/svg">
<path d="M25 0C11.2105 0 0 11.2105 0 25C0 38.7895 11.2105 50 25 50C38.7895 50 50 38.7895 50 25C50 11.2105 38.7895 0 25 0ZM25 44.7368C14.1053 44.7368 5.26316 35.8947 5.26316 25C5.26316 14.1053 14.1053 5.26316 25 5.26316C35.8947 5.26316 44.7368 14.1053 44.7368 25C44.7368 35.8947 35.8947 44.7368 25 44.7368Z" fill="black"/>
<path d="M34.4203 22.739H27.671V14.2119C27.671 12.7649 26.4438 11.6279 24.882 11.6279C23.3202 11.6279 22.093 12.7649 22.093 14.2119V25.323C22.093 26.77 23.3202 27.907 24.882 27.907H34.4203C35.9821 27.907 37.2093 26.77 37.2093 25.323C37.2093 23.876 35.9821 22.739 34.4203 22.739Z" fill="black"/>
</svg>
