<svg width="50" height="50" viewBox="0 0 50 50" fill="none" xmlns="http://www.w3.org/2000/svg">
<mask id="mask0_82_484" style="mask-type:alpha" maskUnits="userSpaceOnUse" x="0" y="0" width="50" height="50">
<rect width="50" height="50" fill="#D9D9D9"/>
</mask>
<g mask="url(#mask0_82_484)">
<rect x="16.6333" y="11.8223" width="26.1778" height="38" rx="5" fill="#A9FFDF"/>
<path d="M36.0263 32.3687H18.3421C17.6052 32.3687 16.9736 33.0002 16.9736 33.7371C16.9736 34.4739 17.6052 35.1055 18.3421 35.1055H35.9736C36.7105 35.1055 37.3421 34.4739 37.3421 33.7371C37.3947 33.0002 36.7631 32.3687 36.0263 32.3687Z" fill="black"/>
<path d="M17.0264 26.3684C17.0264 27.1053 17.6579 27.7368 18.3948 27.7368H36.0264C36.7632 27.7368 37.3948 27.1053 37.3948 26.3684C37.3948 25.6316 36.7632 25 36.0264 25H18.3422C17.6053 25 17.0264 25.6316 17.0264 26.3684Z" fill="black"/>
<path d="M36.0263 39.7373H18.3421C17.6052 39.7373 16.9736 40.3689 16.9736 41.1057C16.9736 41.8426 17.6052 42.4741 18.3421 42.4741H35.9736C36.7105 42.4741 37.3421 41.8426 37.3421 41.1057C37.3947 40.3689 36.7631 39.7373 36.0263 39.7373Z" fill="black"/>
<path d="M44.0263 15.4737L36.1316 7.57895C35.8684 7.31579 35.5526 7.1579 35.1842 7.1579H26.8158C25.4474 3.05263 21.5 0 16.9211 0C11.1842 0 6.5 4.68421 6.5 10.4211C6.5 13.5263 7.86842 16.2632 9.97368 18.2105V48.6316C9.97368 49.3684 10.6053 50 11.3421 50H43.1316C43.8684 50 44.5 49.3684 44.5 48.6316V16.4211C44.4474 16.1053 44.2895 15.7368 44.0263 15.4737ZM35.2368 10.5263L41.1316 16.4211H35.2368V10.5263ZM9.18421 10.4211C9.18421 6.15789 12.6579 2.68421 16.9211 2.68421C21.1842 2.68421 24.6579 6.15789 24.6579 10.4211C24.6579 14.6842 21.1842 18.1579 16.9211 18.1579C12.6579 18.1579 9.18421 14.6842 9.18421 10.4211ZM41.7105 47.2632H12.6579V19.9474C13.9737 20.5263 15.3947 20.8421 16.8684 20.8421C22.6053 20.8421 27.2895 16.1579 27.2895 10.4211C27.2895 10.2632 27.2895 10.1053 27.2895 9.89474H32.5V17.7368C32.5 18.4737 33.1316 19.1053 33.8684 19.1053H41.7105V47.2632Z" fill="black"/>
<path d="M14.9735 13.4737C15.2367 13.7368 15.6051 13.8947 15.9209 13.8947C16.2367 13.8947 16.6051 13.7368 16.8683 13.4737L20.763 9.57892C21.2893 9.05261 21.2893 8.2105 20.763 7.63155C20.2367 7.10524 19.3946 7.10524 18.8156 7.63155L15.9209 10.5263L14.763 9.3684C14.2367 8.84208 13.3946 8.84208 12.8156 9.3684C12.2893 9.89471 12.2893 10.7368 12.8156 11.3158L14.9735 13.4737Z" fill="black"/>
</g>
</svg>
