<svg width="20" height="20" viewBox="0 0 20 20" fill="none" xmlns="http://www.w3.org/2000/svg">
<g clip-path="url(#clip0_108_289)">
<path d="M18.125 5C18.4825 5 18.75 5.2675 18.75 5.625V18.125C18.75 18.4825 18.4825 18.75 18.125 18.75H5.625C5.2675 18.75 5 18.4825 5 18.125C5 17.305 3.75 17.295 3.75 18.125C3.75 19.1525 4.5975 20 5.625 20H18.125C19.1525 20 20 19.1525 20 18.125V5.625C20 4.5975 19.1525 3.75 18.125 3.75C17.2875 3.75 17.325 5 18.125 5ZM1.875 0C0.8475 0 0 0.8475 0 1.875V14.375C0 15.4025 0.8475 16.25 1.875 16.25H14.375C15.4025 16.25 16.25 15.4025 16.25 14.375V1.875C16.25 0.8475 15.4025 0 14.375 0H1.875ZM1.875 1.25H14.375C14.7325 1.25 15 1.5175 15 1.875V14.375C15 14.7325 14.7325 15 14.375 15H1.875C1.5175 15 1.25 14.7325 1.25 14.375V1.875C1.25 1.5175 1.5175 1.25 1.875 1.25Z" fill="black"/>
</g>
<defs>
<clipPath id="clip0_108_289">
<rect width="20" height="20" fill="white"/>
</clipPath>
</defs>
</svg>
