<svg width="50" height="50" viewBox="0 0 50 50" fill="none" xmlns="http://www.w3.org/2000/svg">
<path fill-rule="evenodd" clip-rule="evenodd" d="M5 4C2.23858 4 0 6.23858 0 9V41C0 43.7614 2.23858 46 5 46H45C47.7614 46 50 43.7614 50 41V9C50 6.23858 47.7614 4 45 4H5ZM34.723 20.5316L23.0686 32.7216C22.9809 32.8098 22.8767 32.8799 22.7621 32.9276C22.6474 32.9754 22.5245 33 22.4004 33C22.2763 33 22.1534 32.9754 22.0388 32.9276C21.9241 32.8799 21.82 32.8098 21.7322 32.7216L15.277 26.2374C15.1892 26.1492 15.1195 26.0445 15.072 25.9292C15.0245 25.814 15 25.6904 15 25.5657C15 25.4409 15.0245 25.3174 15.072 25.2021C15.1195 25.0869 15.1892 24.9822 15.277 24.894L18.1764 21.9794C18.2641 21.8911 18.3683 21.8211 18.4829 21.7733C18.5976 21.7256 18.7205 21.701 18.8446 21.701C18.9687 21.701 19.0916 21.7256 19.2063 21.7733C19.3209 21.8211 19.4251 21.8911 19.5128 21.9794L22.3981 24.8845L30.4872 16.2784C30.5749 16.1902 30.6791 16.1201 30.7937 16.0724C30.9084 16.0246 31.0313 16 31.1554 16C31.2795 16 31.4024 16.0246 31.5171 16.0724C31.6317 16.1201 31.7359 16.1902 31.8236 16.2784L34.723 19.1883C34.8108 19.2764 34.8805 19.3811 34.928 19.4964C34.9755 19.6116 35 19.7352 35 19.8599C35 19.9847 34.9755 20.1082 34.928 20.2235C34.8805 20.3387 34.8108 20.4435 34.723 20.5316Z" fill="black"/>
</svg>
