<svg width="50" height="50" viewBox="0 0 50 50" fill="none" xmlns="http://www.w3.org/2000/svg">
<mask id="mask0_82_589" style="mask-type:alpha" maskUnits="userSpaceOnUse" x="0" y="0" width="50" height="50">
<rect width="50" height="50" fill="#D9D9D9"/>
</mask>
<g mask="url(#mask0_82_589)">
<rect x="5" y="7" width="38" height="38" fill="#8AD5B9"/>
<path d="M16.0714 7.143C16.0715 7.26027 16.0484 7.3764 16.0036 7.48476C15.9588 7.59312 15.893 7.69157 15.8101 7.77449C15.7271 7.85742 15.6287 7.92318 15.5203 7.96803C15.412 8.01287 15.2958 8.03592 15.1786 8.03585H4.46429C4.22749 8.03585 4.00038 7.94178 3.83294 7.77434C3.6655 7.6069 3.57143 7.3798 3.57143 7.143C3.57143 6.9062 3.6655 6.67909 3.83294 6.51165C4.00038 6.34421 4.22749 6.25014 4.46429 6.25014H15.1786C15.2958 6.25007 15.412 6.27312 15.5203 6.31797C15.6287 6.36281 15.7271 6.42858 15.8101 6.5115C15.893 6.59442 15.9588 6.69288 16.0036 6.80123C16.0484 6.90959 16.0715 7.02573 16.0714 7.143ZM41.9643 6.25014C41.7877 6.25014 41.6151 6.3025 41.4682 6.40061C41.3214 6.49872 41.207 6.63817 41.1394 6.80131C41.0718 6.96446 41.0541 7.14399 41.0886 7.31718C41.123 7.49038 41.2081 7.64947 41.3329 7.77434C41.4578 7.89921 41.6169 7.98425 41.7901 8.0187C41.9633 8.05315 42.1428 8.03547 42.306 7.96789C42.4691 7.90031 42.6086 7.78587 42.7067 7.63904C42.8048 7.49221 42.8571 7.31959 42.8571 7.143C42.8571 6.9062 42.7631 6.67909 42.5956 6.51165C42.4282 6.34421 42.2011 6.25014 41.9643 6.25014ZM50 16.0716V46.4287C50.0001 46.546 49.977 46.6621 49.9322 46.7705C49.8873 46.8788 49.8216 46.9773 49.7386 47.0602C49.6557 47.1431 49.5573 47.2089 49.4489 47.2537C49.3405 47.2986 49.2244 47.3216 49.1071 47.3216H27.6786C27.5613 47.3216 27.4452 47.2986 27.3368 47.2537C27.2285 47.2089 27.13 47.1431 27.0471 47.0602C26.9642 46.9773 26.8984 46.8788 26.8535 46.7705C26.8087 46.6621 26.7856 46.546 26.7857 46.4287V16.0716C26.7856 15.9543 26.8087 15.8382 26.8535 15.7298C26.8984 15.6214 26.9642 15.523 27.0471 15.4401C27.13 15.3571 27.2285 15.2914 27.3368 15.2465C27.4452 15.2017 27.5613 15.1786 27.6786 15.1787H44.6429V11.6073H1.78571V45.5359H24.1071C24.3439 45.5359 24.571 45.6299 24.7385 45.7974C24.9059 45.9648 25 46.1919 25 46.4287C25 46.6655 24.9059 46.8926 24.7385 47.0601C24.571 47.2275 24.3439 47.3216 24.1071 47.3216H0.892857C0.775586 47.3216 0.659452 47.2986 0.551095 47.2537C0.442738 47.2089 0.344283 47.1431 0.26136 47.0602C0.178437 46.9773 0.112673 46.8788 0.0678264 46.7705C0.0229802 46.6621 -6.79259e-05 46.546 1.50365e-07 46.4287V3.57157C-6.79259e-05 3.4543 0.0229802 3.33816 0.0678264 3.22981C0.112673 3.12145 0.178437 3.02299 0.26136 2.94007C0.344283 2.85715 0.442738 2.79138 0.551095 2.74654C0.659452 2.70169 0.775586 2.67864 0.892857 2.67871H45.5357C45.653 2.67864 45.7691 2.70169 45.8775 2.74654C45.9858 2.79138 46.0843 2.85715 46.1672 2.94007C46.2501 3.02299 46.3159 3.12145 46.3607 3.22981C46.4056 3.33816 46.4286 3.4543 46.4286 3.57157V15.1787H49.1071C49.2244 15.1786 49.3405 15.2017 49.4489 15.2465C49.5573 15.2914 49.6557 15.3571 49.7386 15.4401C49.8216 15.523 49.8873 15.6214 49.9322 15.7298C49.977 15.8382 50.0001 15.9543 50 16.0716ZM44.6429 9.82157V4.46443H1.78571V9.82157H44.6429ZM28.5714 40.1787H48.2143V20.5359H28.5714V40.1787ZM28.5714 16.9644V18.7501H48.2143V16.9644H28.5714ZM48.2143 45.5359V41.9644H28.5714V45.5359H48.2143ZM40.1786 42.8573H36.6071C36.3703 42.8573 36.1432 42.9514 35.9758 43.1188C35.8084 43.2862 35.7143 43.5133 35.7143 43.7501C35.7143 43.9869 35.8084 44.214 35.9758 44.3815C36.1432 44.5489 36.3703 44.643 36.6071 44.643H40.1786C40.4154 44.643 40.6425 44.5489 40.8099 44.3815C40.9774 44.214 41.0714 43.9869 41.0714 43.7501C41.0714 43.5133 40.9774 43.2862 40.8099 43.1188C40.6425 42.9514 40.4154 42.8573 40.1786 42.8573ZM23.2143 31.2501H5.35714C5.23987 31.2502 5.12374 31.2272 5.01538 31.1823C4.90702 31.1375 4.80857 31.0717 4.72565 30.9888C4.64272 30.9059 4.57696 30.8074 4.53211 30.699C4.48727 30.5907 4.46422 30.4746 4.46429 30.3573V16.0716C4.46422 15.9543 4.48727 15.8382 4.53211 15.7298C4.57696 15.6214 4.64272 15.523 4.72565 15.4401C4.80857 15.3571 4.90702 15.2914 5.01538 15.2465C5.12374 15.2017 5.23987 15.1786 5.35714 15.1787H23.2143C23.3316 15.1786 23.4477 15.2017 23.556 15.2465C23.6644 15.2914 23.7629 15.3571 23.8458 15.4401C23.9287 15.523 23.9945 15.6214 24.0393 15.7298C24.0842 15.8382 24.1072 15.9543 24.1071 16.0716V30.3573C24.1072 30.4746 24.0842 30.5907 24.0393 30.699C23.9945 30.8074 23.9287 30.9059 23.8458 30.9888C23.7629 31.0717 23.6644 31.1375 23.556 31.1823C23.4477 31.2272 23.3316 31.2502 23.2143 31.2501ZM20.8672 16.9644H7.70427L14.2857 22.0833L20.8672 16.9644ZM15.74 23.2144L22.3214 28.3333V18.0955L15.74 23.2144ZM6.25 18.0955V28.3333L12.8314 23.2144L6.25 18.0955ZM7.70427 29.4644H20.8672L14.2857 24.3455L7.70427 29.4644ZM16.0714 33.9287H5.35714C5.12034 33.9287 4.89324 34.0228 4.7258 34.1902C4.55835 34.3577 4.46429 34.5848 4.46429 34.8216C4.46429 35.0584 4.55835 35.2855 4.7258 35.4529C4.89324 35.6204 5.12034 35.7144 5.35714 35.7144H16.0714C16.3082 35.7144 16.5353 35.6204 16.7028 35.4529C16.8702 35.2855 16.9643 35.0584 16.9643 34.8216C16.9643 34.5848 16.8702 34.3577 16.7028 34.1902C16.5353 34.0228 16.3082 33.9287 16.0714 33.9287ZM16.0714 37.5001H5.35714C5.12034 37.5001 4.89324 37.5942 4.7258 37.7617C4.55835 37.9291 4.46429 38.1562 4.46429 38.393C4.46429 38.6298 4.55835 38.8569 4.7258 39.0243C4.89324 39.1918 5.12034 39.2859 5.35714 39.2859H16.0714C16.3082 39.2859 16.5353 39.1918 16.7028 39.0243C16.8702 38.8569 16.9643 38.6298 16.9643 38.393C16.9643 38.1562 16.8702 37.9291 16.7028 37.7617C16.5353 37.5942 16.3082 37.5001 16.0714 37.5001ZM46.4286 23.2144V33.9287C46.4286 34.046 46.4056 34.1621 46.3607 34.2705C46.3159 34.3788 46.2501 34.4773 46.1672 34.5602C46.0843 34.6431 45.9858 34.7089 45.8775 34.7537C45.7691 34.7986 45.653 34.8216 45.5357 34.8216H31.25C31.1327 34.8216 31.0166 34.7986 30.9082 34.7537C30.7999 34.7089 30.7014 34.6431 30.6185 34.5602C30.5356 34.4773 30.4698 34.3788 30.425 34.2705C30.3801 34.1621 30.3571 34.046 30.3571 33.9287V23.2144C30.3571 23.0972 30.3801 22.981 30.425 22.8727C30.4698 22.7643 30.5356 22.6658 30.6185 22.5829C30.7014 22.5 30.7999 22.4342 30.9082 22.3894C31.0166 22.3445 31.1327 22.3215 31.25 22.3216H45.5357C45.653 22.3215 45.7691 22.3445 45.8775 22.3894C45.9858 22.4342 46.0843 22.5 46.1672 22.5829C46.2501 22.6658 46.3159 22.7643 46.3607 22.8727C46.4056 22.981 46.4286 23.0972 46.4286 23.2144ZM43.1072 24.1073H33.6785L38.3929 27.4747L43.1072 24.1073ZM39.9285 28.5716L44.6429 31.939V25.2041L39.9285 28.5716ZM32.1429 25.2042V31.939L36.8572 28.5716L32.1429 25.2042ZM33.6785 33.0359H43.1072L38.3929 29.6685L33.6785 33.0359Z" fill="black"/>
</g>
</svg>
