<svg width="50" height="50" viewBox="0 0 50 50" fill="none" xmlns="http://www.w3.org/2000/svg">
<path d="M27.7686 23.4186C29.1019 24.1884 29.1019 26.1129 27.7686 26.8827L15.8362 33.7719C14.5029 34.5417 12.8362 33.5794 12.8362 32.0398L12.8362 18.2616C12.8362 16.722 14.5029 15.7597 15.8362 16.5295L27.7686 23.4186Z" fill="#E6E6E6"/>
<path d="M17.7018 0.511587C17.0219 1.20072 17.0219 2.32056 17.7018 3.0097L39.4164 24.9758L17.7018 46.985C17.0219 47.6742 17.0219 48.794 17.7018 49.4831C18.3817 50.1723 19.4866 50.1723 20.1665 49.4831L43.0709 26.268C43.4108 25.9234 43.5808 25.4927 43.5808 25.0189C43.5808 24.5882 43.4108 24.1144 43.0709 23.7698L20.1665 0.554658C19.4866 -0.177547 18.3817 -0.177547 17.7018 0.511587Z" fill="#E6E6E6"/>
</svg>
