<svg width="50" height="50" viewBox="0 0 50 50" fill="none" xmlns="http://www.w3.org/2000/svg">
<mask id="mask0_82_584" style="mask-type:alpha" maskUnits="userSpaceOnUse" x="0" y="0" width="50" height="50">
<rect width="50" height="50" fill="#D9D9D9"/>
</mask>
<g mask="url(#mask0_82_584)">
<rect x="5" y="8" width="33" height="40" fill="#8AD5B9"/>
<mask id="mask1_82_584" style="mask-type:luminance" maskUnits="userSpaceOnUse" x="3" y="0" width="44" height="50">
<path d="M33.125 0L46.25 13.125V50H3.75V0H33.125ZM31.8744 2.5H6.25V47.5H43.75V14.3744L31.875 14.375L31.8744 2.5ZM16.25 35.4167V38.75H33.75V35.4167H36.25V41.25H13.75V35.4167H16.25ZM26.25 22.5V30.7325L28.5417 28.4406L30.3094 30.2083L26.25 34.2681L25 35.5178L19.6906 30.2083L21.4583 28.4406L23.75 30.7331V22.5H26.25ZM25 12.5V15H11.25V12.5H25ZM34.375 4.78562V11.875H41.4644L34.375 4.78562ZM25 7.5V10H11.25V7.5H25Z" fill="white"/>
</mask>
<g mask="url(#mask1_82_584)">
<path d="M3.75 0H46.25V50H3.75V0Z" fill="black"/>
</g>
</g>
</svg>
