<svg width="50" height="50" viewBox="0 0 50 50" fill="none" xmlns="http://www.w3.org/2000/svg">
<rect x="6.6665" y="7.5" width="43.3333" height="38.3333" rx="5" fill="#A9FFDF"/>
<path d="M47.5 0H2.5C1.83696 0 1.20107 0.263392 0.732233 0.732233C0.263392 1.20107 0 1.83696 0 2.5V47.5C0 48.163 0.263392 48.7989 0.732233 49.2678C1.20107 49.7366 1.83696 50 2.5 50H47.5C48.163 50 48.7989 49.7366 49.2678 49.2678C49.7366 48.7989 50 48.163 50 47.5V2.5C50 1.83696 49.7366 1.20107 49.2678 0.732233C48.7989 0.263392 48.163 0 47.5 0ZM1.66667 2.5C1.66667 2.27899 1.75446 2.06702 1.91074 1.91074C2.06702 1.75446 2.27899 1.66667 2.5 1.66667H47.5C47.721 1.66667 47.933 1.75446 48.0893 1.91074C48.2455 2.06702 48.3333 2.27899 48.3333 2.5V10H1.66667V2.5ZM48.3333 47.5C48.3333 47.721 48.2455 47.933 48.0893 48.0893C47.933 48.2455 47.721 48.3333 47.5 48.3333H2.5C2.27899 48.3333 2.06702 48.2455 1.91074 48.0893C1.75446 47.933 1.66667 47.721 1.66667 47.5V11.6667H48.3333V47.5Z" fill="black"/>
<path d="M44.1665 8.3335H24.1665C23.5035 8.3335 22.8676 8.0701 22.3987 7.60126C21.9299 7.13242 21.6665 6.49654 21.6665 5.8335C21.6665 5.17045 21.9299 4.53457 22.3987 4.06573C22.8676 3.59689 23.5035 3.3335 24.1665 3.3335H44.1665C44.8295 3.3335 45.4654 3.59689 45.9343 4.06573C46.4031 4.53457 46.6665 5.17045 46.6665 5.8335C46.6665 6.49654 46.4031 7.13242 45.9343 7.60126C45.4654 8.0701 44.8295 8.3335 44.1665 8.3335ZM24.1665 5.00016C23.9455 5.00016 23.7335 5.08796 23.5772 5.24424C23.421 5.40052 23.3332 5.61248 23.3332 5.8335C23.3332 6.05451 23.421 6.26647 23.5772 6.42275C23.7335 6.57903 23.9455 6.66683 24.1665 6.66683H44.1665C44.3875 6.66683 44.5995 6.57903 44.7558 6.42275C44.912 6.26647 44.9998 6.05451 44.9998 5.8335C44.9998 5.61248 44.912 5.40052 44.7558 5.24424C44.5995 5.08796 44.3875 5.00016 44.1665 5.00016H24.1665Z" fill="black"/>
<path d="M5.8335 8.3335C5.33904 8.3335 4.85569 8.18687 4.44457 7.91217C4.03345 7.63747 3.71302 7.24702 3.5238 6.79021C3.33458 6.33339 3.28507 5.83072 3.38153 5.34577C3.478 4.86082 3.7161 4.41536 4.06573 4.06573C4.41536 3.7161 4.86082 3.478 5.34577 3.38153C5.83072 3.28507 6.33339 3.33458 6.79021 3.5238C7.24702 3.71302 7.63747 4.03345 7.91217 4.44457C8.18687 4.85569 8.3335 5.33904 8.3335 5.8335C8.3335 6.49654 8.07011 7.13242 7.60126 7.60126C7.13242 8.07011 6.49654 8.3335 5.8335 8.3335ZM5.8335 5.00016C5.66868 5.00016 5.50756 5.04904 5.37052 5.14061C5.23348 5.23217 5.12667 5.36232 5.0636 5.51459C5.00052 5.66687 4.98402 5.83442 5.01618 5.99607C5.04833 6.15772 5.1277 6.30621 5.24424 6.42275C5.36079 6.5393 5.50927 6.61866 5.67092 6.65082C5.83257 6.68297 6.00013 6.66647 6.1524 6.6034C6.30467 6.54032 6.43482 6.43351 6.52639 6.29647C6.61796 6.15943 6.66683 5.99831 6.66683 5.8335C6.66683 5.61248 6.57903 5.40052 6.42275 5.24424C6.26647 5.08796 6.05451 5.00016 5.8335 5.00016Z" fill="black"/>
<path d="M11.6665 8.3335C11.1721 8.3335 10.6887 8.18687 10.2776 7.91217C9.86646 7.63747 9.54603 7.24702 9.35681 6.79021C9.16759 6.33339 9.11808 5.83072 9.21454 5.34577C9.311 4.86082 9.54911 4.41536 9.89874 4.06573C10.2484 3.7161 10.6938 3.478 11.1788 3.38153C11.6637 3.28507 12.1664 3.33458 12.6232 3.5238C13.08 3.71302 13.4705 4.03345 13.7452 4.44457C14.0199 4.85569 14.1665 5.33904 14.1665 5.8335C14.1665 6.49654 13.9031 7.13242 13.4343 7.60126C12.9654 8.07011 12.3295 8.3335 11.6665 8.3335ZM11.6665 5.00016C11.5017 5.00016 11.3406 5.04904 11.2035 5.14061C11.0665 5.23217 10.9597 5.36232 10.8966 5.51459C10.8335 5.66687 10.817 5.83442 10.8492 5.99607C10.8813 6.15772 10.9607 6.30621 11.0772 6.42275C11.1938 6.5393 11.3423 6.61866 11.5039 6.65082C11.6656 6.68297 11.8331 6.66647 11.9854 6.6034C12.1377 6.54032 12.2678 6.43351 12.3594 6.29647C12.451 6.15943 12.4998 5.99831 12.4998 5.8335C12.4998 5.61248 12.412 5.40052 12.2558 5.24424C12.0995 5.08796 11.8875 5.00016 11.6665 5.00016Z" fill="black"/>
<path d="M17.5 8.3335C17.0055 8.3335 16.5222 8.18687 16.1111 7.91217C15.7 7.63747 15.3795 7.24702 15.1903 6.79021C15.0011 6.33339 14.9516 5.83072 15.048 5.34577C15.1445 4.86082 15.3826 4.41536 15.7322 4.06573C16.0819 3.7161 16.5273 3.478 17.0123 3.38153C17.4972 3.28507 17.9999 3.33458 18.4567 3.5238C18.9135 3.71302 19.304 4.03345 19.5787 4.44457C19.8534 4.85569 20 5.33904 20 5.8335C20 6.49654 19.7366 7.13242 19.2678 7.60126C18.7989 8.07011 18.163 8.3335 17.5 8.3335ZM17.5 5.00016C17.3352 5.00016 17.1741 5.04904 17.037 5.14061C16.9 5.23217 16.7932 5.36232 16.7301 5.51459C16.667 5.66687 16.6505 5.83442 16.6827 5.99607C16.7148 6.15772 16.7942 6.30621 16.9107 6.42275C17.0273 6.5393 17.1758 6.61866 17.3374 6.65082C17.4991 6.68297 17.6666 6.66647 17.8189 6.6034C17.9712 6.54032 18.1013 6.43351 18.1929 6.29647C18.2845 6.15943 18.3333 5.99831 18.3333 5.8335C18.3333 5.61248 18.2455 5.40052 18.0893 5.24424C17.933 5.08796 17.721 5.00016 17.5 5.00016Z" fill="black"/>
<path d="M20.8332 26.6667H7.49984C7.27882 26.6667 7.06686 26.5789 6.91058 26.4226C6.7543 26.2663 6.6665 26.0543 6.6665 25.8333V15.8333C6.6665 15.6123 6.7543 15.4004 6.91058 15.2441C7.06686 15.0878 7.27882 15 7.49984 15H20.8332C21.0542 15 21.2661 15.0878 21.4224 15.2441C21.5787 15.4004 21.6665 15.6123 21.6665 15.8333V25.8333C21.6665 26.0543 21.5787 26.2663 21.4224 26.4226C21.2661 26.5789 21.0542 26.6667 20.8332 26.6667ZM8.33317 25H19.9998V16.6667H8.33317V25Z" fill="black"/>
<path d="M42.5 18.3332H25.8333C25.6123 18.3332 25.4004 18.2454 25.2441 18.0891C25.0878 17.9328 25 17.7209 25 17.4998C25 17.2788 25.0878 17.0669 25.2441 16.9106C25.4004 16.7543 25.6123 16.6665 25.8333 16.6665H42.5C42.721 16.6665 42.933 16.7543 43.0893 16.9106C43.2455 17.0669 43.3333 17.2788 43.3333 17.4998C43.3333 17.7209 43.2455 17.9328 43.0893 18.0891C42.933 18.2454 42.721 18.3332 42.5 18.3332Z" fill="black"/>
<path d="M42.5 21.6667H25.8333C25.6123 21.6667 25.4004 21.5789 25.2441 21.4226C25.0878 21.2663 25 21.0543 25 20.8333C25 20.6123 25.0878 20.4004 25.2441 20.2441C25.4004 20.0878 25.6123 20 25.8333 20H42.5C42.721 20 42.933 20.0878 43.0893 20.2441C43.2455 20.4004 43.3333 20.6123 43.3333 20.8333C43.3333 21.0543 43.2455 21.2663 43.0893 21.4226C42.933 21.5789 42.721 21.6667 42.5 21.6667Z" fill="black"/>
<path d="M42.5 25.0002H25.8333C25.6123 25.0002 25.4004 24.9124 25.2441 24.7561C25.0878 24.5998 25 24.3878 25 24.1668C25 23.9458 25.0878 23.7339 25.2441 23.5776C25.4004 23.4213 25.6123 23.3335 25.8333 23.3335H42.5C42.721 23.3335 42.933 23.4213 43.0893 23.5776C43.2455 23.7339 43.3333 23.9458 43.3333 24.1668C43.3333 24.3878 43.2455 24.5998 43.0893 24.7561C42.933 24.9124 42.721 25.0002 42.5 25.0002Z" fill="black"/>
<path d="M42.5002 33.3335H34.1668C33.9458 33.3335 33.7339 33.2457 33.5776 33.0894C33.4213 32.9331 33.3335 32.7212 33.3335 32.5002V29.1668C33.3335 28.9458 33.4213 28.7339 33.5776 28.5776C33.7339 28.4213 33.9458 28.3335 34.1668 28.3335H42.5002C42.7212 28.3335 42.9331 28.4213 43.0894 28.5776C43.2457 28.7339 43.3335 28.9458 43.3335 29.1668V32.5002C43.3335 32.7212 43.2457 32.9331 43.0894 33.0894C42.9331 33.2457 42.7212 33.3335 42.5002 33.3335ZM35.0002 31.6668H41.6668V30.0002H35.0002V31.6668Z" fill="black"/>
<path d="M15.8332 33.3335H7.49984C7.27882 33.3335 7.06686 33.2457 6.91058 33.0894C6.7543 32.9331 6.6665 32.7212 6.6665 32.5002V29.1668C6.6665 28.9458 6.7543 28.7339 6.91058 28.5776C7.06686 28.4213 7.27882 28.3335 7.49984 28.3335H15.8332C16.0542 28.3335 16.2661 28.4213 16.4224 28.5776C16.5787 28.7339 16.6665 28.9458 16.6665 29.1668V32.5002C16.6665 32.7212 16.5787 32.9331 16.4224 33.0894C16.2661 33.2457 16.0542 33.3335 15.8332 33.3335ZM8.33317 31.6668H14.9998V30.0002H8.33317V31.6668Z" fill="black"/>
<path d="M29.1667 33.3335H20.8333C20.6123 33.3335 20.4004 33.2457 20.2441 33.0894C20.0878 32.9331 20 32.7212 20 32.5002V29.1668C20 28.9458 20.0878 28.7339 20.2441 28.5776C20.4004 28.4213 20.6123 28.3335 20.8333 28.3335H29.1667C29.3877 28.3335 29.5996 28.4213 29.7559 28.5776C29.9122 28.7339 30 28.9458 30 29.1668V32.5002C30 32.7212 29.9122 32.9331 29.7559 33.0894C29.5996 33.2457 29.3877 33.3335 29.1667 33.3335ZM21.6667 31.6668H28.3333V30.0002H21.6667V31.6668Z" fill="black"/>
<path d="M42.4998 45H7.49984C7.27882 45 7.06686 44.9122 6.91058 44.7559C6.7543 44.5996 6.6665 44.3877 6.6665 44.1667V35.8333C6.6665 35.6123 6.7543 35.4004 6.91058 35.2441C7.06686 35.0878 7.27882 35 7.49984 35H42.4998C42.7209 35 42.9328 35.0878 43.0891 35.2441C43.2454 35.4004 43.3332 35.6123 43.3332 35.8333V44.1667C43.3332 44.3877 43.2454 44.5996 43.0891 44.7559C42.9328 44.9122 42.7209 45 42.4998 45ZM8.33317 43.3333H41.6665V36.6667H8.33317V43.3333Z" fill="black"/>
</svg>
