<svg width="50" height="50" viewBox="0 0 50 50" fill="none" xmlns="http://www.w3.org/2000/svg">
<path d="M10.2021 38H11.7979C11.8515 38 11.9029 38.0322 11.9408 38.0894C11.9787 38.1466 12 38.2243 12 38.3052V40.6948C12 40.7757 11.9787 40.8534 11.9408 40.9106C11.9029 40.9678 11.8515 41 11.7979 41H10.2021C10.1485 41 10.0971 40.9678 10.0592 40.9106C10.0213 40.8534 10 40.7757 10 40.6948V38.3052C10 38.2243 10.0213 38.1466 10.0592 38.0894C10.0971 38.0322 10.1485 38 10.2021 38Z" fill="black"/>
<path d="M48.0767 41.8758L41.6124 35.3399V6.25627C41.6124 5.07244 41.1472 3.9371 40.3193 3.1C39.4914 2.2629 38.3685 1.79263 37.1976 1.79263H28.2191C28.0372 1.27245 27.7015 0.821423 27.2575 0.500739C26.8134 0.180055 26.2826 0.00523677 25.7369 0H16.0102C15.4646 0.00523677 14.9337 0.180055 14.4897 0.500739C14.0456 0.821423 13.7099 1.27245 13.528 1.79263H5.41477C4.2439 1.79263 3.12099 2.2629 2.29306 3.1C1.46513 3.9371 1 5.07244 1 6.25627V45.5364C1 46.7202 1.46513 47.8555 2.29306 48.6926C3.12099 49.5297 4.2439 50 5.41477 50H37.1976C38.3685 50 39.4914 49.5297 40.3193 48.6926C41.1472 47.8555 41.6124 46.7202 41.6124 45.5364V44.8659L43.3854 46.6585C44.0169 47.261 44.8562 47.5901 45.7244 47.5759C46.5925 47.5616 47.4208 47.2051 48.0327 46.5822C48.6446 45.9593 48.9916 45.1195 48.9998 44.2416C49.0081 43.3638 48.6768 42.5174 48.0767 41.883V41.8758ZM36.3146 6.25627V17.4243L35.8395 17.1017L35.4317 16.8722C35.1472 16.6964 34.8523 16.5383 34.5487 16.399V6.25627C34.5487 6.01951 34.4557 5.79244 34.2901 5.62502C34.1245 5.4576 33.8999 5.36355 33.6658 5.36355H25.7369V4.47082C25.7378 4.23434 25.8312 4.00782 25.9966 3.8406C26.1619 3.67339 26.386 3.57903 26.6199 3.57809H33.6835C34.3829 3.58282 35.0521 3.86707 35.5451 4.36882C36.038 4.87056 36.3146 5.54907 36.3146 6.25627ZM18.6449 13.3981C18.4098 13.3981 18.1843 13.3037 18.0181 13.1356C17.8518 12.9675 17.7584 12.7395 17.7584 12.5018C17.7584 12.2641 17.8518 12.0361 18.0181 11.868C18.1843 11.6999 18.4098 11.6055 18.6449 11.6055H30.134C30.3691 11.6055 30.5945 11.6999 30.7608 11.868C30.9271 12.0361 31.0205 12.2641 31.0205 12.5018C31.0205 12.7395 30.9271 12.9675 30.7608 13.1356C30.5945 13.3037 30.3691 13.3981 30.134 13.3981H18.6449ZM23.0703 16.0763C23.0708 16.1934 23.0484 16.3094 23.0044 16.4177C22.9604 16.5259 22.8957 16.6244 22.814 16.7073C22.7323 16.7903 22.6352 16.8561 22.5283 16.901C22.4213 16.9459 22.3067 16.969 22.1909 16.969H18.6449C18.4098 16.969 18.1843 16.8746 18.0181 16.7065C17.8518 16.5384 17.7584 16.3104 17.7584 16.0727C17.7584 15.835 17.8518 15.607 18.0181 15.4389C18.1843 15.2708 18.4098 15.1764 18.6449 15.1764H22.1909C22.3072 15.1769 22.4222 15.2005 22.5294 15.2461C22.6365 15.2916 22.7338 15.3581 22.8155 15.4417C22.8972 15.5253 22.9618 15.6244 23.0055 15.7333C23.0492 15.8422 23.0712 15.9588 23.0703 16.0763ZM11.287 28.9223C11.1208 29.0898 10.8957 29.1838 10.6611 29.1838C10.4264 29.1838 10.2014 29.0898 10.0352 28.9223L8.16292 27.0293C7.99693 26.86 7.90424 26.631 7.90524 26.3927C7.90623 26.1543 8.00084 25.9261 8.16824 25.7583C8.33564 25.5905 8.56213 25.4967 8.79787 25.4977C9.03362 25.4987 9.25931 25.5944 9.4253 25.7637L10.6699 27.0293L13.7869 23.8706C13.9558 23.718 14.176 23.6365 14.4025 23.6429C14.6289 23.6493 14.8444 23.7431 15.0045 23.9051C15.1647 24.0671 15.2575 24.2849 15.2638 24.5138C15.2702 24.7428 15.1896 24.9655 15.0386 25.1362L11.287 28.9223ZM14.2443 37.5018V41.9654C14.2434 42.2019 14.1501 42.4284 13.9847 42.5956C13.8193 42.7629 13.5952 42.8572 13.3614 42.8582H8.94659C8.71242 42.8582 8.48783 42.7641 8.32225 42.5967C8.15666 42.4293 8.06363 42.2022 8.06363 41.9654V37.5018C8.06317 37.3844 8.08568 37.2681 8.12989 37.1596C8.1741 37.0511 8.23912 36.9525 8.3212 36.8695C8.40328 36.7865 8.50081 36.7207 8.60814 36.676C8.71548 36.6314 8.83051 36.6086 8.94659 36.6091H13.3614C13.4773 36.6091 13.5921 36.6322 13.6993 36.677C13.8064 36.7219 13.9037 36.7876 13.9857 36.8705C14.0677 36.9534 14.1327 37.0518 14.1771 37.1602C14.2215 37.2685 14.2443 37.3846 14.2443 37.5018ZM15.028 12.6416L11.287 16.4241C11.1208 16.5915 10.8957 16.6856 10.6611 16.6856C10.4264 16.6856 10.2014 16.5915 10.0352 16.4241L8.16292 14.531C7.99693 14.3618 7.90424 14.1328 7.90524 13.8944C7.90623 13.6561 8.00084 13.4279 8.16824 13.2601C8.33564 13.0922 8.56213 12.9985 8.79787 12.9995C9.03362 13.0005 9.25931 13.0962 9.4253 13.2655L10.6699 14.531L13.7762 11.3796C13.9437 11.2166 14.1677 11.1265 14.4002 11.1289C14.6326 11.1313 14.8548 11.2258 15.019 11.3923C15.1831 11.5587 15.276 11.7836 15.2777 12.0187C15.2794 12.2537 15.1897 12.48 15.028 12.6488V12.6416ZM16.0102 1.79263H25.7369C25.8465 1.79224 25.955 1.81419 26.056 1.85716L25.8362 1.91811C25.7549 1.94205 25.6755 1.97201 25.5986 2.00774C25.5361 2.02713 25.4765 2.05486 25.4213 2.0902L25.2263 2.19418C25.1243 2.25855 25.0271 2.33045 24.9355 2.40929L24.7511 2.58138C24.6509 2.68873 24.5562 2.80122 24.4674 2.9184C24.4063 3.00104 24.3563 3.09145 24.3185 3.18729C24.2384 3.33111 24.1754 3.48393 24.1306 3.64262C24.1063 3.71305 24.0861 3.78489 24.0703 3.85774C24.0239 3.97117 23.9882 4.08882 23.9639 4.20909V6.25986H15.1273V2.6746C15.1301 2.4397 15.2243 2.21539 15.3896 2.05029C15.5549 1.88519 15.7779 1.79261 16.0102 1.79263ZM2.76591 45.5328V6.25627C2.76591 5.54597 3.04498 4.86477 3.54174 4.36251C4.0385 3.86025 4.71225 3.57809 5.41477 3.57809H13.3614V5.37072H5.41477C5.1806 5.37072 4.95601 5.46477 4.79043 5.63219C4.62484 5.79961 4.53182 6.02668 4.53182 6.26344V45.5364C4.53182 45.6536 4.55466 45.7697 4.59903 45.878C4.6434 45.9863 4.70844 46.0847 4.79043 46.1676C4.87242 46.2505 4.96975 46.3163 5.07688 46.3611C5.184 46.406 5.29882 46.4291 5.41477 46.4291H33.6658C33.8999 46.4291 34.1245 46.335 34.2901 46.1676C34.4557 46.0002 34.5487 45.7731 34.5487 45.5364V38.9861C34.8218 38.8498 35.0983 38.7064 35.3608 38.5559L36.3146 39.5203V45.5471C36.3146 46.2574 36.0356 46.9386 35.5388 47.4409C35.042 47.9431 34.3683 48.2253 33.6658 48.2253H5.41477C4.71225 48.2253 4.0385 47.9431 3.54174 47.4409C3.04498 46.9386 2.76591 46.2574 2.76591 45.5471V45.5328ZM46.8214 45.3714C46.5296 45.6657 46.1343 45.8309 45.7222 45.8309C45.31 45.8309 44.9147 45.6657 44.6229 45.3714L41.357 42.0694L37.811 38.4842L36.1054 36.7596C36.0234 36.6771 35.926 36.6117 35.8189 36.5674C35.7118 36.5231 35.5971 36.5007 35.4813 36.5015C35.3992 36.4872 35.3152 36.4872 35.2331 36.5015C35.1497 36.5302 35.07 36.5687 34.9955 36.6162C34.5966 36.8886 34.1769 37.1284 33.7402 37.3333L33.3005 37.5305H33.219C33.102 37.5843 32.9814 37.6309 32.8644 37.6739C32.7474 37.7169 32.5665 37.7814 32.414 37.8245C32.1835 37.8962 31.9566 37.9679 31.7261 38.0217C31.4956 38.0754 31.2687 38.1185 31.0169 38.1543H29.2829C26.4728 38.1543 23.7778 37.0256 21.7908 35.0166C19.8038 33.0076 18.6875 30.2828 18.6875 27.4416C18.6875 24.6004 19.8038 21.8755 21.7908 19.8665C23.7778 17.8575 26.4728 16.7288 29.2829 16.7288H30.3893L30.8041 16.7826H30.8822L31.4992 16.9009L32.0736 17.0336H32.1197L32.3928 17.1124L32.6658 17.2021L32.9672 17.3096L33.3573 17.4638C34.646 17.9968 35.8182 18.7814 36.8067 19.7729C37.7953 20.7643 38.5808 21.9431 39.1183 23.2418C39.6558 24.5405 39.9347 25.9336 39.9392 27.3414C39.9437 28.7492 39.6736 30.1441 39.1443 31.4463C39.0841 31.5969 39.0202 31.7439 38.9529 31.8909C38.7285 32.4227 38.4629 32.9358 38.1585 33.4254C38.0493 33.5966 38.001 33.8003 38.0216 34.003C38.0423 34.2057 38.1306 34.3952 38.272 34.5404L40.045 36.333L46.7647 43.145C47.0678 43.4308 47.2463 43.8266 47.2609 44.2455C47.2756 44.6643 47.1251 45.0719 46.8427 45.3786C46.8357 45.3769 46.8286 45.3757 46.8214 45.375V45.3714Z" fill="black"/>
<path d="M34.2153 20.4474C34.0378 20.3279 33.8739 20.2187 33.6793 20.106C33.3662 19.9256 33.0398 19.7692 32.703 19.6384L32.3342 19.5018C32.2236 19.4517 32.1095 19.4095 31.9929 19.3755C31.5947 19.2559 31.1886 19.1646 30.7775 19.1024C30.3549 19.0377 29.9282 19.0034 29.5007 19C27.2462 19 25.084 19.8955 23.4898 21.4896C21.8956 23.0837 21 25.2457 21 27.5C21 29.7543 21.8956 31.9163 23.4898 33.5104C25.084 35.1045 27.2462 36 29.5007 36C29.9223 35.9973 30.3432 35.9654 30.7604 35.9044L31.3886 35.7884L32.0168 35.6177C32.4597 35.4847 32.8895 35.311 33.3004 35.0988C33.4056 35.0508 33.5081 34.9972 33.6076 34.9384L33.7783 34.8428C33.9332 34.7572 34.0836 34.6638 34.229 34.5629C35.3894 33.7859 36.3405 32.735 36.9982 31.5032C37.6559 30.2713 38 28.8964 38 27.5C38 26.1036 37.6559 24.7287 36.9982 23.4968C36.3405 22.265 35.3894 21.2141 34.229 20.4371L34.2153 20.4474Z" fill="black"/>
</svg>
