<svg width="50" height="50" viewBox="0 0 50 50" fill="none" xmlns="http://www.w3.org/2000/svg">
<rect x="6.48145" y="9.25928" width="43.5185" height="38.8889" rx="5" fill="#A9FFDF"/>
<path d="M47.2222 0H2.77778C1.25 0 0 1.25 0 2.77778V47.2222C0 48.75 1.25 50 2.77778 50H47.2222C48.75 50 50 48.75 50 47.2222V2.77778C50 1.25 48.75 0 47.2222 0ZM48.1481 2.77778V7.40741H16.6667V1.85185H47.2222C47.7315 1.85185 48.1481 2.26852 48.1481 2.77778ZM2.77778 1.85185H14.8148V7.40741H1.85185V2.77778C1.85185 2.26852 2.26852 1.85185 2.77778 1.85185ZM47.2222 48.1481H2.77778C2.26852 48.1481 1.85185 47.7315 1.85185 47.2222V9.25926H48.1481V47.2222C48.1481 47.7315 47.7315 48.1481 47.2222 48.1481ZM3.7037 4.62963C3.7037 4.12037 4.12037 3.7037 4.62963 3.7037C5.13889 3.7037 5.55556 4.12037 5.55556 4.62963C5.55556 5.13889 5.13889 5.55556 4.62963 5.55556C4.12037 5.55556 3.7037 5.13889 3.7037 4.62963ZM7.40741 4.62963C7.40741 4.12037 7.82407 3.7037 8.33333 3.7037C8.84259 3.7037 9.25926 4.12037 9.25926 4.62963C9.25926 5.13889 8.84259 5.55556 8.33333 5.55556C7.82407 5.55556 7.40741 5.13889 7.40741 4.62963ZM11.1111 4.62963C11.1111 4.12037 11.5278 3.7037 12.037 3.7037C12.5463 3.7037 12.963 4.12037 12.963 4.62963C12.963 5.13889 12.5463 5.55556 12.037 5.55556C11.5278 5.55556 11.1111 5.13889 11.1111 4.62963ZM42.5926 12.963H7.40741C6.38889 12.963 5.55556 13.7963 5.55556 14.8148V25C5.55556 26.0185 6.38889 26.8519 7.40741 26.8519H42.5926C43.6111 26.8519 44.4444 26.0185 44.4444 25V14.8148C44.4444 13.7963 43.6111 12.963 42.5926 12.963ZM7.40741 25V14.8148H42.5926V25H7.40741ZM18.5185 30.5556H7.40741C6.38889 30.5556 5.55556 31.3889 5.55556 32.4074V41.6667C5.55556 42.6852 6.38889 43.5185 7.40741 43.5185H18.5185C19.537 43.5185 20.3704 42.6852 20.3704 41.6667V32.4074C20.3704 31.3889 19.537 30.5556 18.5185 30.5556ZM7.40741 41.6667V32.4074H18.5185V41.6667H7.40741ZM44.4444 31.4815C44.4444 31.9907 44.0278 32.4074 43.5185 32.4074H25C24.4907 32.4074 24.0741 31.9907 24.0741 31.4815C24.0741 30.9722 24.4907 30.5556 25 30.5556H43.5185C44.0278 30.5556 44.4444 30.9722 44.4444 31.4815ZM44.4444 37.037C44.4444 37.5463 44.0278 37.963 43.5185 37.963H25C24.4907 37.963 24.0741 37.5463 24.0741 37.037C24.0741 36.5278 24.4907 36.1111 25 36.1111H43.5185C44.0278 36.1111 44.4444 36.5278 44.4444 37.037ZM44.4444 42.5926C44.4444 43.1019 44.0278 43.5185 43.5185 43.5185H25C24.4907 43.5185 24.0741 43.1019 24.0741 42.5926C24.0741 42.0833 24.4907 41.6667 25 41.6667H43.5185C44.0278 41.6667 44.4444 42.0833 44.4444 42.5926Z" fill="black"/>
</svg>
