<svg version="1.2" xmlns="http://www.w3.org/2000/svg" viewBox="0 0 128 75" width="128" height="75">
	<title>noun-suv-3011857-svg</title>
	<style>
		tspan { white-space:pre } 
		.s0 { fill: #000000 } 
		.t1 { font-size: 5px;fill: #000000;font-family: "' Helvetica  Neue'" } 
	</style>
	<g id="Layer">
		<g id="Layer">
			<path id="Layer" fill-rule="evenodd" class="s0" d="m38.8 54.8c0 4.9-4 8.9-8.8 8.9-4.9 0-8.9-4-8.9-8.9 0-4.9 4-8.9 8.9-8.9 4.8 0 8.8 4 8.8 8.9zm-4 0c0-2.7-2.2-4.9-4.8-4.9-2.7 0-4.9 2.2-4.9 4.9 0 2.7 2.2 4.9 4.9 4.9 2.6 0 4.8-2.2 4.8-4.9z"/>
			<path id="Layer" fill-rule="evenodd" class="s0" d="m113 56.7c-0.9 8.6-8.2 15.3-17 15.3-8.8 0-16-6.7-17-15.3h-32c-1 8.6-8.2 15.3-17 15.3-9.4 0-17.1-7.6-17.1-17.1l-9.6-3.7c-0.8-0.3-1.3-1-1.3-1.8v-9.2c0-0.5 0.2-0.9 0.4-1.3l1.9-2.4v-9.4c0-3.2 1.1-6.3 3.2-8.7l8.3-10.2c1.2-1.4 2.8-2.2 4.6-2.2h43.1c7.2 0 14.3 2 20.4 5.8 6.5 4 12.9 8.7 14.4 9.8l14.7 3.6c7.7 2.2 13.2 9.5 13 17.5-0.1 7.1-5.8 13.3-13 14zm-107-8.7l7.3 2.8c1.8-7.6 8.6-13.2 16.7-13.2 8.7 0 15.9 6.6 16.9 15.1h32.1c1.1-8.5 8.3-15.1 17-15.1 8.7 0 16 6.6 17 15.1 2.1-0.3 4-1.2 5.5-2.6h-1c-1.1 0-2-0.9-2-2 0-1.1 0.9-2 2-2h3.8q0.4-1 0.6-2.1c-5.8-1-9.4-4.8-9.4-10.3 0-1.1 0.9-2 2-2h2.4c-2.4-1.8-4.8-2.5-4.9-2.6l-15-3.7q-0.4-0.1-0.8-0.4c0 0-7.1-5.3-14.4-9.8-5.5-3.4-11.8-5.2-18.3-5.2h-43.1c-0.6 0-1.1 0.3-1.5 0.7l-8.4 10.2c-1.4 1.7-2.2 4-2.2 6.2v10.1c0 0.4-0.1 0.9-0.4 1.2l-1.9 2.4zm110.8-12.2c0.8 2.6 3.1 3.7 5 4.2-0.2-1.6-0.7-3-1.4-4.2zm-73.7 19c0-7.2-5.9-13.2-13.1-13.2-7.3 0-13.1 6-13.1 13.2 0 7.3 5.8 13.2 13.1 13.2 7.2 0 13.1-5.9 13.1-13.2zm66 0c0-7.2-5.8-13.2-13.1-13.2-7.2 0-13.1 6-13.1 13.2 0 7.3 5.9 13.2 13.1 13.2 7.3 0 13.1-5.9 13.1-13.2z"/>
			<path id="Layer" fill-rule="evenodd" class="s0" d="m104.9 54.8c0 4.9-4 8.9-8.9 8.9-4.8 0-8.8-4-8.8-8.9 0-4.9 4-8.9 8.8-8.9 4.9 0 8.9 4 8.9 8.9zm-4 0c0-2.7-2.2-4.9-4.9-4.9-2.6 0-4.8 2.2-4.8 4.9 0 2.7 2.2 4.9 4.8 4.9 2.7 0 4.9-2.2 4.9-4.9z"/>
			<path id="Layer" fill-rule="evenodd" class="s0" d="m55.3 27.4v-12.6c0-1.1 0.9-2 2-2h7.7c7 0 18.7 6.5 24.5 13.4 1 1.3 0.1 3.2-1.5 3.2h-30.7c-1.1 0-2-0.9-2-2zm4-2h23.7c-5.5-4.7-13.3-8.6-18-8.6h-5.7z"/>
			<path id="Layer" fill-rule="evenodd" class="s0" d="m35 27.4v-12.6c0-1.1 0.9-2 2-2h11.5c1.2 0 2 0.9 2 2v12.6c0 1.1-0.8 2-2 2h-11.5c-1.1 0-2-0.9-2-2zm4-2h7.5v-8.6h-7.5z"/>
			<path id="Layer" fill-rule="evenodd" class="s0" d="m14.9 27.4c0-7.8 6.2-14.6 13.4-14.6h0.1c1.1 0 2 0.9 2 2v12.6c0 1.1-0.9 2-2 2h-11.5c-1.2 0-2-0.9-2-2zm4.1-2h7.4v-8.3c-3.6 0.9-6.6 4.3-7.4 8.3z"/>
			<path id="Layer" class="s0" d="m49.5 46.6v1.3c0 1.1 0.9 2 2 2h24.4c1.1 0 2-0.9 2-2v-1.3c0-1.1-0.9-2-2-2-0.9 0-1.6 0.5-1.9 1.3h-20.6c-0.2-0.8-1-1.3-1.9-1.3-1.1 0-2 0.9-2 2z"/>
		</g>
	</g>
	<text id="Created by SBTS" style="transform: matrix(1,0,0,1,0,118)" >
		<tspan x="0" y="0" class="t1">Created by SBTS
</tspan>
	</text>
	<text id="from the Noun Project" style="transform: matrix(1,0,0,1,0,123)" >
		<tspan x="0" y="0" class="t1">from the Noun Project
</tspan>
	</text>
</svg>